<?xml version="1.0" encoding="UTF-8"?>
<svg width="22px" height="18px" viewBox="0 0 22 18" version="1.1" xmlns="http://www.w3.org/2000/svg" xmlns:xlink="http://www.w3.org/1999/xlink">
    <!-- Generator: Sketch 46.2 (44496) - http://www.bohemiancoding.com/sketch -->
    <title>Combined Shape Copy 18</title>
    <desc>Created with Sketch.</desc>
    <defs></defs>
    <g id="Page-1" stroke="none" stroke-width="1" fill="none" fill-rule="evenodd">
        <path d="M6.15000001,10 L6.15000001,9.19999999 C6.15000001,9.00670033 6.30670034,8.84999999 6.5,8.84999999 C6.69329966,8.84999999 6.84999999,9.00670033 6.84999999,9.19999999 L6.84999999,10 L7.65000001,10 C7.84329967,10 8,10.1567003 8,10.35 C8,10.5432997 7.84329967,10.7 7.65000001,10.7 L6.84999999,10.7 L6.84999999,11.5 C6.84999999,11.6932997 6.69329966,11.85 6.5,11.85 L6.5,11.85 C6.30670034,11.85 6.15000001,11.6932997 6.15000001,11.5 L6.15000001,10.7 L5.34999999,10.7 C5.15670033,10.7 5,10.5432997 5,10.35 C5,10.1567003 5.15670033,10 5.34999999,10 L6.15000001,10 Z M4.07692308,5.60869565 L4.07692308,5.08695652 L4.03846154,5.08695652 C3.76231916,5.08695652 3.53846154,4.8630989 3.53846154,4.58695652 L3.53846154,3.5 C3.53846154,3.22385763 3.76231916,3 4.03846154,3 L8.96153846,3 C9.23768084,3 9.46153846,3.22385763 9.46153846,3.5 L9.46153846,4.58695652 C9.46153846,4.8630989 9.23768084,5.08695652 8.96153846,5.08695652 L8.92307692,5.08695652 L8.92307692,5.60869565 L9,5.60869565 C9.55228475,5.60869565 10,6.0564109 10,6.60869565 L10,14 L10,14 C10,14.5522847 9.55228475,15 9,15 L4,15 L4,15 C3.44771525,15 3,14.5522847 3,14 L3,6.60869565 L3,6.60869565 C3,6.0564109 3.44771525,5.60869565 4,5.60869565 L4.07692308,5.60869565 Z M0,0 L17,0 C19.7614237,-5.07265313e-16 22,2.23857625 22,5 L22,18 L5,18 C2.23857625,18 3.38176876e-16,15.7614237 0,13 L0,0 Z M1,1 L1,13 C1,15.209139 2.790861,17 5,17 L21,17 L21,5 C21,2.790861 19.209139,1 17,1 L1,1 Z M4,8.2173913 L4,12.3913043 L9,12.3913043 L9,8.2173913 L4,8.2173913 Z M12.5,9 L18.5,9 L18.5,9 C18.7761424,9 19,9.22385763 19,9.5 L19,9.5 C19,9.77614237 18.7761424,10 18.5,10 L12.5,10 C12.2238576,10 12,9.77614237 12,9.5 C12,9.22385763 12.2238576,9 12.5,9 Z M12.5,13 L18.5,13 C18.7761424,13 19,13.2238576 19,13.5 L19,13.5 C19,13.7761424 18.7761424,14 18.5,14 L12.5,14 C12.2238576,14 12,13.7761424 12,13.5 C12,13.2238576 12.2238576,13 12.5,13 L12.5,13 Z M12.5,5 L16.5,5 C16.7761424,5 17,5.22385763 17,5.5 C17,5.77614237 16.7761424,6 16.5,6 L12.5,6 C12.2238576,6 12,5.77614237 12,5.5 C12,5.22385763 12.2238576,5 12.5,5 Z" id="Combined-Shape-Copy-18" fill="#007ADA"></path>
    </g>
</svg>
