<?xml version="1.0" encoding="UTF-8"?>
<svg width="19px" height="19px" viewBox="0 0 19 19" version="1.1" xmlns="http://www.w3.org/2000/svg" xmlns:xlink="http://www.w3.org/1999/xlink">
    <!-- Generator: Sketch 52 (66869) - http://www.bohemiancoding.com/sketch -->
    <title>认证</title>
    <desc>Created with Sketch.</desc>
    <g id="管理员" stroke="none" stroke-width="1" fill="none" fill-rule="evenodd">
        <g id="画板" transform="translate(-247.000000, -1413.000000)" fill="#FFFFFF">
            <path d="M253.906166,1427.74737 C254.022973,1428.45561 254.279822,1429.11874 254.631688,1429.74953 C254.65866,1429.79693 254.680873,1429.84611 254.715878,1429.91532 C254.386206,1429.91532 254.080192,1429.92172 253.773215,1429.9144 C252.45784,1429.88345 251.147205,1429.77233 249.842233,1429.61018 C249.102475,1429.51907 248.367937,1429.38747 247.630086,1429.27814 C247.351968,1429.23625 247.201543,1429.08138 247.132033,1428.82407 C246.986828,1428.28116 246.972148,1427.73368 247.036013,1427.18028 C247.062985,1426.94528 247.08331,1426.70843 247.124462,1426.47614 C247.219075,1425.94465 247.561982,1425.57797 248.039691,1425.34386 C248.376934,1425.17946 248.744906,1425.07332 249.102494,1424.95169 C249.664875,1424.76176 250.242379,1424.60509 250.793412,1424.38783 C251.266401,1424.2011 251.649034,1423.88502 251.868989,1423.42228 C251.999532,1423.14808 251.942313,1422.85793 251.931891,1422.57147 C251.920081,1422.25445 251.789518,1421.98755 251.522767,1421.80767 C251.004852,1421.45693 250.688897,1420.98191 250.529012,1420.40073 C250.487418,1420.24861 250.400376,1420.15112 250.24997,1420.07188 C249.929275,1419.90291 249.809617,1419.58909 249.722113,1419.273 C249.616634,1418.89042 249.676704,1418.52514 249.921704,1418.20129 C250.017743,1418.07423 250.018667,1417.93576 250.034292,1417.79276 C250.100026,1417.18471 250.122258,1416.568 250.248082,1415.97091 C250.494045,1414.80765 251.156703,1413.91724 252.282389,1413.38252 C252.763893,1413.15296 253.284178,1413.05231 253.815811,1413.01497 C254.910287,1412.93662 255.931457,1413.16524 256.872348,1413.71543 C257.484376,1414.07298 257.899665,1414.58856 258.163102,1415.22301 C258.452123,1415.91986 258.600121,1416.64359 258.630407,1417.39191 C258.638017,1417.58687 258.6437,1417.78182 258.662099,1417.97583 C258.669227,1418.04006 258.699956,1418.11067 258.743496,1418.16029 C258.880146,1418.31333 258.9653,1418.48595 258.985625,1418.68544 C259.016855,1418.98515 258.985625,1419.27983 258.87165,1419.5613 C258.773743,1419.80316 258.602048,1419.98307 258.36695,1420.11379 C258.291314,1420.15568 258.209917,1420.23859 258.192424,1420.316 C258.101182,1420.7132 257.852387,1420.92723 257.470679,1421.1117 C255.101401,1422.25354 253.410001,1424.76725 253.906166,1427.74737 Z M260.441041,1421.27979 C263.519194,1421.28888 265.999961,1423.68234 266,1426.64333 C266,1429.61202 263.50592,1432.00093 260.40696,1432 C257.368533,1432 254.866323,1429.57466 254.872006,1426.63741 C254.87769,1423.68052 257.382712,1421.27022 260.441041,1421.27979 Z M264.044181,1425.15985 C264.214931,1424.99271 264.213987,1424.88476 264.046107,1424.72126 C263.849494,1424.53012 263.651943,1424.33989 263.45346,1424.15055 C263.306368,1424.00983 263.185284,1424.008 263.043836,1424.14693 C262.197212,1424.97997 261.354344,1425.81575 260.504849,1426.64424 C260.207311,1426.93391 259.894709,1427.20718 259.581566,1427.49456 C259.574978,1427.4882 259.54658,1427.46405 259.520572,1427.43856 C258.896734,1426.83734 258.273802,1426.2361 257.649925,1425.63581 C257.482488,1425.47411 257.363292,1425.4764 257.19678,1425.64129 C257.006205,1425.83077 256.812259,1426.01885 256.619199,1426.20742 C256.443266,1426.38006 256.442303,1426.48347 256.619199,1426.65426 C257.12492,1427.13933 257.63197,1427.62346 258.137575,1428.10765 L259.437364,1429.3565 C259.560316,1429.47403 259.611871,1429.47585 259.740526,1429.36422 C259.769386,1429.33964 259.795838,1429.31187 259.82281,1429.2859 C260.74326,1428.38637 261.662265,1427.48727 262.582677,1426.58775 C263.069845,1426.11224 263.557957,1425.63674 264.044181,1425.15985 Z" id="认证"></path>
        </g>
    </g>
</svg>