<?xml version="1.0" encoding="UTF-8"?>
<svg width="22px" height="16px" viewBox="0 0 22 16" version="1.1" xmlns="http://www.w3.org/2000/svg" xmlns:xlink="http://www.w3.org/1999/xlink">
    <!-- Generator: Sketch 52 (66869) - http://www.bohemiancoding.com/sketch -->
    <title>个人资料</title>
    <desc>Created with Sketch.</desc>
    <g id="管理员" stroke="none" stroke-width="1" fill="none" fill-rule="evenodd">
        <g id="画板" transform="translate(-274.000000, -1416.000000)" fill="#FFFFFF">
            <path d="M281.128874,1426.21756 C278.31158,1426.21756 276.019332,1423.92569 276.019332,1421.10878 C276.019332,1418.29187 278.311548,1416 281.128874,1416 C283.945404,1416 286.236921,1418.29187 286.236921,1421.10878 C286.236921,1423.92569 283.945404,1426.21756 281.128874,1426.21756 Z M285.561581,1416 L296,1416 L296,1431.9466 L289.546236,1431.90057 C289.546236,1431.90057 289.578051,1430.23559 288.353646,1428.21988 C287.404855,1426.65791 285.760235,1425.52695 285.760235,1425.52695 C285.760235,1425.52695 286.327626,1424.95523 286.783792,1423.88758 L293.77854,1423.88758 L293.77854,1422.61694 L287.186349,1422.61694 C287.327799,1421.95754 287.392606,1421.19369 287.310109,1420.33322 L293.778572,1420.33322 L293.778572,1419.06259 L287.053584,1419.06259 C286.570248,1417.63966 285.561581,1416.76159 285.561581,1416.76159 L285.561581,1416 Z M293.778572,1427.06075 L293.778572,1425.79012 L288.446323,1425.79012 L288.446323,1427.06075 L293.778572,1427.06075 Z M288.253937,1431.47813 C288.277003,1431.68709 288.12604,1431.87528 287.917015,1431.89837 C287.902921,1431.89987 287.888763,1431.9006 287.874637,1431.9006 C287.861338,1431.9006 287.848199,1431.89974 287.835186,1431.89837 L274.412858,1431.89837 C274.402296,1431.89926 274.391669,1431.89987 274.380916,1431.89987 C274.36679,1431.89987 274.351932,1431.89837 274.337043,1431.89688 C274.128781,1431.87308 273.979282,1431.68566 274.002347,1431.47816 C274.006802,1431.43575 274.128781,1430.41903 275.151447,1428.74005 C276.036766,1427.28648 277.577987,1426.23254 278.039815,1425.93749 C278.898379,1426.59113 279.969022,1426.97985 281.128906,1426.97985 C282.288345,1426.97985 283.358574,1426.59123 284.216851,1425.93771 C284.679061,1426.23305 286.219773,1427.2868 287.10487,1428.73967 C288.127504,1430.41903 288.249451,1431.43575 288.253937,1431.47813 Z" id="个人资料"></path>
        </g>
    </g>
</svg>