<?xml version="1.0" encoding="UTF-8"?>
<svg width="19px" height="19px" viewBox="0 0 19 19" version="1.1" xmlns="http://www.w3.org/2000/svg" xmlns:xlink="http://www.w3.org/1999/xlink">
    <!-- Generator: Sketch 52 (66869) - http://www.bohemiancoding.com/sketch -->
    <title>医生</title>
    <desc>Created with Sketch.</desc>
    <g id="管理员" stroke="none" stroke-width="1" fill="none" fill-rule="evenodd">
        <g id="画板" transform="translate(-120.000000, -1413.000000)" fill="#FFFFFF">
            <path d="M134.25,1424.3124 C137.359766,1425.26082 138.998145,1427.26902 139,1430.15512 C138.94248,1431.30956 138.281934,1431.99814 137.235449,1431.99814 L121.770117,1432 C120.718066,1432 120.05752,1431.31884 120,1430.1774 C120,1430.1013 120.001855,1430.02706 120.003711,1429.95282 C120.018555,1429.41086 120.094629,1428.89304 120.228223,1428.41604 C120.361816,1427.93904 120.554785,1427.49175 120.803418,1427.08157 C121.052051,1426.67324 121.360059,1426.29462 121.721875,1425.95682 C122.081836,1425.61903 122.503027,1425.31464 122.974316,1425.05109 C123.519824,1424.7467 124.143262,1424.48872 124.831641,1424.28456 C125.436523,1424.10638 126.078516,1423.98203 126.796582,1423.90593 L127.347656,1423.84839 C126.458887,1423.55329 125.709277,1422.71994 125.340039,1421.61561 C125.058008,1420.77298 125.002344,1419.88209 124.980078,1419.00606 C124.983789,1419.0042 125.397559,1418.44554 125.822461,1418.08919 C126.245508,1417.73654 127.425586,1417.07024 129.516699,1417.07024 C131.65791,1417.07024 132.825,1417.8312 133.244336,1418.10589 C133.492969,1418.26922 133.862207,1418.6961 134.083008,1418.92439 C134.068164,1419.59812 134.023633,1420.27743 133.875195,1420.93817 C133.708203,1421.67871 133.333398,1422.7088 132.487305,1423.41037 C132.355566,1423.51988 132.212695,1423.61825 132.060547,1423.70919 C132.793457,1423.90593 133.637695,1424.13979 134.027344,1424.24929 C134.095996,1424.26785 134.166504,1424.28641 134.235156,1424.30683 C134.238867,1424.30868 134.248145,1424.31054 134.25,1424.3124 Z M124.957813,1417.86461 L124.904004,1414.76507 C124.900293,1414.61102 124.898438,1414.43841 124.968945,1414.28622 C125.072852,1414.06535 125.295508,1413.94842 125.497754,1413.85562 C126.71123,1413.29696 128.076855,1413 129.449902,1413 C130.895313,1413 132.327734,1413.32666 133.59502,1413.94657 C133.763867,1414.03009 133.953125,1414.13402 134.042188,1414.31777 C134.108984,1414.45326 134.107129,1414.60731 134.107129,1414.7428 L134.094141,1417.82378 C133.543066,1417.31894 133.24248,1417.1816 133.24248,1417.1816 C132.539258,1416.77142 131.331348,1416.29628 129.514844,1416.29628 C127.720605,1416.29628 126.525684,1416.75471 125.820605,1417.15747 C125.820605,1417.15747 125.336328,1417.37833 124.957813,1417.86461 Z M128.60752,1414.72052 C128.446094,1414.72052 128.314355,1414.8523 128.314355,1415.01377 C128.314355,1415.17525 128.446094,1415.30702 128.60752,1415.30702 L129.106641,1415.30702 L129.106641,1415.80629 C129.106641,1415.96776 129.238379,1416.09954 129.399805,1416.09954 C129.56123,1416.09954 129.692969,1415.96776 129.692969,1415.80629 L129.692969,1415.30702 L130.19209,1415.30702 C130.353516,1415.30702 130.485254,1415.17525 130.485254,1415.01377 C130.485254,1414.8523 130.353516,1414.72052 130.19209,1414.72052 L129.692969,1414.72052 L129.692969,1414.22126 C129.692969,1414.05978 129.56123,1413.92801 129.399805,1413.92801 C129.238379,1413.92801 129.106641,1414.05978 129.106641,1414.22126 L129.106641,1414.72052 L128.60752,1414.72052 Z" id="医生"></path>
        </g>
    </g>
</svg>