<?xml version="1.0" encoding="UTF-8"?>
<svg width="19px" height="19px" viewBox="0 0 19 19" version="1.1" xmlns="http://www.w3.org/2000/svg" xmlns:xlink="http://www.w3.org/1999/xlink">
    <!-- Generator: Sketch 52 (66869) - http://www.bohemiancoding.com/sketch -->
    <title>患者</title>
    <desc>Created with Sketch.</desc>
    <g id="管理员" stroke="none" stroke-width="1" fill="none" fill-rule="evenodd">
        <g id="画板" transform="translate(-205.000000, -1413.000000)" fill="#FFFFFF">
            <path d="M219.859182,1432 C219.859182,1432 213.24722,1426.90673 216.616534,1425.24233 C218.560856,1424.28157 219.825615,1425.51023 219.825615,1425.51023 C219.825615,1425.51023 221.092275,1424.28157 223.03533,1425.2417 C226.406544,1426.908 219.859182,1432 219.859182,1432 Z M216.040204,1424.26953 C214.133881,1424.75403 214.135148,1425.65273 214.133881,1427.2728 C214.133881,1428.70033 216.221969,1431.1298 217.215664,1432 L205,1432 C204.999275,1428.47849 207.218887,1425.33914 210.539102,1424.16567 C208.661913,1423.17007 207.368653,1421.21497 207.368653,1418.9375 C207.368653,1415.6581 210.019772,1413 213.290286,1413 C216.560801,1413 219.211919,1415.6581 219.211919,1418.9375 C219.211919,1421.21497 217.919293,1423.17007 216.040837,1424.1663 C216.257436,1424.2423 215.831838,1424.17517 216.040837,1424.26953 L216.040204,1424.26953 Z" id="患者"></path>
        </g>
    </g>
</svg>