<?xml version="1.0" encoding="UTF-8"?>
<svg width="19px" height="19px" viewBox="0 0 19 19" version="1.1" xmlns="http://www.w3.org/2000/svg" xmlns:xlink="http://www.w3.org/1999/xlink">
    <!-- Generator: Sketch 52 (66869) - http://www.bohemiancoding.com/sketch -->
    <title>护士</title>
    <desc>Created with Sketch.</desc>
    <g id="管理员" stroke="none" stroke-width="1" fill="none" fill-rule="evenodd">
        <g id="画板" transform="translate(-162.000000, -1413.000000)" fill="#FFFFFF">
            <path d="M172.900075,1427.94737 C173.071624,1427.83028 173.308169,1427.86882 173.430686,1428.03312 C173.552316,1428.19754 173.51266,1428.42635 173.341491,1428.54345 C172.824563,1428.8979 172.162187,1429.07524 171.499303,1429.07524 C170.83642,1429.07524 170.174296,1428.8979 169.658129,1428.54345 C169.48734,1428.42574 169.447557,1428.19717 169.56944,1428.03263 C169.691324,1427.86833 169.928502,1427.83028 170.099798,1427.94737 C170.858212,1428.46856 172.140775,1428.46856 172.900075,1427.94737 Z M176.795023,1416.74819 C179.328474,1418.35577 180.99962,1421.07769 181,1424.16235 C181,1426.92415 179.585038,1429.89916 175.634216,1430.05602 C174.496342,1431.25573 173.04147,1432 171.50057,1432 C169.960177,1432 168.505178,1431.25573 167.367684,1430.05602 C163.415469,1429.90014 162,1426.92427 162,1424.16235 C162,1421.07769 163.672666,1418.35772 166.205104,1416.75063 L165.691977,1415.07059 C165.647633,1414.92593 165.700339,1414.76932 165.82501,1414.67711 C167.267086,1413.61132 169.335809,1413 171.500063,1413 C173.664317,1413 175.732787,1413.61132 177.17461,1414.67711 C177.299027,1414.76932 177.351987,1414.92569 177.307643,1415.07059 L176.795023,1416.74819 Z M170.185699,1415.94415 C169.975634,1415.94415 169.805605,1416.10784 169.805605,1416.31006 C169.805605,1416.51229 169.975634,1416.67598 170.185699,1416.67598 L171.119209,1416.67598 L171.119209,1417.57564 C171.119209,1417.77811 171.289491,1417.94156 171.499303,1417.94156 C171.709368,1417.94156 171.879397,1417.77811 171.879397,1417.57564 L171.879397,1416.67598 L172.813414,1416.67598 C173.023099,1416.67598 173.193508,1416.51229 173.193508,1416.31006 C173.193508,1416.10784 173.023099,1415.94415 172.813414,1415.94415 L171.879397,1415.94415 L171.879397,1415.04595 C171.879397,1414.84372 171.709368,1414.68004 171.499303,1414.68004 C171.289491,1414.68004 171.119209,1414.84372 171.119209,1415.04595 L171.119209,1415.94415 L170.185699,1415.94415 Z M171.500317,1431.26817 C174.534732,1431.26817 177.195895,1427.90883 177.195895,1424.07892 C177.195895,1424.04111 177.193361,1424.00367 177.192854,1423.96598 C174.847676,1423.71654 172.765776,1422.69479 171.499303,1421.15221 C170.233844,1422.69381 168.152704,1423.71593 165.808793,1423.96549 C165.808286,1424.00367 165.805752,1424.04111 165.805752,1424.07892 C165.805752,1427.90883 168.466915,1431.26817 171.500317,1431.26817 Z" id="护士"></path>
        </g>
    </g>
</svg>