<?xml version="1.0" encoding="UTF-8"?>
<svg width="18px" height="18px" viewBox="0 0 18 18" version="1.1" xmlns="http://www.w3.org/2000/svg" xmlns:xlink="http://www.w3.org/1999/xlink">
    <!-- Generator: Sketch 52 (66869) - http://www.bohemiancoding.com/sketch -->
    <title>下拉/未来医生</title>
    <desc>Created with Sketch.</desc>
    <g id="下拉/未来医生" stroke="none" stroke-width="1" fill="none" fill-rule="evenodd">
        <path d="M8.5,10 L6.5,10 C6.22385763,10 6,10.2238576 6,10.5 C6,10.7761424 6.22385763,11 6.5,11 L8.5,11 L8.5,13 C8.5,13.2761424 8.72385763,13.5 9,13.5 C9.27614237,13.5 9.5,13.2761424 9.5,13 L9.5,11 L11.5,11 C11.7761424,11 12,10.7761424 12,10.5 C12,10.2238576 11.7761424,10 11.5,10 L9.5,10 L9.5,8 C9.5,7.72385763 9.27614237,7.5 9,7.5 C8.72385763,7.5 8.5,7.72385763 8.5,8 L8.5,10 Z M5,4 L5,3 C5,1.8954305 5.8954305,1 7,1 L11,1 C12.1045695,1 13,1.8954305 13,3 L13,4 L15,4 C16.1045695,4 17,4.8954305 17,6 L17,15 C17,16.1045695 16.1045695,17 15,17 L3,17 C1.8954305,17 1,16.1045695 1,15 L1,6 C1,4.8954305 1.8954305,4 3,4 L5,4 Z M6,4 L12,4 L12,3 C12,2.44771525 11.5522847,2 11,2 L7,2 C6.44771525,2 6,2.44771525 6,3 L6,4 Z" id="合并形状" fill="#333333"></path>
    </g>
</svg>