<?xml version="1.0" encoding="UTF-8"?>
<svg width="30px" height="22px" viewBox="0 0 30 22" version="1.1" xmlns="http://www.w3.org/2000/svg" xmlns:xlink="http://www.w3.org/1999/xlink">
    <!-- Generator: Sketch 52.1 (67048) - http://www.bohemiancoding.com/sketch -->
    <title>全屏视频框 </title>
    <desc>Created with Sketch.</desc>
    <g id="全屏视频框-" stroke="none" stroke-width="1" fill="none" fill-rule="evenodd">
        <path d="M1,1 L1,21 L29,21 L29,1 L1,1 Z M1,0 L29,0 C29.5522847,-1.01453063e-16 30,0.44771525 30,1 L30,21 C30,21.5522847 29.5522847,22 29,22 L1,22 C0.44771525,22 6.76353751e-17,21.5522847 0,21 L0,1 C-6.76353751e-17,0.44771525 0.44771525,1.01453063e-16 1,0 Z M22.7251347,4.61020395 L21.4996969,2.72319518 L27.3269668,2.5160117 L24.7675311,7.75521858 L23.5420933,5.8682098 L17.4617317,9.81684281 C17.2301392,9.96724073 16.9204748,9.90141952 16.7700769,9.66982704 L16.4977573,9.25049176 C16.3473594,9.01889928 16.4131806,8.70923487 16.6447731,8.55883696 L22.7251347,4.61020395 Z M7.24216125,17.4426359 L8.50034528,19.3079704 L2.67757871,19.6168222 L5.14518786,14.333745 L6.4033719,16.1990795 L12.4138943,12.144931 C12.6428267,11.9905141 12.9535927,12.0509209 13.1080095,12.2798533 L13.387606,12.6943721 C13.5420228,12.9233045 13.4816161,13.2340705 13.2526837,13.3884873 L7.24216125,17.4426359 Z" id="合并形状" fill="#FFFFFF" fill-rule="nonzero"></path>
    </g>
</svg>