<?xml version="1.0" encoding="UTF-8"?>
<svg width="18px" height="18px" viewBox="0 0 18 18" version="1.1" xmlns="http://www.w3.org/2000/svg" xmlns:xlink="http://www.w3.org/1999/xlink">
    <!-- Generator: Sketch 52 (66869) - http://www.bohemiancoding.com/sketch -->
    <title>下拉/个人资料</title>
    <desc>Created with Sketch.</desc>
    <g id="下拉/个人资料" stroke="none" stroke-width="1" fill="none" fill-rule="evenodd">
        <path d="M3,2 L15,2 C16.1045695,2 17,2.8954305 17,4 L17,14 C17,15.1045695 16.1045695,16 15,16 L3,16 C1.8954305,16 1,15.1045695 1,14 L1,4 C1,2.8954305 1.8954305,2 3,2 Z M6,9 C7.1045695,9 8,8.1045695 8,7 C8,5.8954305 7.1045695,5 6,5 C4.8954305,5 4,5.8954305 4,7 C4,8.1045695 4.8954305,9 6,9 Z M5,9 C3.8954305,9 3,9.8954305 3,11 L3,12 L9,12 L9,11 C9,9.8954305 8.1045695,9 7,9 L5,9 Z M9.5,5 C9.22385763,5 9,5.22385763 9,5.5 C9,5.77614237 9.22385763,6 9.5,6 L14.5,6 C14.7761424,6 15,5.77614237 15,5.5 C15,5.22385763 14.7761424,5 14.5,5 L9.5,5 Z M10.5,8 C10.2238576,8 10,8.22385763 10,8.5 C10,8.77614237 10.2238576,9 10.5,9 L14.5,9 C14.7761424,9 15,8.77614237 15,8.5 C15,8.22385763 14.7761424,8 14.5,8 L10.5,8 Z M11.5,11 C11.2238576,11 11,11.2238576 11,11.5 C11,11.7761424 11.2238576,12 11.5,12 L14.5,12 C14.7761424,12 15,11.7761424 15,11.5 C15,11.2238576 14.7761424,11 14.5,11 L11.5,11 Z" id="合并形状" fill="#333333"></path>
    </g>
</svg>