<?xml version="1.0" encoding="UTF-8"?>
<svg width="18px" height="18px" viewBox="0 0 18 18" version="1.1" xmlns="http://www.w3.org/2000/svg" xmlns:xlink="http://www.w3.org/1999/xlink">
    <!-- Generator: Sketch 52 (66869) - http://www.bohemiancoding.com/sketch -->
    <title>下拉/未来医生</title>
    <desc>Created with Sketch.</desc>
    <g id="下拉/未来医生" stroke="none" stroke-width="1" fill="none" fill-rule="evenodd">
        <path d="M12.7048968,8.05488785 C14.8553306,8.3931889 16.5,10.2545279 16.5,12.5 L16.5,15 C16.5,16.1045695 15.6045695,17 14.5,17 L3.5,17 C2.3954305,17 1.5,16.1045695 1.5,15 L1.5,12.5 C1.5,10.2545279 3.14466935,8.3931889 5.29510323,8.05488785 C4.88298953,7.45840652 4.61120621,6.75754019 4.52746439,6 L13.4725356,6 C13.3887938,6.75754019 13.1170105,7.45840652 12.7048968,8.05488785 Z M13.5,5 L4.5,5 L4.5,3.5 C4.5,1.56700338 6.06700338,3.55085719e-16 8,0 L10,0 C11.9329966,-3.55085719e-16 13.5,1.56700338 13.5,3.5 L13.5,5 Z M8.5,2.5 L8,2.5 C7.72385763,2.5 7.5,2.72385763 7.5,3 C7.5,3.27614237 7.72385763,3.5 8,3.5 L8.5,3.5 L8.5,4 C8.5,4.27614237 8.72385763,4.5 9,4.5 C9.27614237,4.5 9.5,4.27614237 9.5,4 L9.5,3.5 L10,3.5 C10.2761424,3.5 10.5,3.27614237 10.5,3 C10.5,2.72385763 10.2761424,2.5 10,2.5 L9.5,2.5 L9.5,2 C9.5,1.72385763 9.27614237,1.5 9,1.5 C8.72385763,1.5 8.5,1.72385763 8.5,2 L8.5,2.5 Z" id="合并形状" fill="#333333"></path>
    </g>
</svg>