<?xml version="1.0" encoding="UTF-8"?>
<svg width="12px" height="12px" viewBox="0 0 12 12" version="1.1" xmlns="http://www.w3.org/2000/svg" xmlns:xlink="http://www.w3.org/1999/xlink">
    <!-- Generator: Sketch 52 (66869) - http://www.bohemiancoding.com/sketch -->
    <title>上传悬浮选中</title>
    <desc>Created with Sketch.</desc>
    <g id="上传悬浮选中" stroke="none" stroke-width="1" fill="none" fill-rule="evenodd">
        <path d="M9.5,9.33139254 L9.5,5.83139254 C9.5,5.55525017 9.72385763,5.33139254 10,5.33139254 C10.2761424,5.33139254 10.5,5.55525017 10.5,5.83139254 L10.5,9.83139254 C10.5,10.1075349 10.2761424,10.3313925 10,10.3313925 L2,10.3313925 C1.72385763,10.3313925 1.5,10.1075349 1.5,9.83139254 L1.5,5.83139254 C1.5,5.55525017 1.72385763,5.33139254 2,5.33139254 C2.27614237,5.33139254 2.5,5.55525017 2.5,5.83139254 L2.5,9.33139254 L9.5,9.33139254 Z M6.5,4.33139254 L6.5,7.83139254 C6.5,8.10753492 6.27614237,8.33139254 6,8.33139254 C5.72385763,8.33139254 5.5,8.10753492 5.5,7.83139254 L5.5,4.33139254 L4.14051248,4.33139254 C3.97482706,4.33139254 3.84051248,4.19707797 3.84051248,4.03139254 C3.84051248,3.96121159 3.86511735,3.89325172 3.9100461,3.83933722 L5.76953362,1.6079522 C5.87560284,1.48066913 6.06477225,1.46347191 6.19205532,1.56954114 C6.20599424,1.5811569 6.21885062,1.59401328 6.23046638,1.6079522 L8.0899539,3.83933722 C8.19602312,3.96662029 8.17882591,4.1557897 8.05154284,4.26185893 C7.99762834,4.30678768 7.92966847,4.33139254 7.85948752,4.33139254 L6.5,4.33139254 Z" id="合并形状" fill="#3296FA"></path>
    </g>
</svg>