<?xml version="1.0" encoding="utf-8"?>
<!-- Generator: Adobe Illustrator 22.1.0, SVG Export Plug-In . SVG Version: 6.00 Build 0)  -->
<svg version="1.1" id="图层_1" xmlns="http://www.w3.org/2000/svg" xmlns:xlink="http://www.w3.org/1999/xlink" x="0px" y="0px"
	 viewBox="0 0 59.4 59.4" style="enable-background:new 0 0 59.4 59.4;" xml:space="preserve">
<style type="text/css">
	.st0{fill:none;stroke:#000000;stroke-width:2;stroke-miterlimit:10;}
	.st1{fill:none;stroke:#000000;stroke-width:2;stroke-linecap:round;stroke-miterlimit:10;}
</style>
<path id="XMLID_203_" class="st0" d="M44.2,20.8H14.5c-1.3,0-2.3-1-2.3-2.3v-3.7c0-1.3,1-2.3,2.3-2.3h29.7c1.3,0,2.3,1,2.3,2.3v3.7
	C46.5,19.8,45.5,20.8,44.2,20.8z"/>
<circle id="XMLID_204_" cx="16.7" cy="16.7" r="1.1"/>
<path id="XMLID_206_" class="st0" d="M44.2,34.9H14.6c-1.3,0-2.3-1-2.3-2.3v-3.7c0-1.3,1-2.3,2.3-2.3h29.7c1.3,0,2.3,1,2.3,2.3v3.7
	C46.6,33.9,45.5,34.9,44.2,34.9z"/>
<circle id="XMLID_205_" cx="16.8" cy="30.7" r="1.1"/>
<path id="XMLID_208_" class="st0" d="M44.2,48.8H14.5c-1.3,0-2.3-1-2.3-2.3v-3.7c0-1.3,1-2.3,2.3-2.3h29.7c1.3,0,2.3,1,2.3,2.3v3.7
	C46.5,47.8,45.5,48.8,44.2,48.8z"/>
<circle id="XMLID_207_" cx="16.7" cy="44.6" r="1.1"/>
<rect id="XMLID_209_" x="4" y="4.4" class="st0" width="50.6" height="50.6"/>
</svg>
