<?xml version="1.0" encoding="UTF-8"?>
<svg width="16px" height="18px" viewBox="0 0 16 18" version="1.1" xmlns="http://www.w3.org/2000/svg" xmlns:xlink="http://www.w3.org/1999/xlink">
    <!-- Generator: Sketch 52 (66869) - http://www.bohemiancoding.com/sketch -->
    <title>管理员_修改密码</title>
    <desc>Created with Sketch.</desc>
    <g id="管理员" stroke="none" stroke-width="1" fill="none" fill-rule="evenodd">
        <g id="画板" transform="translate(-80.000000, -2210.000000)" fill="#333333">
            <path d="M87.5,2221.84606 L87.5,2223.5 C87.5,2223.77614 87.7238576,2224 88,2224 C88.2761424,2224 88.5,2223.77614 88.5,2223.5 L88.5,2221.91679 C88.8784082,2221.76248 89.1428571,2221.41006 89.1428571,2221 C89.1428571,2220.44772 88.6631622,2220 88.0714286,2220 C87.4796949,2220 87,2220.44772 87,2221 C87,2221.35621 87.1995475,2221.66892 87.5,2221.84606 Z M80,2217 L96,2217 L96,2223 C96,2225.76142 93.7614237,2228 91,2228 L85,2228 C82.2385763,2228 80,2225.76142 80,2223 L80,2217 Z M91.6,2216 C91.6,2214.01177 89.9882251,2212.4 88,2212.4 C86.0117749,2212.4 84.4,2214.01177 84.4,2216 L82,2216 C82,2212.68629 84.6862915,2210 88,2210 C91.3137085,2210 94,2212.68629 94,2216 L91.6,2216 Z" id="管理员_修改密码"></path>
        </g>
    </g>
</svg>