<?xml version="1.0" encoding="UTF-8"?>
<svg width="18px" height="18px" viewBox="0 0 18 18" version="1.1" xmlns="http://www.w3.org/2000/svg" xmlns:xlink="http://www.w3.org/1999/xlink">
    <!-- Generator: Sketch 52 (66869) - http://www.bohemiancoding.com/sketch -->
    <title>下拉/我的积分@2x</title>
    <desc>Created with Sketch.</desc>
    <g id="下拉/我的积分" stroke="none" stroke-width="1" fill="none" fill-rule="evenodd">
        <path d="M9.72149176,2.75178085 L17.4756726,10.8314915 C17.785785,11.1546227 17.8432323,11.64454 17.6162846,12.0306464 L14.8522416,16.7331171 C14.6726135,17.0387188 14.3446215,17.2263853 13.9901379,17.2263853 L4.00986208,17.2263853 C3.65537846,17.2263853 3.3273865,17.0387188 3.14775836,16.7331171 L0.383715397,12.0306464 C0.156767736,11.64454 0.214215049,11.1546227 0.524327356,10.8314915 L8.27850824,2.75178085 C8.66092291,2.35331195 9.29395412,2.34029743 9.69242302,2.7227121 C9.70231076,2.73220147 9.71200239,2.7418931 9.72149176,2.75178085 Z" id="多边形" fill="#333333" transform="translate(9.000000, 9.613193) scale(1, -1) translate(-9.000000, -9.613193) "></path>
        <rect id="矩形" fill="#FFFFFF" x="5" y="6" width="8" height="1" rx="0.5"></rect>
    </g>
</svg>