<?xml version="1.0" encoding="UTF-8"?>
<svg width="17px" height="20px" viewBox="0 0 17 20" version="1.1" xmlns="http://www.w3.org/2000/svg" xmlns:xlink="http://www.w3.org/1999/xlink">
    <!-- Generator: Sketch 52 (66869) - http://www.bohemiancoding.com/sketch -->
    <title>管理员_子管理员</title>
    <desc>Created with Sketch.</desc>
    <g id="管理员" stroke="none" stroke-width="1" fill="none" fill-rule="evenodd">
        <g id="画板" transform="translate(-40.000000, -2207.000000)" fill="#333333" fill-rule="nonzero">
            <path d="M48.5377814,2217.53999 L48.5377814,2217.54001 C45.9088962,2217.54001 43.7777778,2214.38889 43.7777778,2211.76 C43.7777778,2209.13112 45.9088962,2207 48.5377814,2207 C51.1666667,2207 53.2977851,2209.13112 53.2977851,2211.76 C53.2977851,2214.38889 51.1666667,2217.53999 48.5377814,2217.53999 Z M40,2222.72029 C40,2221.4341 40.932914,2219.92599 42.0838347,2219.35175 L44.200711,2218.29555 L45.8042111,2223.82668 C45.8042111,2223.82668 45.8490566,2224.3053 46.6506472,2224.3053 C47.4522377,2224.3053 47.4522377,2223.82668 47.4522377,2223.82668 L47.4522377,2219.31556 C47.4522377,2219.31556 47.4886063,2218.29555 48.5338164,2218.29555 C49.5790037,2218.29555 49.5790037,2219.31556 49.5790037,2219.31556 L49.5790037,2223.82668 C49.5790037,2223.82668 49.8522696,2224.39363 50.4997721,2224.39363 C51.1472974,2224.39363 51.2254352,2223.82668 51.2254352,2223.82668 L52.795324,2218.29555 L54.9157552,2219.35252 C56.0668581,2219.92631 57,2221.43392 57,2222.72026 L57,2224.12674 C57,2225.41291 55.9573877,2226.45556 54.6713153,2226.45556 L42.3286847,2226.45556 C41.0425896,2226.45556 40,2225.41311 40,2224.12674 L40,2222.72029 Z" id="管理员_子管理员"></path>
        </g>
    </g>
</svg>