<?xml version="1.0" encoding="UTF-8"?>
<svg width="18px" height="18px" viewBox="0 0 18 18" version="1.1" xmlns="http://www.w3.org/2000/svg" xmlns:xlink="http://www.w3.org/1999/xlink">
    <!-- Generator: Sketch 52 (66869) - http://www.bohemiancoding.com/sketch -->
    <title>下拉/出诊时间</title>
    <desc>Created with Sketch.</desc>
    <g id="下拉/出诊时间" stroke="none" stroke-width="1" fill="none" fill-rule="evenodd">
        <path d="M14,3 L15,3 C16.1045695,3 17,3.8954305 17,5 L17,14 C17,15.1045695 16.1045695,16 15,16 L3,16 C1.8954305,16 1,15.1045695 1,14 L1,5 C1,3.8954305 1.8954305,3 3,3 L4,3 L4,2 C4,1.44771525 4.44771525,1 5,1 C5.55228475,1 6,1.44771525 6,2 L6,3 L12,3 L12,2 C12,1.44771525 12.4477153,1 13,1 C13.5522847,1 14,1.44771525 14,2 L14,3 Z M9.5012278,9.21625619 L9.5012278,6.5 C9.5012278,6.22385763 9.27737018,6 9.0012278,6 C8.72508543,6 8.5012278,6.22385763 8.5012278,6.5 L8.5012278,9.46882271 C8.48823342,9.65360811 8.57886743,9.83843171 8.75008349,9.93728335 L11.3481597,11.4372834 C11.587306,11.5753545 11.8931012,11.493417 12.0311724,11.2542707 C12.1692436,11.0151243 12.087306,10.7093291 11.8481597,10.5712579 L9.5012278,9.21625619 Z" id="合并形状" fill="#333333"></path>
    </g>
</svg>