<?xml version="1.0" encoding="utf-8"?>
<!-- Generator: Adobe Illustrator 19.0.0, SVG Export Plug-In . SVG Version: 6.00 Build 0)  -->
<svg version="1.1" id="图层_1" xmlns="http://www.w3.org/2000/svg" xmlns:xlink="http://www.w3.org/1999/xlink" x="0px" y="0px"
	 viewBox="0 0 841.9 595.3" style="enable-background:new 0 0 841.9 595.3;" xml:space="preserve">
<style type="text/css">
	.st0{fill:none;stroke:#000000;stroke-width:2;stroke-miterlimit:10;}
</style>
<path id="XMLID_1_" class="st0" d="M403.6,316.3h-19.8c-1.8,0-3.3-1.5-3.3-3.3v-30.6c0-1.8,1.5-3.3,3.3-3.3h16.5
	c1.8,0,3.3,1.5,3.3,3.3V316.3z"/>
<path id="XMLID_2_" class="st0" d="M411.7,316.3h-8.1v-23h8.1c1.6,0,3,1.3,3,3v17C414.7,314.9,413.4,316.3,411.7,316.3z"/>
<line id="XMLID_3_" class="st0" x1="386.6" y1="291.7" x2="397.6" y2="291.7"/>
<line id="XMLID_4_" class="st0" x1="392.1" y1="286.5" x2="392.1" y2="297.2"/>
<path id="XMLID_188_" class="st0" d="M406.7,934.5l21.7-5l21.2,5v20.4c-0.8,2.9-4.6,14.7-15.4,19.3c-2,0.8-4,1.3-5.9,1.6
	c-1.8-0.3-3.4-0.7-4.8-1.2c-11-4.1-15.6-15.5-16.9-19.2L406.7,934.5z"/>
<line id="XMLID_187_" class="st0" x1="416" y1="951.8" x2="427.8" y2="963.7"/>
<line id="XMLID_189_" class="st0" x1="426.5" y1="963.7" x2="442" y2="948.3"/>
<path id="XMLID_203_" class="st0" d="M438.3,1671.5h-34.8c-1.5,0-2.7-1.2-2.7-2.7v-4.4c0-1.5,1.2-2.7,2.7-2.7h34.8
	c1.5,0,2.7,1.2,2.7,2.7v4.4C441.1,1670.3,439.8,1671.5,438.3,1671.5z"/>
<circle id="XMLID_204_" cx="406.1" cy="1666.6" r="1.2"/>
<path id="XMLID_206_" class="st0" d="M438.4,1688.1h-34.8c-1.5,0-2.7-1.2-2.7-2.7v-4.4c0-1.5,1.2-2.7,2.7-2.7h34.8
	c1.5,0,2.7,1.2,2.7,2.7v4.4C441.1,1686.8,439.9,1688.1,438.4,1688.1z"/>
<circle id="XMLID_205_" cx="406.2" cy="1683.1" r="1.2"/>
<path id="XMLID_208_" class="st0" d="M438.3,1704.3h-34.8c-1.5,0-2.7-1.2-2.7-2.7v-4.4c0-1.5,1.2-2.7,2.7-2.7h34.8
	c1.5,0,2.7,1.2,2.7,2.7v4.4C441.1,1703.1,439.8,1704.3,438.3,1704.3z"/>
<circle id="XMLID_207_" cx="406.1" cy="1699.4" r="1.2"/>
<rect id="XMLID_209_" x="391.3" y="1652.2" class="st0" width="59.4" height="59.4"/>
<rect id="XMLID_223_" x="430.7" y="2998.9" class="st0" width="12.5" height="12.5"/>
<rect id="XMLID_224_" x="452" y="3042.1" class="st0" width="12.5" height="12.5"/>
<rect id="XMLID_225_" x="430.7" y="3042.1" class="st0" width="12.5" height="12.5"/>
<rect id="XMLID_226_" x="408.4" y="3042.1" class="st0" width="12.5" height="12.5"/>
<line id="XMLID_227_" class="st0" x1="437" y1="3011.4" x2="437" y2="3042.1"/>
<line id="XMLID_228_" class="st0" x1="413.7" y1="3026.8" x2="459.3" y2="3026.8"/>
<line id="XMLID_229_" class="st0" x1="414.7" y1="3027.2" x2="414.7" y2="3042.5"/>
<line id="XMLID_230_" class="st0" x1="458.3" y1="3026.8" x2="458.3" y2="3041.5"/>
<path id="XMLID_244_" class="st0" d="M460.4,2360.9v-34.4c0-1.8-1.5-3.3-3.3-3.3h-44.9c-1.8,0-3.3,1.5-3.3,3.3v49.3
	c0,1.8,1.5,3.3,3.3,3.3h26.7"/>
<polygon id="XMLID_245_" class="st0" points="448.2,2366 459.5,2366 464.5,2374.7 459.3,2383.2 448.2,2383.2 443.4,2374.6 "/>
<line id="XMLID_246_" class="st0" x1="416.4" y1="2330.9" x2="447.5" y2="2330.9"/>
<line id="XMLID_247_" class="st0" x1="416.4" y1="2339.8" x2="447.5" y2="2339.8"/>
<line id="XMLID_248_" class="st0" x1="416.4" y1="2348.7" x2="435.6" y2="2348.7"/>
</svg>
