<?xml version="1.0" encoding="UTF-8"?>
<svg width="56px" height="42px" viewBox="0 0 56 42" version="1.1" xmlns="http://www.w3.org/2000/svg" xmlns:xlink="http://www.w3.org/1999/xlink">
    <!-- Generator: Sketch 52 (66869) - http://www.bohemiancoding.com/sketch -->
    <title>点击添加问题</title>
    <desc>Created with Sketch.</desc>
    <g id="点击添加问题" stroke="none" stroke-width="1" fill="none" fill-rule="evenodd">
        <path d="M17.7389681,45 C14.9714497,30.2265455 20.4618532,11.644237 26.1776783,13.4970826 C31.8935033,15.3499283 31.0540887,24.0489023 26.2007217,23.144607 C21.3473546,22.2403118 12.6770341,13.0476874 34,-3" id="路径-3" stroke="#3296FA" stroke-width="0.8" stroke-linecap="round" transform="translate(25.500000, 21.000000) scale(-1, -1) rotate(55.000000) translate(-25.500000, -21.000000) "></path>
        <path d="M50.4341216,9.75971275 L53.5725317,15.2519305 C53.7095367,15.4916893 53.6262384,15.7971166 53.3864796,15.9341216 C53.3109308,15.9772923 53.2254236,16 53.1384102,16 L46.8615898,16 C46.5854475,16 46.3615898,15.7761424 46.3615898,15.5 C46.3615898,15.4129865 46.3842975,15.3274794 46.4274683,15.2519305 L49.5658784,9.75971275 C49.7028834,9.51995403 50.0083107,9.43665566 50.2480695,9.57366065 C50.3255851,9.6179553 50.3898269,9.68219711 50.4341216,9.75971275 Z" id="三角形" fill="#3296FA" transform="translate(50.000000, 12.500000) rotate(-667.000000) translate(-50.000000, -12.500000) "></path>
    </g>
</svg>