<?xml version="1.0" encoding="UTF-8"?>
<svg width="14px" height="14px" viewBox="0 0 14 14" version="1.1" xmlns="http://www.w3.org/2000/svg" xmlns:xlink="http://www.w3.org/1999/xlink">
    <!-- Generator: Sketch 52 (66869) - http://www.bohemiancoding.com/sketch -->
    <title>发送实验组</title>
    <desc>Created with Sketch.</desc>
    <g id="发送实验组" stroke="none" stroke-width="1" fill="none" fill-rule="evenodd">
        <path d="M3.50210155,7.3741201 C2.59417472,6.74180541 2,5.69029118 2,4.5 C2,2.56700338 3.56700338,1 5.5,1 C7.43299662,1 9,2.56700338 9,4.5 C9,5.69029118 8.40582528,6.74180541 7.49789845,7.3741201 C9.54768584,8.17364664 11,10.1672202 11,12.5 L10,12.5 C10,10.0147186 7.98528137,8 5.5,8 C3.01471863,8 1,10.0147186 1,12.5 L0,12.5 C0,10.1672202 1.45231416,8.17364664 3.50210155,7.3741201 Z M5.5,7 C6.88071187,7 8,5.88071187 8,4.5 C8,3.11928813 6.88071187,2 5.5,2 C4.11928813,2 3,3.11928813 3,4.5 C3,5.88071187 4.11928813,7 5.5,7 Z M9,1 C10.6961471,1.24261483 12,2.70131962 12,4.46455557 C12,5.65484675 11.4058253,6.70636098 10.4978985,7.33867567 C12.5476858,8.13820221 14,10.1317758 14,12.4645556 L13,12.4645556 C13,10.1482787 11.2499752,8.2407421 9,7.99201996 L9,6.91454651 C10.1411202,6.68291135 11,5.67403453 11,4.46455557 C11,3.25507662 10.1411202,2.2461998 9,2.01456463 L9,1 Z" id="合并形状" fill="#181818" fill-rule="nonzero"></path>
    </g>
</svg>