<?xml version="1.0" encoding="UTF-8"?>
<svg width="16px" height="16px" viewBox="0 0 16 16" version="1.1" xmlns="http://www.w3.org/2000/svg" xmlns:xlink="http://www.w3.org/1999/xlink">
    <!-- Generator: Sketch 52 (66869) - http://www.bohemiancoding.com/sketch -->
    <title>全部模板</title>
    <desc>Created with Sketch.</desc>
    <g id="全部模板" stroke="none" stroke-width="1" fill="none" fill-rule="evenodd">
        <path d="M4,1 C2.8954305,1 2,1.8954305 2,3 L2,13 C2,14.1045695 2.8954305,15 4,15 L12,15 C13.1045695,15 14,14.1045695 14,13 L14,3 C14,1.8954305 13.1045695,1 12,1 L4,1 Z M4,0 L12,0 C13.6568542,-3.04359188e-16 15,1.34314575 15,3 L15,13 C15,14.6568542 13.6568542,16 12,16 L4,16 C2.34314575,16 1,14.6568542 1,13 L1,3 C1,1.34314575 2.34314575,3.04359188e-16 4,0 Z M5.5,4 L10.5,4 C10.7761424,4 11,4.22385763 11,4.5 C11,4.77614237 10.7761424,5 10.5,5 L5.5,5 C5.22385763,5 5,4.77614237 5,4.5 C5,4.22385763 5.22385763,4 5.5,4 Z M5.5,7 L10.5,7 C10.7761424,7 11,7.22385763 11,7.5 C11,7.77614237 10.7761424,8 10.5,8 L5.5,8 C5.22385763,8 5,7.77614237 5,7.5 C5,7.22385763 5.22385763,7 5.5,7 Z" id="合并形状" fill="#999999" fill-rule="nonzero"></path>
    </g>
</svg>