<?xml version="1.0" encoding="UTF-8"?>
<svg width="24px" height="24px" viewBox="0 0 24 24" version="1.1" xmlns="http://www.w3.org/2000/svg" xmlns:xlink="http://www.w3.org/1999/xlink">
    <!-- Generator: Sketch 52 (66869) - http://www.bohemiancoding.com/sketch -->
    <title>切片</title>
    <desc>Created with Sketch.</desc>
    <g id="医生" stroke="none" stroke-width="1" fill="none" fill-rule="evenodd">
        <g id="首页_新版" transform="translate(-1326.000000, -467.000000)" fill="#3296FA" fill-rule="nonzero">
            <g id="分组-8" transform="translate(1296.000000, 144.000000)">
                <g id="消息-copy-11" transform="translate(30.000000, 323.000000)">
                    <path d="M12,20.5 C16.6944204,20.5 20.5,16.6944204 20.5,12 C20.5,7.30557963 16.6944204,3.5 12,3.5 C7.30557963,3.5 3.5,7.30557963 3.5,12 C3.5,16.6944204 7.30557963,20.5 12,20.5 Z M12,22 C6.4771525,22 2,17.5228475 2,12 C2,6.4771525 6.4771525,2 12,2 C17.5228475,2 22,6.4771525 22,12 C22,17.5228475 17.5228475,22 12,22 Z M13.4696699,8.53033009 C13.1767767,8.23743687 13.1767767,7.76256313 13.4696699,7.46966991 C13.7625631,7.1767767 14.2374369,7.1767767 14.5303301,7.46966991 L16.3596194,9.29895924 C16.5190253,9.45836516 16.6085786,9.67456598 16.6085786,9.9 C16.6085786,10.369442 16.2280207,10.75 15.7585786,10.75 L8,10.75 C7.58578644,10.75 7.25,10.4142136 7.25,10 C7.25,9.58578644 7.58578644,9.25 8,9.25 L14.1893398,9.25 L13.4696699,8.53033009 Z M10.5303301,15.4696699 C10.8232233,15.7625631 10.8232233,16.2374369 10.5303301,16.5303301 C10.2374369,16.8232233 9.76256313,16.8232233 9.46966991,16.5303301 L7.64038059,14.7010408 C7.48097467,14.5416348 7.39142136,14.325434 7.39142136,14.1 C7.39142136,13.630558 7.77197932,13.25 8.24142136,13.25 L16,13.25 C16.4142136,13.25 16.75,13.5857864 16.75,14 C16.75,14.4142136 16.4142136,14.75 16,14.75 L9.81066017,14.75 L10.5303301,15.4696699 Z" id="合并形状"></path>
                </g>
            </g>
        </g>
    </g>
</svg>