<?xml version="1.0" standalone="no"?><!DOCTYPE svg PUBLIC "-//W3C//DTD SVG 1.1//EN" "http://www.w3.org/Graphics/SVG/1.1/DTD/svg11.dtd"><svg t="1619431435348" class="icon" viewBox="0 0 1024 1024" version="1.1" xmlns="http://www.w3.org/2000/svg" p-id="1152" xmlns:xlink="http://www.w3.org/1999/xlink" width="200" height="200"><defs><style type="text/css"></style></defs><path d="M730.00000658 837.8883953H293.38242983a24.70255041 24.70255041 0 0 1-24.70255042-24.7025504V328.15126923a24.70255041 24.70255041 0 0 1 24.70255041-24.70255042h436.61757676a24.70255041 24.70255041 0 0 1 24.7025504 24.70255042v485.15808864a24.70255041 24.70255041 0 0 1-24.70255042 24.57903745z m-2e-8-509.73712607H293.38242983v485.15808864h436.4940644z" fill="#333333" p-id="1153"></path><path d="M662.68555686 328.15126923H360.69687891a17.16827231 17.16827231 0 0 1-17.16827231-17.16827231V203.279877A17.16827231 17.16827231 0 0 1 360.69687891 186.1116047H662.68555686a17.16827231 17.16827231 0 0 1 17.16827295 17.1682723v107.70311992a17.16827231 17.16827231 0 0 1-17.16827295 17.16827231z m-294.45439986-24.70255042h286.92012239V210.81415509H368.231157z" fill="#333333" p-id="1154"></path><path d="M820.78187949 328.15126923H203.21812051a12.35127521 12.35127521 0 0 1 0-24.70255042h617.56375896a12.35127521 12.35127521 0 0 1 2e-8 24.70255042zM420.23002521 683.00340494a12.35127521 12.35127521 0 0 1-12.35127456-12.35127521V463.76827052a12.35127521 12.35127521 0 1 1 24.70254974 0v206.88385921a12.35127521 12.35127521 0 0 1-12.3512752 12.35127521zM592.65382679 683.00340494a12.35127521 12.35127521 0 0 1-12.3512752-12.35127521V463.76827052a12.35127521 12.35127521 0 0 1 24.70255043 0v206.88385921a12.35127521 12.35127521 0 0 1-12.35127523 12.35127521z" fill="#333333" p-id="1155"></path></svg>