<?xml version="1.0" encoding="utf-8"?>
<!-- Generator: Adobe Illustrator 22.0.0, SVG Export Plug-In . SVG Version: 6.00 Build 0)  -->
<svg version="1.1" id="图层_1" xmlns="http://www.w3.org/2000/svg" xmlns:xlink="http://www.w3.org/1999/xlink" x="0px" y="0px"
	 viewBox="0 0 1024 1024" style="enable-background:new 0 0 1024 1024;" xml:space="preserve">
<style type="text/css">
	.st0{fill:#369BF4;}
	.st1{fill:#43C3FE;}
	.st2{fill:#FFE8E1;}
	.st3{fill:#2042ED;}
</style>
<g>
	<g>
		<g>
			<path class="st0" d="M638.4,850.3v39.3c0,3.4-2.7,6.1-6.1,6.1H348.9c-3.4,0-6.1-2.7-6.1-6.1v-39.3"/>
			<path class="st1" d="M652.1,850.3h-323c-3.4,0-6.1-2.7-6.1-6.1v-97.1c0-3.4,2.7-6.1,6.1-6.1h323c3.4,0,6.1,2.7,6.1,6.1v97.1
				C658.2,847.6,655.4,850.3,652.1,850.3z"/>
			<g>
				<path class="st2" d="M294.6,436.8v112.8c0,7.6,0.5,15.2,1.5,22.5l0,0c3.9,29,15.3,55.6,32.1,78c20,26.7,32.9,57.9,36.5,90.8
					h248.7c3.6-32.9,16.5-64.1,36.5-90.8c16.8-22.4,28.2-49,32.1-78c1-7.4,1.5-14.9,1.5-22.5V436.8"/>
				<path class="st2" d="M450.2,459.2V353.5V206.8c0-10.7-4.4-20.4-11.4-27.5s-16.8-11.4-27.5-11.4c-21.4,0-38.9,17.5-38.9,38.9
					v198.9v101.5"/>
				<path class="st2" d="M528,459.2v-78.3v-27.4c0-10.7-4.4-20.4-11.4-27.5c-7-7-16.8-11.4-27.5-11.4c-21.4,0-38.9,17.5-38.9,38.9
					v105.8"/>
				<path class="st2" d="M605.8,476.7v-71v-24.8c0-10.7-4.4-20.4-11.4-27.5c-7-7-16.8-11.4-27.5-11.4c-21.4,0-38.9,17.5-38.9,38.9
					v78.3"/>
				<path class="st2" d="M682,572.2c1-3.4,1.5-7,1.5-10.8v-11.8V436.8v-31.1c0-10.7-4.4-20.4-11.4-27.5c-7-7-16.8-11.4-27.5-11.4
					c-21.4,0-38.9,17.5-38.9,38.9v71"/>
				<path class="st2" d="M372.4,507.2V405.7c0-10.7-4.4-20.4-11.4-27.5c-7-7-16.8-11.4-27.5-11.4c-21.4,0-38.9,17.5-38.9,38.9v31.1
					v112.8v11.8c0,3.7,0.5,7.4,1.5,10.8l0,0"/>
			</g>
		</g>
	</g>
	<g>
		<path class="st3" d="M682.7,367.6c-10-10-23.9-15.8-38.1-15.8c-10.3,0-19.9,2.9-28.1,8c-2.7-6.2-6.5-11.9-11.4-16.9
			c0,0,0-0.1-0.1-0.1c-10-10-23.9-15.8-38.1-15.8c-10,0-19.4,2.7-27.4,7.5c-2.7-7-6.8-13.5-12.2-19c0,0,0,0-0.1-0.1
			c-10-10-23.9-15.8-38.1-15.8c-8.6,0-16.7,2-23.9,5.6v-98.4c0-14.2-5.6-27.8-15.7-38c-10.1-10.2-23.6-15.9-38.2-15.9
			c-29.7,0-53.9,24.2-53.9,53.9v150.6c-7.4-3.7-15.6-5.6-23.9-5.6c-29.7,0-53.9,24.2-53.9,53.9v31.1v112.8v11.8
			c0,4.9,0.6,9.6,1.8,14c4.3,30.1,16.3,59,34.8,83.7c15.2,20.3,25.8,43.2,30.9,66.9h-18c-11.6,0-21.1,9.5-21.1,21.1v97.1
			c0,11.2,8.8,20.4,19.8,21v24.4c0,11.6,9.5,21.1,21.1,21.1h283.4c11.6,0,21.1-9.5,21.1-21.1v-24.4c11-0.7,19.8-9.8,19.8-21v-97.1
			c0-11.6-9.5-21.1-21.1-21.1H631c5.2-23.7,15.7-46.5,30.9-66.8c18.5-24.7,30.5-53.7,34.8-83.9c1.2-4.4,1.8-9.1,1.8-13.9v-11.7
			V436.8v-31.1C698.5,391.5,692.9,378,682.7,367.6C682.8,367.6,682.7,367.6,682.7,367.6z M357.8,880.7v-15.4h265.6v15.4H357.8z
			 M643.2,835.3H338V756h275.4l0,0l0,0h29.8V835.3z M637.9,641.2c-19.1,25.6-32,54.6-37.5,84.8H377.7c-5.5-30.2-18.3-59.3-37.5-84.9
			c-15.7-20.9-25.8-45.5-29.2-71c-0.9-6.6-1.4-13.5-1.4-20.5V436.8v-31.1c0-13.2,10.7-23.9,23.9-23.9c6.3,0,12.4,2.5,16.9,7
			c4.5,4.6,7,10.6,7,16.9v101.5c0,1,0.1,2,0.3,3c1.4,6.8,7.4,12,14.7,12c7.3,0,13.3-5.1,14.7-12c0.2-1,0.3-2,0.3-3V405.7V206.8
			c0-13.2,10.7-23.9,23.9-23.9c6.4,0,12.4,2.5,16.8,6.9c4.6,4.6,7.1,10.7,7.1,17v146.7v105.7v0.1c0,8.3,6.7,15,15,15s15-6.7,15-15
			v-0.1V353.5c0-13.2,10.7-23.9,23.9-23.9c6.3,0,12.4,2.5,16.9,7c4.5,4.6,7,10.6,7,16.9v27.4v78.3c0,8.3,6.7,15,15,15s15-6.7,15-15
			v-78.3c0-13.2,10.7-23.9,23.9-23.9c6.3,0,12.4,2.5,16.9,7c4.5,4.6,7,10.6,7,16.9v21.6c-0.1,1-0.1,2.1-0.1,3.2v71
			c0,8.3,6.7,15,15,15l0,0l0,0c8.3,0,15-6.7,15-15v-73.1c1.1-12.2,11.3-21.8,23.8-21.8c6.3,0,12.4,2.5,16.9,7c4.5,4.6,7,10.6,7,16.9
			v31.1v112.9c0,6.9-0.5,13.8-1.4,20.5C663.7,595.7,653.6,620.3,637.9,641.2z"/>
		<path class="st3" d="M602.1,776.8c-11.1,0-20.1,9-20.1,20.1s9,20.1,20.1,20.1s20.1-9,20.1-20.1S613.2,776.8,602.1,776.8z
			 M602.1,797.1L602.1,797.1l-0.2-0.1v-0.1c0.1-0.1,0.1-0.1,0.2-0.1c0.1,0,0.1,0.1,0,0V797.1L602.1,797.1z"/>
		<path class="st3" d="M741,178.4c0.1-0.1,0.1-0.2,0.2-0.3c0.2-0.3,0.5-0.6,0.7-0.9c0.1-0.1,0.1-0.2,0.2-0.3c0.2-0.3,0.4-0.7,0.6-1
			c0-0.1,0.1-0.1,0.1-0.2c0.2-0.4,0.4-0.7,0.5-1.1v-0.1c0.2-0.4,0.3-0.8,0.4-1.2v-0.1c0.1-0.4,0.2-0.8,0.3-1.3c0-0.1,0-0.3,0.1-0.4
			c0.1-0.4,0.1-0.7,0.2-1.1c0-0.5,0.1-1,0.1-1.5s0-1-0.1-1.5c0-0.4-0.1-0.7-0.2-1.1c0-0.1,0-0.3-0.1-0.4c-0.1-0.4-0.2-0.8-0.3-1.3
			c0-0.1,0-0.1,0-0.2c-0.1-0.4-0.3-0.8-0.4-1.2c0,0,0-0.1-0.1-0.1c-0.2-0.4-0.3-0.8-0.5-1.1c0-0.1-0.1-0.1-0.1-0.2
			c-0.2-0.3-0.4-0.7-0.6-1c-0.1-0.1-0.1-0.2-0.2-0.3c-0.2-0.3-0.4-0.6-0.7-0.9c-0.1-0.1-0.1-0.2-0.2-0.3c-0.3-0.4-0.6-0.7-1-1.1
			l-40.4-40.4c-5.9-5.9-15.4-5.9-21.2,0c-5.9,5.9-5.9,15.4,0,21.2l14.8,14.8H557.7l14.8-14.8c5.9-5.9,5.9-15.4,0-21.2
			c-5.9-5.9-15.4-5.9-21.2,0l-40.4,40.4c-0.3,0.3-0.7,0.7-1,1.1c-0.1,0.1-0.1,0.2-0.2,0.3c-0.2,0.3-0.5,0.6-0.7,0.9
			c-0.1,0.1-0.1,0.2-0.2,0.3c-0.2,0.3-0.4,0.7-0.6,1c0,0.1-0.1,0.1-0.1,0.2c-0.2,0.4-0.4,0.8-0.5,1.1v0.1c-0.2,0.4-0.3,0.8-0.5,1.3
			v0.1c-0.1,0.4-0.2,0.8-0.3,1.3c0,0.1,0,0.2-0.1,0.4c-0.1,0.4-0.1,0.7-0.2,1.1c0,0.5-0.1,1-0.1,1.5s0,1,0.1,1.5
			c0,0.4,0.1,0.7,0.2,1.1c0,0.1,0,0.2,0.1,0.4c0.1,0.4,0.2,0.9,0.3,1.3v0.1c0.1,0.4,0.3,0.9,0.5,1.3v0.1c0.2,0.4,0.3,0.8,0.5,1.2
			c0,0.1,0.1,0.1,0.1,0.2c0.2,0.3,0.4,0.7,0.6,1c0.1,0.1,0.1,0.2,0.1,0.2c0.2,0.3,0.4,0.6,0.7,0.9c0.1,0.1,0.1,0.2,0.2,0.3
			c0.3,0.4,0.6,0.7,1,1.1l40.4,40.4c2.9,2.9,6.8,4.4,10.6,4.4s7.7-1.5,10.6-4.4c5.9-5.9,5.9-15.4,0-21.2L557.6,184h135.5l-14.8,14.8
			c-5.9,5.9-5.9,15.4,0,21.2c2.9,2.9,6.8,4.4,10.6,4.4s7.7-1.5,10.6-4.4l40.4-40.4C740.4,179.2,740.7,178.8,741,178.4z"/>
	</g>
</g>
</svg>
