<?xml version="1.0" encoding="utf-8"?>
<!-- Generator: Adobe Illustrator 22.0.0, SVG Export Plug-In . SVG Version: 6.00 Build 0)  -->
<svg version="1.1" id="图层_1" xmlns="http://www.w3.org/2000/svg" xmlns:xlink="http://www.w3.org/1999/xlink" x="0px" y="0px"
	 viewBox="0 0 1024 1024" style="enable-background:new 0 0 1024 1024;" xml:space="preserve">
<style type="text/css">
	.st0{fill:#369BF4;}
	.st1{fill:#43C3FE;}
	.st2{fill:#FFE8E1;}
	.st3{fill:#2042ED;}
</style>
<g>
	<g>
		<g>
			<path class="st0" d="M689.6,882v39.3c0,3.4-2.7,6.1-6.1,6.1H400.1c-3.4,0-6.1-2.7-6.1-6.1V882"/>
			<path class="st1" d="M703.3,882h-323c-3.4,0-6.1-2.7-6.1-6.1v-97.1c0-3.4,2.7-6.1,6.1-6.1h323c3.4,0,6.1,2.7,6.1,6.1v97.1
				C709.4,879.3,706.6,882,703.3,882z"/>
			<g>
				<path class="st2" d="M345.8,468.5v112.8c0,7.6,0.5,15.2,1.5,22.5l0,0c3.9,29,15.3,55.6,32.1,78c20,26.7,32.9,57.9,36.5,90.8
					h248.7c3.6-32.9,16.5-64.1,36.5-90.8c16.8-22.4,28.2-49,32.1-78c1-7.4,1.5-14.9,1.5-22.5V468.5"/>
				<path class="st2" d="M501.4,490.9V385.2V238.5c0-10.7-4.4-20.4-11.4-27.5s-16.8-11.4-27.5-11.4c-21.4,0-38.9,17.5-38.9,38.9
					v198.9v101.5"/>
				<path class="st2" d="M579.2,490.9v-78.3v-27.4c0-10.7-4.4-20.4-11.4-27.5c-7-7-16.8-11.4-27.5-11.4c-21.4,0-38.9,17.5-38.9,38.9
					V491"/>
				<path class="st2" d="M657,508.4v-71v-24.8c0-10.7-4.4-20.4-11.4-27.5c-7-7-16.8-11.4-27.5-11.4c-21.4,0-38.9,17.5-38.9,38.9
					v78.3"/>
				<path class="st2" d="M733.2,603.9c1-3.4,1.5-7,1.5-10.8v-11.8V468.5v-31.1c0-10.7-4.4-20.4-11.4-27.5c-7-7-16.8-11.4-27.5-11.4
					c-21.4,0-38.9,17.5-38.9,38.9v71"/>
				<path class="st2" d="M423.6,538.9V437.4c0-10.7-4.4-20.4-11.4-27.5c-7-7-16.8-11.4-27.5-11.4c-21.4,0-38.9,17.5-38.9,38.9v31.1
					v112.8v11.8c0,3.7,0.5,7.4,1.5,10.8l0,0"/>
			</g>
		</g>
	</g>
	<g>
		<path class="st3" d="M734,399.4C734,399.3,733.9,399.3,734,399.4c-10.1-10.1-24-15.9-38.2-15.9c-10.3,0-19.9,2.9-28.1,8
			c-2.7-6.2-6.5-11.9-11.4-16.9c0,0,0-0.1-0.1-0.1c-10-10-23.9-15.8-38.1-15.8c-10,0-19.3,2.7-27.4,7.5c-2.7-7-6.8-13.5-12.2-19
			c0,0,0-0.1-0.1-0.1c-10-10-23.9-15.8-38.1-15.8c-8.6,0-16.7,2-23.9,5.6v-98.4c0-14.2-5.6-27.8-15.7-38s-23.6-15.9-38.2-15.9
			c-29.7,0-53.9,24.2-53.9,53.9v150.6c-7.4-3.7-15.6-5.6-23.9-5.6c-29.7,0-53.9,24.2-53.9,53.9v31.1v112.8v11.8
			c0,4.9,0.6,9.6,1.8,14c4.3,30.1,16.3,59,34.8,83.7c15.2,20.3,25.8,43.2,30.9,66.9h-18c-11.6,0-21.1,9.5-21.1,21.1v97.1
			c0,11.2,8.8,20.4,19.8,21v24.4c0,11.6,9.5,21.1,21.1,21.1h283.4c11.6,0,21.1-9.5,21.1-21.1v-24.4c11-0.7,19.8-9.8,19.8-21v-97.1
			c0-11.6-9.5-21.1-21.1-21.1h-21.1c5.2-23.7,15.7-46.5,30.9-66.8c18.5-24.7,30.5-53.7,34.8-83.9c1.2-4.4,1.8-9.1,1.8-13.9v-11.7
			V468.5v-31.1C749.7,423.2,744.1,409.6,734,399.4z M409,912.4V897h265.6v15.4H409z M694.4,867H389.2v-79.3h275.4l0,0l0,0h29.8V867z
			 M689.1,672.9c-19.1,25.6-32,54.6-37.5,84.8H428.9c-5.5-30.2-18.3-59.3-37.5-84.9c-15.7-20.9-25.8-45.5-29.2-71
			c-0.9-6.6-1.4-13.5-1.4-20.5V468.5v-31.1c0-13.2,10.7-23.9,23.9-23.9c6.3,0,12.4,2.5,16.9,7c4.5,4.6,7,10.6,7,16.9v101.5
			c0,8.3,6.7,15,15,15s15-6.7,15-15V437.4V238.5c0-13.2,10.7-23.9,23.9-23.9c6.4,0,12.4,2.5,16.8,6.9c4.6,4.6,7.1,10.7,7.1,17v146.7
			v105.7v0.1c0,8.3,6.7,15,15,15s15-6.7,15-15v-0.1V385.2c0-13.2,10.7-23.9,23.9-23.9c6.3,0,12.4,2.5,16.9,7c4.5,4.6,7,10.6,7,16.9
			v27.4v78.3c0,8.3,6.7,15,15,15s15-6.7,15-15v-78.3c0-13.2,10.7-23.9,23.9-23.9c6.3,0,12.4,2.5,16.9,7c4.5,4.6,7,10.6,7,16.9v21.6
			c-0.1,1-0.1,2.1-0.1,3.2v71c0,8.3,6.7,15,15,15c0,0,0,0,0.1,0c0,0,0,0,0.1,0c8.3,0,15-6.7,15-15v-73.1
			c1.1-12.2,11.3-21.8,23.8-21.8c6.3,0,12.4,2.5,16.9,7c4.5,4.6,7,10.6,7,16.9v31.1v112.9c0,6.9-0.5,13.8-1.4,20.5
			C714.9,627.4,704.8,652,689.1,672.9z"/>
		<path class="st3" d="M653.3,808.5c-11.1,0-20.1,9-20.1,20.1s9,20.1,20.1,20.1s20.1-9,20.1-20.1S664.4,808.5,653.3,808.5z
			 M653.3,828.8L653.3,828.8l-0.2-0.1v-0.1c0.1-0.1,0.1-0.1,0.2-0.1s0.1,0.1,0,0V828.8L653.3,828.8z"/>
		<path class="st3" d="M321,317.1c0.2,0.1,0.4,0.3,0.7,0.4c0.2,0.1,0.4,0.2,0.6,0.4c0.2,0.1,0.5,0.2,0.7,0.3
			c0.2,0.1,0.4,0.2,0.6,0.3c0.2,0.1,0.4,0.2,0.7,0.2c0.2,0.1,0.5,0.2,0.7,0.2c0.2,0.1,0.5,0.1,0.7,0.2s0.5,0.1,0.7,0.2
			c0.3,0.1,0.5,0.1,0.8,0.1c0.2,0,0.4,0.1,0.7,0.1c0.5,0,1,0.1,1.5,0.1s1,0,1.5-0.1c0.2,0,0.4-0.1,0.7-0.1c0.3,0,0.5-0.1,0.8-0.1
			s0.5-0.1,0.7-0.2s0.5-0.1,0.7-0.2s0.5-0.2,0.7-0.2c0.2-0.1,0.5-0.2,0.7-0.2c0.2-0.1,0.4-0.2,0.6-0.3c0.2-0.1,0.5-0.2,0.7-0.3
			c0.2-0.1,0.4-0.2,0.6-0.4c0.2-0.1,0.4-0.3,0.7-0.4c0.2-0.1,0.4-0.3,0.7-0.5c0.2-0.1,0.4-0.3,0.5-0.4c0.4-0.3,0.8-0.6,1.1-1
			l40.4-40.4c5.9-5.9,5.9-15.4,0-21.2c-5.9-5.9-15.4-5.9-21.2,0l-14.8,14.8V132.9l14.8,14.8c2.9,2.9,6.8,4.4,10.6,4.4
			s7.7-1.5,10.6-4.4c5.9-5.9,5.9-15.4,0-21.2l-40.4-40.4c-0.4-0.4-0.7-0.7-1.1-1c-0.2-0.1-0.4-0.3-0.5-0.4c-0.2-0.2-0.4-0.3-0.6-0.5
			c-0.2-0.1-0.4-0.3-0.7-0.4c-0.2-0.1-0.4-0.2-0.6-0.4c-0.2-0.1-0.5-0.2-0.7-0.3c-0.2-0.1-0.4-0.2-0.6-0.3c-0.2-0.1-0.5-0.2-0.7-0.3
			c-0.2-0.1-0.5-0.2-0.7-0.2c-0.2-0.1-0.5-0.1-0.7-0.2s-0.5-0.1-0.7-0.2c-0.3-0.1-0.5-0.1-0.8-0.1c-0.2,0-0.4-0.1-0.6-0.1
			c-1-0.1-2-0.1-3,0c-0.2,0-0.4,0.1-0.6,0.1c-0.3,0-0.6,0.1-0.8,0.1c-0.2,0-0.5,0.1-0.7,0.2s-0.5,0.1-0.7,0.2s-0.5,0.2-0.7,0.2
			c-0.2,0.1-0.5,0.2-0.7,0.3c-0.2,0.1-0.4,0.2-0.6,0.3c-0.2,0.1-0.5,0.2-0.7,0.3c-0.2,0.1-0.4,0.2-0.6,0.4c-0.2,0.1-0.4,0.3-0.7,0.4
			c-0.2,0.1-0.4,0.3-0.6,0.5c-0.2,0.1-0.4,0.3-0.5,0.4c-0.4,0.3-0.8,0.6-1.1,1l-40.4,40.4c-5.9,5.9-5.9,15.4,0,21.2
			c5.9,5.9,15.4,5.9,21.2,0l14.8-14.8v135.5l-14.8-14.8c-5.9-5.9-15.4-5.9-21.2,0c-5.9,5.9-5.9,15.4,0,21.2l40.4,40.4
			c0.4,0.4,0.7,0.7,1.1,1c0.2,0.1,0.4,0.3,0.5,0.4C320.5,316.8,320.7,316.9,321,317.1z"/>
	</g>
</g>
</svg>
