<?xml version="1.0" encoding="UTF-8"?>
<svg width="34px" height="34px" viewBox="0 0 34 34" version="1.1" xmlns="http://www.w3.org/2000/svg" xmlns:xlink="http://www.w3.org/1999/xlink">
    <!-- Generator: Sketch 52 (66869) - http://www.bohemiancoding.com/sketch -->
    <title>切片</title>
    <desc>Created with Sketch.</desc>
    <g id="医生" stroke="none" stroke-width="1" fill="none" fill-rule="evenodd">
        <g id="首页_新版" transform="translate(-36.000000, -12.000000)">
            <g id="logo" transform="translate(36.000000, 12.000000)">
                <g id="分组-2">
                    <rect id="矩形" fill="#3296FA" x="0" y="0" width="34" height="34" rx="4"></rect>
                    <g id="Group-Copy-17" transform="translate(5.666667, 7.555556)" fill="#FFFFFF">
                        <path d="M9.4553618,15.0467533 L3.25568633,8.5025557 C1.93063393,7.1037157 1.93063393,4.83591381 3.25568633,3.43707381 C4.58073874,2.03823381 6.72902915,2.03823381 8.05396846,3.43707381 L11.0520748,6.60201498 L13.6408807,9.33116185 C13.8464923,9.55478999 14.1337604,9.69436356 14.4523565,9.69436356 C15.076995,9.69436356 15.5833333,9.15982902 15.5833333,8.50040658 C15.5833333,8.16239736 15.4496519,7.85781893 15.2357842,7.64051876 L13.4943061,5.80683963 L9.65339583,1.74857985 C7.44505056,-0.58285995 3.86460424,-0.58285995 1.65625896,1.74857985 C-0.55208632,4.07990025 -0.55208632,7.85972926 1.65625896,10.1910497 L8.02727741,16.9169675 L10.4381806,19.467379 C10.6431136,19.691843 10.9300424,19.8323717 11.2486386,19.8333269 C11.8732771,19.835476 12.3811988,19.3024936 12.3831214,18.6431905 C12.3841393,18.3050619 12.2513626,18.0000059 12.0381735,17.7821088 L9.4553618,15.0467533 Z" id="Fill-1"></path>
                        <path d="M8.37038218,7.08936147 C7.59125867,7.16089917 7.01782376,7.85049431 7.08936147,8.62961782 C7.16089917,9.40874133 7.85049431,9.98217624 8.62961782,9.91063853 C9.40874133,9.83910083 9.98217624,9.14950569 9.91063853,8.37038218 C9.83910083,7.59125867 9.14950569,7.01782376 8.37038218,7.08936147" id="Fill-3"></path>
                        <path d="M20.8791234,1.65671511 C18.8259114,-0.246209219 15.6738933,-0.509797215 13.3161354,0.865724864 C13.2729253,0.892196791 13.2251989,0.939371123 13.2251989,0.939371123 C13.0001158,1.15759483 12.8598661,1.44301651 12.8612088,1.76328158 C12.8637721,2.38808695 13.4123206,2.89263736 14.0864714,2.89026168 C14.326202,2.88935665 14.549088,2.82430811 14.7370642,2.71287714 L14.7376745,2.7135559 C16.1373643,1.96645928 17.9562166,2.14746392 19.1529166,3.2565698 C20.583,4.58197622 20.583,6.73084059 19.1529166,8.05624701 L14.8460659,12.0478517 L13.1247415,13.6372986 L13.1247415,13.6372986 C12.8951421,13.8421732 12.7512305,14.1290656 12.7500099,14.4476337 C12.7473245,15.0724391 13.2917229,15.580949 13.9658737,15.5833246 C14.3114325,15.5845691 14.623424,15.4519832 14.8464321,15.2388502 L14.8477748,15.2400946 L14.8928158,15.1984636 L14.8958674,15.2012917 L16.5703198,13.6495164 L17.6449574,12.6571585 L17.6428823,12.6553485 L20.8791234,9.65610171 C23.2625144,7.4470533 23.2625144,3.86565039 20.8791234,1.65671511" id="Fill-5"></path>
                    </g>
                </g>
            </g>
        </g>
    </g>
</svg>