<?xml version="1.0" encoding="UTF-8"?>
<svg width="14px" height="14px" viewBox="0 0 14 14" version="1.1" xmlns="http://www.w3.org/2000/svg" xmlns:xlink="http://www.w3.org/1999/xlink">
    <!-- Generator: Sketch 52 (66869) - http://www.bohemiancoding.com/sketch -->
    <title>合并形状 copy</title>
    <desc>Created with Sketch.</desc>
    <g id="管理员" stroke="none" stroke-width="1" fill="none" fill-rule="evenodd">
        <g id="头向下拉_收费标准_首次" transform="translate(-452.000000, -523.000000)" fill="#666666">
            <path d="M459.088235,526 C459.825494,526 460.417645,526.211763 460.864706,526.635294 C461.288237,527.035296 461.5,527.576467 461.5,528.258824 C461.5,528.752944 461.350982,529.196076 461.052941,529.588235 C460.935294,529.737256 460.625493,530.039213 460.123529,530.494118 C459.856861,530.729413 459.660785,530.95294 459.535294,531.164706 C459.370587,531.44706 459.288235,531.749018 459.288235,532.070588 L459.288235,532.411765 L458.570588,532.411765 L458.570588,532.070588 C458.570588,531.725488 458.641176,531.411766 458.782353,531.129412 C458.954903,530.752939 459.315684,530.325493 459.864706,529.847059 C460.162747,529.549018 460.343137,529.360785 460.405882,529.282353 C460.656864,528.960783 460.782353,528.627453 460.782353,528.282353 C460.782353,527.788233 460.637256,527.388237 460.347059,527.082353 C460.049018,526.784312 459.61765,526.635294 459.052941,526.635294 C458.425487,526.635294 457.950982,526.847057 457.629412,527.270588 C457.347057,527.623531 457.205882,528.109801 457.205882,528.729412 L456.5,528.729412 C456.5,527.945094 456.715684,527.301963 457.147059,526.8 C457.609806,526.266664 458.256859,526 459.088235,526 Z M458.935294,533.388235 C459.107844,533.388235 459.249019,533.443137 459.358824,533.552941 C459.476471,533.654902 459.535294,533.796078 459.535294,533.976471 C459.535294,534.141177 459.476471,534.282352 459.358824,534.4 C459.233333,534.509804 459.092158,534.564706 458.935294,534.564706 C458.762744,534.564706 458.617648,534.505883 458.5,534.388235 C458.390196,534.278431 458.335294,534.141177 458.335294,533.976471 C458.335294,533.796078 458.390196,533.654902 458.5,533.552941 C458.609804,533.443137 458.754901,533.388235 458.935294,533.388235 Z M459,536.3 C462.479394,536.3 465.3,533.479394 465.3,530 C465.3,526.520606 462.479394,523.7 459,523.7 C455.520606,523.7 452.7,526.520606 452.7,530 C452.7,533.479394 455.520606,536.3 459,536.3 Z M459,537 C455.134007,537 452,533.865993 452,530 C452,526.134007 455.134007,523 459,523 C462.865993,523 466,526.134007 466,530 C466,533.865993 462.865993,537 459,537 Z" id="合并形状-copy"></path>
        </g>
    </g>
</svg>