<?xml version="1.0" encoding="UTF-8"?>
<svg width="40px" height="40px" viewBox="0 0 40 40" version="1.1" xmlns="http://www.w3.org/2000/svg" xmlns:xlink="http://www.w3.org/1999/xlink">
    <!-- Generator: Sketch 52 (66869) - http://www.bohemiancoding.com/sketch -->
    <title>切片</title>
    <desc>Created with Sketch.</desc>
    <g id="医生" stroke="none" stroke-width="1" fill="none" fill-rule="evenodd">
        <g id="扫码登录二维码刷新" transform="translate(-700.000000, -415.000000)">
            <g id="刷新" transform="translate(700.000000, 415.000000)">
                <g id="分组">
                    <circle id="椭圆形" fill="#FFFFFF" cx="20" cy="20" r="20"></circle>
                    <path d="M29.0439312,17.1912379 L24.9864361,17.1912379 C24.4688013,17.1912379 24.0501052,16.7718313 24.0501052,16.2548612 C24.0501052,15.7379368 24.4688243,15.3185303 24.9864361,15.3185303 L26.6152692,15.3185303 C25.1459711,13.2423761 22.7298454,11.8852406 19.9925644,11.8852406 C15.5107353,11.8852406 11.8774827,15.5184932 11.8774827,20.0002764 C11.8774827,24.4820826 15.5107353,28.1153352 19.9925644,28.1153352 C24.4743705,28.1153352 28.1076232,24.4820826 28.1076232,20.0002764 C28.1076232,19.4833521 28.5263193,19.0639455 29.0439312,19.0639455 C29.5609013,19.0639455 29.9803308,19.4833521 29.9803308,20.0002764 C29.9803308,25.5163438 25.5082192,29.9880429 19.9925644,29.9880429 C14.4768409,29.9880429 10.004775,25.5163437 10.004775,20.0002764 C10.004775,14.484232 14.4768408,10.0125329 19.9925644,10.0125329 C23.3401393,10.0125329 26.2969098,11.662978 28.1076232,14.1916329 L28.1076232,12.5094688 C28.1076232,11.9924986 28.5263193,11.573115 29.0439312,11.573115 C29.5609013,11.573115 29.9803308,11.9924986 29.9803308,12.5094688 L29.9803308,16.2548612 C29.9803308,16.7718313 29.5608784,17.1912379 29.0439312,17.1912379 Z" id="路径" fill="#218CE9"></path>
                </g>
            </g>
        </g>
    </g>
</svg>