<?xml version="1.0" encoding="UTF-8"?>
<svg width="23px" height="23px" viewBox="0 0 23 23" version="1.1" xmlns="http://www.w3.org/2000/svg" xmlns:xlink="http://www.w3.org/1999/xlink">
    <!-- Generator: Sketch 52 (66869) - http://www.bohemiancoding.com/sketch -->
    <title>视频语音</title>
    <desc>Created with Sketch.</desc>
    <g id="视频语音" stroke="none" stroke-width="1" fill="none" fill-rule="evenodd">
        <path d="M4,3.5 C3.17157288,3.5 2.5,4.17157288 2.5,5 L2.5,15 C2.5,15.8284271 3.17157288,16.5 4,16.5 L19,16.5 C19.8284271,16.5 20.5,15.8284271 20.5,15 L20.5,5 C20.5,4.17157288 19.8284271,3.5 19,3.5 L4,3.5 Z M4,2 L19,2 C20.6568542,2 22,3.34314575 22,5 L22,15 C22,16.6568542 20.6568542,18 19,18 L4,18 C2.34314575,18 1,16.6568542 1,15 L1,5 C1,3.34314575 2.34314575,2 4,2 Z M14.6333333,10.2333333 L9.96666667,13.7333333 C9.74575277,13.8990188 9.43235209,13.8542472 9.26666667,13.6333333 C9.2017556,13.5467852 9.16666667,13.4415184 9.16666667,13.3333333 L9.16666667,6.33333333 C9.16666667,6.05719096 9.39052429,5.83333333 9.66666667,5.83333333 C9.77485177,5.83333333 9.88011858,5.86842227 9.96666667,5.93333333 L14.6333333,9.43333333 C14.8542472,9.59901876 14.8990188,9.91241943 14.7333333,10.1333333 C14.7049062,10.1712362 14.6712362,10.2049062 14.6333333,10.2333333 Z M6.75,20 L16.25,20 C16.6642136,20 17,20.3357864 17,20.75 C17,21.1642136 16.6642136,21.5 16.25,21.5 L6.75,21.5 C6.33578644,21.5 6,21.1642136 6,20.75 C6,20.3357864 6.33578644,20 6.75,20 Z" id="合并形状" fill="#455B89" fill-rule="nonzero"></path>
    </g>
</svg>