<?xml version="1.0" encoding="UTF-8"?>
<svg width="23px" height="23px" viewBox="0 0 23 23" version="1.1" xmlns="http://www.w3.org/2000/svg" xmlns:xlink="http://www.w3.org/1999/xlink">
    <!-- Generator: Sketch 52 (66869) - http://www.bohemiancoding.com/sketch -->
    <title>患者/列表/审核问题_绿</title>
    <desc>Created with Sketch.</desc>
    <g id="患者/列表/审核问题_绿" stroke="none" stroke-width="1" fill="none" fill-rule="evenodd">
        <path d="M19.4418427,12.1554203 L20.9281324,13.4936815 L21.597263,12.7505366 L20.1109733,11.4122754 L19.4418427,12.1554203 Z M20.2590018,14.2368263 L18.7727121,12.8985651 L12.4407428,19.9309295 L12.4669619,21.3962867 L13.9270324,21.2691907 L20.2590018,14.2368263 Z M20.0369591,10 L23.0095384,12.6765224 L14.4064306,22.2312416 L11.4862897,22.4854336 L11.4338513,19.5547192 L20.0369591,10 Z M9.178,5 C10.0833379,5 10.8019973,5.24733086 11.334,5.742 C11.8566693,6.21800238 12.118,6.8759958 12.118,7.716 C12.118,8.34133646 11.9406684,8.887331 11.586,9.354 C11.4273325,9.5406676 11.0493363,9.89999734 10.452,10.432 C10.1533318,10.6840013 9.9340007,10.9406654 9.794,11.202 C9.61666578,11.5006682 9.528,11.8413314 9.528,12.224 L9.528,12.546 L8.408,12.546 L8.408,12.224 C8.408,11.757331 8.49199916,11.3513351 8.66,11.006 C8.85600098,10.5859979 9.3273296,10.04467 10.074,9.382 C10.3353346,9.12066536 10.4939997,8.95266704 10.55,8.878 C10.8300014,8.52333156 10.97,8.15466858 10.97,7.772 C10.97,7.22133058 10.8113349,6.78733492 10.494,6.47 C10.1766651,6.1433317 9.71933632,5.98 9.122,5.98 C8.4219965,5.98 7.90400168,6.20866438 7.568,6.666 C7.25999846,7.05800196 7.106,7.59466326 7.106,8.276 L6,8.276 C6,7.28666172 6.27533058,6.50266956 6.826,5.924 C7.3860028,5.30799692 8.16999496,5 9.178,5 Z M8.968,13.526 C9.22000126,13.526 9.42533254,13.6053325 9.584,13.764 C9.74266746,13.9226675 9.822,14.1186655 9.822,14.352 C9.822,14.5946679 9.73800084,14.7953325 9.57,14.954 C9.39266578,15.1126675 9.19200112,15.192 8.968,15.192 C8.74399888,15.192 8.54333422,15.1126675 8.366,14.954 C8.20733254,14.7953325 8.128,14.5946679 8.128,14.352 C8.128,14.1093321 8.20733254,13.9133341 8.366,13.764 C8.52466746,13.6053325 8.72533212,13.526 8.968,13.526 Z M18,9.61626399 L18,3 C18,2.44771525 17.5522847,2 17,2 L2,2 C1.44771525,2 1,2.44771525 1,3 L1,18 C1,18.5522847 1.44771525,19 2,19 L9.5546376,19 L18,9.61626399 Z M2,1 L17,1 C18.1045695,1 19,1.8954305 19,3 L19,10 L10,20 L2,20 C0.8954305,20 0,19.1045695 0,18 L0,3 C0,1.8954305 0.8954305,1 2,1 Z" id="合并形状" fill="#12B96D"></path>
    </g>
</svg>