<?xml version="1.0" encoding="UTF-8"?>
<svg width="23px" height="23px" viewBox="0 0 23 23" version="1.1" xmlns="http://www.w3.org/2000/svg" xmlns:xlink="http://www.w3.org/1999/xlink">
    <!-- Generator: Sketch 52 (66869) - http://www.bohemiancoding.com/sketch -->
    <title>患者/列表/用药情况_橙</title>
    <desc>Created with Sketch.</desc>
    <g id="患者/列表/用药情况_橙" stroke="none" stroke-width="1" fill="none" fill-rule="evenodd">
        <path d="M8,8 L8,6.5 C8,6.22385763 8.22385763,6 8.5,6 C8.77614237,6 9,6.22385763 9,6.5 L9,8 L10.5,8 C10.7761424,8 11,8.22385763 11,8.5 C11,8.77614237 10.7761424,9 10.5,9 L9,9 L9,10.5 C9,10.7761424 8.77614237,11 8.5,11 C8.22385763,11 8,10.7761424 8,10.5 L8,9 L6.5,9 C6.22385763,9 6,8.77614237 6,8.5 C6,8.22385763 6.22385763,8 6.5,8 L8,8 Z M14,2 L20,8 L20,19 C20,20.1045695 19.1045695,21 18,21 L5,21 C3.8954305,21 3,20.1045695 3,19 L3,4 C3,2.8954305 3.8954305,2 5,2 L14,2 Z M14,3 L5,3 C4.44771525,3 4,3.44771525 4,4 L4,19 C4,19.5522847 4.44771525,20 5,20 L18,20 C18.5522847,20 19,19.5522847 19,19 L19,8 L15,8 C14.4477153,8 14,7.55228475 14,7 L14,3 Z M15,4.41421356 L15,7 L17.5857864,7 L15,4.41421356 Z M7.5,13 L15.5,13 C15.7761424,13 16,13.2238576 16,13.5 C16,13.7761424 15.7761424,14 15.5,14 L7.5,14 C7.22385763,14 7,13.7761424 7,13.5 C7,13.2238576 7.22385763,13 7.5,13 Z M7.5,16 L15.5,16 C15.7761424,16 16,16.2238576 16,16.5 C16,16.7761424 15.7761424,17 15.5,17 L7.5,17 C7.22385763,17 7,16.7761424 7,16.5 C7,16.2238576 7.22385763,16 7.5,16 Z" id="合并形状" fill="#F56B01"></path>
    </g>
</svg>