<?xml version="1.0" encoding="UTF-8"?>
<svg width="23px" height="23px" viewBox="0 0 23 23" version="1.1" xmlns="http://www.w3.org/2000/svg" xmlns:xlink="http://www.w3.org/1999/xlink">
    <!-- Generator: Sketch 52 (66869) - http://www.bohemiancoding.com/sketch -->
    <title>患者/列表/消息_灰</title>
    <desc>Created with Sketch.</desc>
    <g id="患者/列表/消息_灰" stroke="none" stroke-width="1" fill="none" fill-rule="evenodd">
        <path d="M5.56990153,20.1468762 L8.40553585,18.5727127 L8.78877,18.6688506 C9.66074824,18.8875945 10.5709771,19 11.5,19 C16.77798,19 21,15.3811257 21,11 C21,6.61887429 16.77798,3 11.5,3 C6.22202001,3 2,6.61887429 2,11 C2,13.2817798 3.1452928,15.4198961 5.13494208,16.9349763 L5.5208129,17.2288096 L5.56990153,20.1468762 Z M6.05526431,21.0211891 C5.57239465,21.2892475 4.96364713,21.1151086 4.69558867,20.632239 C4.61592082,20.4887285 4.57280383,20.3278137 4.57004299,20.1636961 L4.5291122,17.7305705 C2.36409848,16.0819537 1,13.6775207 1,11 C1,6.02943725 5.70101013,2 11.5,2 C17.2989899,2 22,6.02943725 22,11 C22,15.9705627 17.2989899,20 11.5,20 C10.47414,20 9.48264107,19.8738998 8.54544999,19.6387967 L6.05526431,21.0211891 Z M7,12 C6.44771525,12 6,11.5522847 6,11 C6,10.4477153 6.44771525,10 7,10 C7.55228475,10 8,10.4477153 8,11 C8,11.5522847 7.55228475,12 7,12 Z M12,12 C11.4477153,12 11,11.5522847 11,11 C11,10.4477153 11.4477153,10 12,10 C12.5522847,10 13,10.4477153 13,11 C13,11.5522847 12.5522847,12 12,12 Z M17,12 C16.4477153,12 16,11.5522847 16,11 C16,10.4477153 16.4477153,10 17,10 C17.5522847,10 18,10.4477153 18,11 C18,11.5522847 17.5522847,12 17,12 Z" id="合并形状" fill="#999999" fill-rule="nonzero"></path>
    </g>
</svg>