<?xml version="1.0" encoding="UTF-8"?>
<svg width="20px" height="20px" viewBox="0 0 20 20" version="1.1" xmlns="http://www.w3.org/2000/svg" xmlns:xlink="http://www.w3.org/1999/xlink">
    <!-- Generator: Sketch 52 (66869) - http://www.bohemiancoding.com/sketch -->
    <title>全屏查看</title>
    <desc>Created with Sketch.</desc>
    <g id="全屏查看" stroke="none" stroke-width="1" fill="none" fill-rule="evenodd">
        <path d="M3,1 C1.8954305,1 1,1.8954305 1,3 L1,17 C1,18.1045695 1.8954305,19 3,19 L17,19 C18.1045695,19 19,18.1045695 19,17 L19,3 C19,1.8954305 18.1045695,1 17,1 L3,1 Z M3,0 L17,0 C18.6568542,-3.04359188e-16 20,1.34314575 20,3 L20,17 C20,18.6568542 18.6568542,20 17,20 L3,20 C1.34314575,20 2.02906125e-16,18.6568542 0,17 L0,3 C-2.02906125e-16,1.34314575 1.34314575,3.04359188e-16 3,0 Z M4,15.1568542 L7.59619408,11.5606602 C7.79145622,11.365398 8.10803871,11.365398 8.30330086,11.5606602 C8.498563,11.7559223 8.498563,12.0725048 8.30330086,12.267767 L4.57106781,16 L7.5,16 C7.77614237,16 8,16.2238576 8,16.5 C8,16.7761424 7.77614237,17 7.5,17 L3.5,17 C3.22385763,17 3,16.7761424 3,16.5 L3,12.5 C3,12.2238576 3.22385763,12 3.5,12 C3.77614237,12 4,12.2238576 4,12.5 L4,15.1568542 Z M4.75735931,4 L8.35355339,7.59619408 C8.54881554,7.79145622 8.54881554,8.10803871 8.35355339,8.30330086 C8.15829124,8.498563 7.84170876,8.498563 7.64644661,8.30330086 L4,4.65685425 L4,7.5 C4,7.77614237 3.77614237,8 3.5,8 C3.22385763,8 3,7.77614237 3,7.5 L3,3.5 C3,3.22385763 3.22385763,3 3.5,3 L7.5,3 C7.77614237,3 8,3.22385763 8,3.5 C8,3.77614237 7.77614237,4 7.5,4 L4.75735931,4 Z M15.2426407,4 L12.5,4 C12.2238576,4 12,3.77614237 12,3.5 C12,3.22385763 12.2238576,3 12.5,3 L16.5,3 C16.7761424,3 17,3.22385763 17,3.5 L17,7.5 C17,7.77614237 16.7761424,8 16.5,8 C16.2238576,8 16,7.77614237 16,7.5 L16,4.65685425 L12.3535534,8.30330086 C12.1582912,8.498563 11.8417088,8.498563 11.6464466,8.30330086 C11.4511845,8.10803871 11.4511845,7.79145622 11.6464466,7.59619408 L15.2426407,4 Z M15.2426407,15.9497475 L11.6464466,12.3535534 C11.4511845,12.1582912 11.4511845,11.8417088 11.6464466,11.6464466 C11.8417088,11.4511845 12.1582912,11.4511845 12.3535534,11.6464466 L16,15.2928932 L16,12.4497475 C16,12.1736051 16.2238576,11.9497475 16.5,11.9497475 C16.7761424,11.9497475 17,12.1736051 17,12.4497475 L17,16.4497475 C17,16.7258898 16.7761424,16.9497475 16.5,16.9497475 L12.5,16.9497475 C12.2238576,16.9497475 12,16.7258898 12,16.4497475 C12,16.1736051 12.2238576,15.9497475 12.5,15.9497475 L15.2426407,15.9497475 Z" id="合并形状" fill="#3296FA" fill-rule="nonzero"></path>
    </g>
</svg>