<?xml version="1.0" encoding="UTF-8"?>
<svg width="24px" height="24px" viewBox="0 0 24 24" version="1.1" xmlns="http://www.w3.org/2000/svg" xmlns:xlink="http://www.w3.org/1999/xlink">
    <!-- Generator: Sketch 52 (66869) - http://www.bohemiancoding.com/sketch -->
    <title>放大</title>
    <desc>Created with Sketch.</desc>
    <g id="放大" stroke="none" stroke-width="1" fill="none" fill-rule="evenodd">
        <path d="M3,1 C1.8954305,1 1,1.8954305 1,3 L1,21 C1,22.1045695 1.8954305,23 3,23 L21,23 C22.1045695,23 23,22.1045695 23,21 L23,3 C23,1.8954305 22.1045695,1 21,1 L3,1 Z M3,0 L21,0 C22.6568542,-3.04359188e-16 24,1.34314575 24,3 L24,21 C24,22.6568542 22.6568542,24 21,24 L3,24 C1.34314575,24 2.02906125e-16,22.6568542 0,21 L0,3 C-2.02906125e-16,1.34314575 1.34314575,3.04359188e-16 3,0 Z M4,19.2426407 L9.01040764,14.232233 C9.20566979,14.0369709 9.52225228,14.0369709 9.71751442,14.232233 C9.91277657,14.4274952 9.91277657,14.7440777 9.71751442,14.9393398 L4.65685425,20 L8.5,20 C8.77614237,20 9,20.2238576 9,20.5 C9,20.7761424 8.77614237,21 8.5,21 L3.5,21 C3.22385763,21 3,20.7761424 3,20.5 L3,15.5 C3,15.2238576 3.22385763,15 3.5,15 C3.77614237,15 4,15.2238576 4,15.5 L4,19.2426407 Z M19.9981746,4.75735931 L14.987767,9.76776695 C14.7925048,9.9630291 14.4759223,9.9630291 14.2806602,9.76776695 C14.085398,9.57250481 14.085398,9.25592232 14.2806602,9.06066017 L19.3413203,4 L15.4981746,4 C15.2220322,4 14.9981746,3.77614237 14.9981746,3.5 C14.9981746,3.22385763 15.2220322,3 15.4981746,3 L20.4981746,3 C20.774317,3 20.9981746,3.22385763 20.9981746,3.5 L20.9981746,8.5 C20.9981746,8.77614237 20.774317,9 20.4981746,9 C20.2220322,9 19.9981746,8.77614237 19.9981746,8.5 L19.9981746,4.75735931 Z" id="合并形状" fill="#979797" fill-rule="nonzero"></path>
    </g>
</svg>