<?xml version="1.0" encoding="UTF-8"?>
<svg width="16px" height="16px" viewBox="0 0 16 16" version="1.1" xmlns="http://www.w3.org/2000/svg" xmlns:xlink="http://www.w3.org/1999/xlink">
    <!-- Generator: Sketch 52 (66869) - http://www.bohemiancoding.com/sketch -->
    <title>架构</title>
    <desc>Created with Sketch.</desc>
    <g id="架构" stroke="none" stroke-width="1" fill="none" fill-rule="evenodd">
        <path d="M8.5,6 L8.5,8 L12.5,8 C13.0522847,8 13.5,8.44771525 13.5,9 L13.5,10 L15,10 C15.5522847,10 16,10.4477153 16,11 L16,15 C16,15.5522847 15.5522847,16 15,16 L11,16 C10.4477153,16 10,15.5522847 10,15 L10,11 C10,10.4477153 10.4477153,10 11,10 L12.5,10 L12.5,9 L3.5,9 L3.5,10 L2.5,10 L2.5,9 C2.5,8.44771525 2.94771525,8 3.5,8 L7.5,8 L8.5,8 L12.5,8 C13.0522847,8 13.5,8.44771525 13.5,9 L13.5,10 L12.5,10 L12.5,9 L3.5,9 L3.5,10 L5,10 C5.55228475,10 6,10.4477153 6,11 L6,15 C6,15.5522847 5.55228475,16 5,16 L1,16 C0.44771525,16 6.76353751e-17,15.5522847 0,15 L0,11 C-6.76353751e-17,10.4477153 0.44771525,10 1,10 L2.5,10 L2.5,9 C2.5,8.44771525 2.94771525,8 3.5,8 L7.5,8 L7.5,6 L6,6 C5.44771525,6 5,5.55228475 5,5 L5,1 C5,0.44771525 5.44771525,1.01453063e-16 6,0 L10,0 C10.5522847,-1.01453063e-16 11,0.44771525 11,1 L11,5 C11,5.55228475 10.5522847,6 10,6 L8.5,6 Z M3.5,11 L2.5,11 L3.5,11 L2.5,11 L1,11 L1,15 L5,15 L5,11 L3.5,11 Z M13.5,11 L12.5,11 L13.5,11 L12.5,11 L11,11 L11,15 L15,15 L15,11 L13.5,11 Z M6,1 L6,5 L10,5 L10,1 L6,1 Z" id="合并形状" fill="#181818" fill-rule="nonzero"></path>
    </g>
</svg>