<?xml version="1.0" encoding="UTF-8"?>
<svg width="24px" height="24px" viewBox="0 0 24 24" version="1.1" xmlns="http://www.w3.org/2000/svg" xmlns:xlink="http://www.w3.org/1999/xlink">
    <!-- Generator: Sketch 52 (66869) - http://www.bohemiancoding.com/sketch -->
    <title>添加字段 </title>
    <desc>Created with Sketch.</desc>
    <g id="添加字段-" stroke="none" stroke-width="1" fill="none" fill-rule="evenodd">
        <path d="M3,1 C1.8954305,1 1,1.8954305 1,3 L1,21 C1,22.1045695 1.8954305,23 3,23 L21,23 C22.1045695,23 23,22.1045695 23,21 L23,3 C23,1.8954305 22.1045695,1 21,1 L3,1 Z M3,0 L21,0 C22.6568542,-3.04359188e-16 24,1.34314575 24,3 L24,21 C24,22.6568542 22.6568542,24 21,24 L3,24 C1.34314575,24 2.02906125e-16,22.6568542 0,21 L0,3 C-2.02906125e-16,1.34314575 1.34314575,3.04359188e-16 3,0 Z M11.5,11.5 L11.5,6.5 C11.5,6.22385763 11.7238576,6 12,6 C12.2761424,6 12.5,6.22385763 12.5,6.5 L12.5,11.5 L17.5,11.5 C17.7761424,11.5 18,11.7238576 18,12 C18,12.2761424 17.7761424,12.5 17.5,12.5 L12.5,12.5 L12.5,17.5 C12.5,17.7761424 12.2761424,18 12,18 C11.7238576,18 11.5,17.7761424 11.5,17.5 L11.5,12.5 L6.5,12.5 C6.22385763,12.5 6,12.2761424 6,12 C6,11.7238576 6.22385763,11.5 6.5,11.5 L11.5,11.5 Z" id="合并形状" fill="#979797" fill-rule="nonzero"></path>
    </g>
</svg>