<?xml version="1.0" encoding="UTF-8"?>
<svg width="20px" height="20px" viewBox="0 0 20 20" version="1.1" xmlns="http://www.w3.org/2000/svg" xmlns:xlink="http://www.w3.org/1999/xlink">
    <!-- Generator: Sketch 52 (66869) - http://www.bohemiancoding.com/sketch -->
    <title>人数@3x</title>
    <desc>Created with Sketch.</desc>
    <g id="人数" stroke="none" stroke-width="1" fill="none" fill-rule="evenodd">
        <polygon id="路径" fill-opacity="0" fill="#D8D8D8" points="0 0 20 0 20 20 0 20"></polygon>
        <path d="M18.68875,16.0925 C18.37125,13.69375 17.005,11.65875 15.14125,10.66125 C15.9646675,10.0204358 16.4499545,9.03835124 16.45875,7.995 C16.45875,6.3475 15.23,4.91625 13.5375,4.59 C13.221317,4.5289035 12.9154715,4.73569198 12.854375,5.051875 C12.7932785,5.36805802 13.000067,5.6739035 13.31625,5.735 C14.4625,5.95625 15.2925,6.90625 15.2925,7.995 C15.2925,8.94625 14.64875,9.81 13.68875,10.14875 C13.3995603,10.1620382 13.1640133,10.3856871 13.1357669,10.6738007 C13.1075205,10.9619142 13.2951473,11.2270508 13.57625,11.29625 C15.43125,11.75875 16.91375,13.44375 17.41375,15.585 L2.4625,15.585 C2.72641343,13.2306989 4.4625216,11.3069985 6.7775,10.80375 C7.04609155,10.7465898 7.23828278,10.5096061 7.23875,10.235 C7.24225961,9.98718543 7.0889043,9.76416872 6.85625,9.67875 C5.64049904,9.22855417 4.83154949,8.0714176 4.82625,6.775 C4.82831757,5.06190574 6.21690504,3.6738775 7.93,3.6725 C9.64260682,3.67456629 11.0304337,5.06239318 11.0325,6.775 C11.0270285,8.0639176 10.2270627,9.21588831 9.02125,9.67125 C8.97789396,9.68551292 8.93636027,9.7048114 8.8975,9.72875 L8.8925,9.7325 C8.88360586,9.73811417 8.87485314,9.74394932 8.86625,9.75 L8.86125,9.755 C8.7856421,9.81063877 8.72436902,9.88348088 8.6825,9.9675 L8.68125,9.9675 C8.62483715,10.0807754 8.60684677,10.2093408 8.63,10.33375 L8.63,10.3375 C8.63154157,10.3441973 8.63320853,10.3508652 8.635,10.3575 L8.6375,10.36625 C8.6375,10.3725 8.64,10.37875 8.64125,10.38375 L8.645,10.395 C8.64659552,10.4000234 8.64826235,10.4050239 8.65,10.41 L8.65375,10.4225 L8.65625,10.4275 C8.65625,10.43125 8.65875,10.435 8.66,10.4375 C8.67374739,10.4742538 8.69134537,10.5094498 8.7125,10.5425 L8.71625,10.5475 L8.72875,10.565 L8.73125,10.57 C8.73572474,10.5759178 8.74030886,10.5817522 8.745,10.5875 L8.75,10.5925 C8.75448042,10.5980029 8.75906458,10.6034205 8.76375,10.60875 L8.77,10.615 C8.77409233,10.6196504 8.77825954,10.6242343 8.7825,10.62875 L8.79125,10.6375 C8.79453626,10.6412916 8.79786986,10.6450419 8.80125,10.64875 L8.81375,10.66125 C8.82187769,10.6685718 8.83021448,10.675658 8.83875,10.6825 L8.84125,10.6825 C8.9064171,10.7340875 8.98184905,10.7711642 9.0625,10.79125 L9.06875,10.79375 C9.07375,10.79375 9.0775,10.79625 9.0825,10.7975 C11.0139232,11.2106242 12.5755274,12.6276619 13.17375,14.51 C13.2849633,14.7969705 13.5998697,14.9483019 13.8934206,14.8558449 C14.1869716,14.7633879 14.3583151,14.4589069 14.285,14.16 C13.7062943,12.3372126 12.3730052,10.8505202 10.62375,10.0775 C11.616968,9.2681913 12.1949851,8.0561902 12.19875,6.775 C12.1959962,4.41906394 10.2871852,2.50969375 7.93125,2.50625 C5.57433854,2.50831646 3.66400652,4.41808924 3.66125,6.775 C3.66487,8.05902296 4.24544777,9.27341725 5.2425,10.0825 C2.8775,11.13125 1.2675,13.51125 1.2675,16.16875 C1.2675,16.49125 1.5275,16.75125 1.85,16.75125 L17.685,16.75125 C17.76,16.75125 17.8325,16.7375 17.8975,16.71125 C17.989584,16.7475206 18.0894308,16.7595711 18.1875,16.74625 C18.3406639,16.7260303 18.4795218,16.645793 18.573525,16.5231903 C18.6675282,16.4005876 18.7089761,16.2456631 18.68875,16.0925 Z" id="路径" fill="#999999"></path>
    </g>
</svg>