<?xml version="1.0" encoding="UTF-8"?>
<svg width="16px" height="16px" viewBox="0 0 16 16" version="1.1" xmlns="http://www.w3.org/2000/svg" xmlns:xlink="http://www.w3.org/1999/xlink">
    <!-- Generator: Sketch 52 (66869) - http://www.bohemiancoding.com/sketch -->
    <title>切片</title>
    <desc>Created with Sketch.</desc>
    <g id="Page-1" stroke="none" stroke-width="1" fill="none" fill-rule="evenodd">
        <g id="服务管理_我的团队" transform="translate(-1013.000000, -162.000000)" fill="#FF7D97" fill-rule="nonzero">
            <g id="女" transform="translate(1013.000000, 162.000000)">
                <path d="M6.97024919,9.22213896 L5.94974747,10.2426407 L8.07106781,12.363961 L7.36396103,13.0710678 L5.24264069,10.9497475 L3.82842712,12.363961 L3.12132034,11.6568542 L4.53553391,10.2426407 L2.41421356,8.12132034 L3.12132034,7.41421356 L5.24264069,9.53553391 L6.20902835,8.56914624 C5.45897675,7.76523184 5,6.6862158 5,5.5 C5,3.01471863 7.01471863,1 9.5,1 C11.9852814,1 14,3.01471863 14,5.5 C14,7.98528137 11.9852814,10 9.5,10 C8.5620606,10 7.69114299,9.71304564 6.97024919,9.22213896 Z M9.5,9 C11.4329966,9 13,7.43299662 13,5.5 C13,3.56700338 11.4329966,2 9.5,2 C7.56700338,2 6,3.56700338 6,5.5 C6,7.43299662 7.56700338,9 9.5,9 Z" id="合并形状"></path>
            </g>
        </g>
    </g>
</svg>