<?xml version="1.0" encoding="UTF-8"?>
<svg width="40px" height="40px" viewBox="0 0 40 40" version="1.1" xmlns="http://www.w3.org/2000/svg" xmlns:xlink="http://www.w3.org/1999/xlink">
    <!-- Generator: Sketch 52 (66869) - http://www.bohemiancoding.com/sketch -->
    <title>切片</title>
    <desc>Created with Sketch.</desc>
    <g id="医生" stroke="none" stroke-width="1" fill="none" fill-rule="evenodd">
        <g id="账号登录" transform="translate(-700.000000, -211.000000)" fill="#218CE9">
            <g id="logo" transform="translate(700.000000, 211.000000)">
                <path d="M16.7293511,28.4634765 L21.2990869,33.090974 C21.6762797,33.4595983 21.9111997,33.9756723 21.9093988,34.5476965 C21.9059971,35.6630627 21.0073377,36.5647279 19.9021728,36.5610921 C19.3384847,36.5594763 18.8308252,36.3217388 18.4682399,35.9420053 L14.2026596,31.627384 L2.9304979,20.248911 C-0.976699232,16.3049339 -0.976699232,9.91046357 2.9304979,5.96648645 C6.83769503,2.02230734 13.172533,2.02230734 17.0797302,5.96648645 L23.8754037,12.831988 L26.9565786,15.9340878 C27.3349721,16.3017021 27.571493,16.8169682 27.571493,17.3887904 C27.571493,18.5043586 26.675635,19.4086496 25.5704701,19.4086496 C25.006782,19.4086496 24.4985222,19.172528 24.1347363,18.7942084 L19.5543951,14.1772142 L14.2498837,8.82297136 C11.9056855,6.4565043 8.10474268,6.4565043 5.76034436,8.82297136 C3.41594603,11.1894384 3.41594603,15.025959 5.76034436,17.3924261 L16.7293511,28.4634765 Z M14.0716726,15.3774347 C15.1722352,15.2754319 16.1463331,16.0930709 16.2473847,17.2039934 C16.3484364,18.314916 15.5384223,19.2981835 14.4378598,19.4001864 C13.3372973,19.5021893 12.3631994,18.6845503 12.2621477,17.5736277 C12.1610961,16.4627051 12.9711101,15.4794376 14.0716726,15.3774347 Z M36.8984604,5.95802324 C40.8056575,9.90200036 40.8056575,16.2964707 36.8984604,20.2406498 L31.5931486,25.5957006 L31.5965503,25.5989324 L29.8348499,27.3707529 L27.0898468,30.1413938 L27.0848442,30.1363441 L27.0110065,30.2106749 L27.0088053,30.2084531 C26.6432185,30.5889946 26.131757,30.8257221 25.5652675,30.8235002 C24.4601026,30.8192585 23.5676464,29.9113318 23.5720487,28.7957635 C23.5740497,28.2269712 23.8099703,27.7147349 24.1863627,27.3489384 L27.008205,24.5110362 L34.0686139,17.3841649 C36.4130122,15.0176978 36.4130122,11.1809752 34.0686139,8.81450815 C32.1068111,6.83423817 29.1250871,6.51106069 26.8305142,7.84497573 L26.8295137,7.84376381 C26.5213562,8.04271994 26.1559694,8.15886185 25.7629685,8.16047774 C24.6578036,8.16471944 23.758544,7.26386223 23.7543418,6.14829398 C23.7521407,5.57647183 23.9820582,5.06686135 24.3510468,4.6772305 C24.3510468,4.6772305 24.4292868,4.59300237 24.500123,4.54573767 C28.3652987,2.08979084 33.5325399,2.56041804 36.8984604,5.95802324 Z" id="合并形状"></path>
            </g>
        </g>
    </g>
</svg>