<?xml version="1.0" encoding="UTF-8"?>
<svg width="18px" height="18px" viewBox="0 0 18 18" version="1.1" xmlns="http://www.w3.org/2000/svg" xmlns:xlink="http://www.w3.org/1999/xlink">
    <!-- Generator: Sketch 52 (66869) - http://www.bohemiancoding.com/sketch -->
    <title>管理员_退出登录</title>
    <desc>Created with Sketch.</desc>
    <g id="管理员" stroke="none" stroke-width="1" fill="none" fill-rule="evenodd">
        <g id="画板" transform="translate(-119.000000, -2208.000000)" fill="#333333">
            <path d="M128.5,2211 L128.5,2210.5 C128.5,2210.22386 128.276142,2210 128,2210 C127.723858,2210 127.5,2210.22386 127.5,2210.5 L127.5,2211 L127.5,2213.03095 L127.5,2214.5 C127.5,2214.77614 127.723858,2215 128,2215 C128.276142,2215 128.5,2214.77614 128.5,2214.5 L128.5,2214 L128.5,2211 Z M130.5,2212.66891 L130.5,2213.87731 C131.414462,2214.61038 132,2215.73681 132,2217 C132,2219.20914 130.209139,2221 128,2221 C125.790861,2221 124,2219.20914 124,2217 C124,2215.73681 124.585538,2214.61038 125.5,2213.87731 L125.5,2212.66891 C124.005497,2213.53343 123,2215.14929 123,2217 C123,2219.76142 125.238576,2222 128,2222 C130.761424,2222 133,2219.76142 133,2217 C133,2215.14929 131.994503,2213.53343 130.5,2212.66891 Z M128,2226 C123.029437,2226 119,2221.97056 119,2217 C119,2212.02944 123.029437,2208 128,2208 C132.970563,2208 137,2212.02944 137,2217 C137,2221.97056 132.970563,2226 128,2226 Z" id="管理员_退出登录"></path>
        </g>
    </g>
</svg>