<?xml version="1.0" encoding="UTF-8"?>
<svg width="21px" height="18px" viewBox="0 0 21 18" version="1.1" xmlns="http://www.w3.org/2000/svg" xmlns:xlink="http://www.w3.org/1999/xlink">
    <!-- Generator: Sketch 52.1 (67048) - http://www.bohemiancoding.com/sketch -->
    <title>合并形状</title>
    <desc>Created with Sketch.</desc>
    <g id="管理员" stroke="none" stroke-width="1" fill="none" fill-rule="evenodd">
        <g id="医生_患者详情_医生提醒" transform="translate(-1476.000000, -825.000000)" fill="#999999" fill-rule="nonzero">
            <path d="M1479,826 C1477.89543,826 1477,826.895431 1477,828 L1477,840 C1477,841.104569 1477.89543,842 1479,842 L1494,842 C1495.10457,842 1496,841.104569 1496,840 L1496,831 C1496,829.895431 1495.10457,829 1494,829 L1486.27924,829 L1485.27924,826 L1479,826 Z M1479,825 L1485.27924,825 C1485.70967,825 1486.09181,825.27543 1486.22792,825.683772 L1487,828 L1494,828 C1495.65685,828 1497,829.343146 1497,831 L1497,840 C1497,841.656854 1495.65685,843 1494,843 L1479,843 C1477.34315,843 1476,841.656854 1476,840 L1476,828 C1476,826.343146 1477.34315,825 1479,825 Z M1481.5,834 L1491.5,834 C1491.77614,834 1492,834.223858 1492,834.5 C1492,834.776142 1491.77614,835 1491.5,835 L1481.5,835 C1481.22386,835 1481,834.776142 1481,834.5 C1481,834.223858 1481.22386,834 1481.5,834 Z" id="合并形状"></path>
        </g>
    </g>
</svg>
