<?xml version="1.0" encoding="UTF-8"?>
<svg width="19px" height="19px" viewBox="0 0 19 19" version="1.1" xmlns="http://www.w3.org/2000/svg" xmlns:xlink="http://www.w3.org/1999/xlink">
    <!-- Generator: Sketch 52.1 (67048) - http://www.bohemiancoding.com/sketch -->
    <title>合并形状</title>
    <desc>Created with Sketch.</desc>
    <g id="管理员" stroke="none" stroke-width="1" fill="none" fill-rule="evenodd">
        <g id="医生_患者详情_医生提醒" transform="translate(-1439.000000, -824.000000)" fill="#999999">
            <path d="M1457,835.017582 C1453.36736,835.273955 1450.5,838.302123 1450.5,842 L1450,842 L1449,842 C1449,837.029437 1444.97056,833 1440,833 L1440,832 C1444.80204,832 1448.81353,835.384754 1449.77884,839.898638 C1450.65969,836.654364 1453.53071,834.229311 1457,834.015371 L1457,827 C1457,825.895431 1456.10457,825 1455,825 L1442,825 C1440.89543,825 1440,825.895431 1440,827 L1440,840 C1440,841.104569 1440.89543,842 1442,842 L1455,842 C1456.10457,842 1457,841.104569 1457,840 L1457,835.017582 Z M1452.5,832 C1451.67157,832 1451,831.328427 1451,830.5 C1451,829.671573 1451.67157,829 1452.5,829 C1453.32843,829 1454,829.671573 1454,830.5 C1454,831.328427 1453.32843,832 1452.5,832 Z M1442,824 L1455,824 C1456.65685,824 1458,825.343146 1458,827 L1458,840 C1458,841.656854 1456.65685,843 1455,843 L1442,843 C1440.34315,843 1439,841.656854 1439,840 L1439,827 C1439,825.343146 1440.34315,824 1442,824 Z" id="合并形状"></path>
        </g>
    </g>
</svg>
