<?xml version="1.0" encoding="UTF-8"?>
<svg width="17px" height="17px" viewBox="0 0 17 17" version="1.1" xmlns="http://www.w3.org/2000/svg" xmlns:xlink="http://www.w3.org/1999/xlink">
    <!-- Generator: Sketch 52 (66869) - http://www.bohemiancoding.com/sketch -->
    <title>语音</title>
    <desc>Created with Sketch.</desc>
    <g id="管理员" stroke="none" stroke-width="1" fill="none" fill-rule="evenodd">
        <g id="医生_患者详情_医患对话" transform="translate(-1826.000000, -1624.000000)" fill="#999999" fill-rule="nonzero">
            <path d="M1832.48699,1634.51272 C1829.77922,1631.80669 1828.62716,1630.03508 1829.96622,1628.69807 C1830.03778,1628.62644 1830.26692,1628.40041 1830.2844,1628.38304 C1830.39591,1628.27229 1830.47587,1628.19039 1830.54623,1628.11414 C1831.11245,1627.50052 1831.09937,1627.18253 1830.00355,1625.8184 C1829.45321,1625.13335 1829.09569,1624.95533 1828.81925,1625.0091 C1828.55397,1625.0607 1828.22308,1625.30749 1827.69938,1625.85005 C1827.72784,1625.82057 1827.28948,1626.28051 1827.16633,1626.40366 C1826.89145,1626.67877 1826.90321,1627.7895 1827.46801,1629.28713 C1828.18679,1631.19305 1829.62265,1633.33814 1831.64204,1635.35789 C1833.66182,1637.37716 1835.80708,1638.81317 1837.71294,1639.532 C1839.21084,1640.09696 1840.32133,1640.10856 1840.59685,1639.83284 C1840.72008,1639.70972 1841.17834,1639.27329 1841.15017,1639.30046 C1841.69257,1638.77728 1841.93929,1638.44664 1841.99089,1638.18151 C1842.0447,1637.90506 1841.86667,1637.54728 1841.18172,1636.99649 C1839.81799,1635.89986 1839.50009,1635.88683 1838.88589,1636.45395 C1838.80967,1636.52432 1838.7278,1636.60431 1838.61723,1636.71569 C1838.59838,1636.73468 1838.37383,1636.96249 1838.30125,1637.03506 C1836.96256,1638.36833 1835.19496,1637.21897 1832.48699,1634.51272 Z M1833.19387,1633.80539 C1834.87682,1635.48727 1836.82432,1637.09465 1837.59558,1636.32652 C1838.69849,1635.22374 1839.37855,1634.26328 1841.80838,1636.21719 C1844.23806,1638.17098 1842.37243,1639.47243 1841.30364,1640.54026 C1840.07114,1641.77365 1835.47608,1640.605 1830.93503,1636.06509 C1826.3941,1631.52336 1825.22747,1626.92932 1826.45894,1625.69684 C1827.5277,1624.62808 1828.83034,1622.76131 1830.78314,1625.19211 C1832.73592,1627.62302 1831.77548,1628.30191 1830.67368,1629.40482 C1829.90233,1630.17499 1831.51089,1632.12348 1833.19387,1633.80539 Z" id="语音"></path>
        </g>
    </g>
</svg>