<?xml version="1.0" encoding="UTF-8"?>
<svg width="17px" height="10px" viewBox="0 0 17 10" version="1.1" xmlns="http://www.w3.org/2000/svg" xmlns:xlink="http://www.w3.org/1999/xlink">
    <!-- Generator: Sketch 52 (66869) - http://www.bohemiancoding.com/sketch -->
    <title>合并形状 copy</title>
    <desc>Created with Sketch.</desc>
    <g id="管理员" stroke="none" stroke-width="1" fill="none" fill-rule="evenodd">
        <g id="医生_患者详情_医患对话" transform="translate(-1449.000000, -1287.000000)" fill="#999999">
            <path d="M1450.5,1287 L1460.5,1287 C1461.32843,1287 1462,1287.67157 1462,1288.5 L1462,1295.5 C1462,1296.32843 1461.32843,1297 1460.5,1297 L1450.5,1297 C1449.67157,1297 1449,1296.32843 1449,1295.5 L1449,1288.5 C1449,1287.67157 1449.67157,1287 1450.5,1287 Z M1465.27728,1288.43844 C1465.34648,1288.40402 1465.42271,1288.3861 1465.5,1288.3861 C1465.77614,1288.3861 1466,1288.60996 1466,1288.8861 L1466,1295.53655 C1466,1295.62983 1465.9739,1295.72126 1465.92466,1295.80049 C1465.77889,1296.03502 1465.47059,1296.10698 1465.23606,1295.96121 L1463.23606,1294.71815 C1463.08926,1294.62691 1463,1294.46633 1463,1294.29349 L1463,1289.88113 C1463,1289.69139 1463.1074,1289.51799 1463.27728,1289.43348 L1465.27728,1288.43844 Z" id="合并形状-copy"></path>
        </g>
    </g>
</svg>