<?xml version="1.0" encoding="UTF-8"?>
<svg width="23px" height="15px" viewBox="0 0 23 15" version="1.1" xmlns="http://www.w3.org/2000/svg" xmlns:xlink="http://www.w3.org/1999/xlink">
    <!-- Generator: Sketch 52 (66869) - http://www.bohemiancoding.com/sketch -->
    <title>视频</title>
    <desc>Created with Sketch.</desc>
    <g id="管理员" stroke="none" stroke-width="1" fill="none" fill-rule="evenodd">
        <g id="医生_患者详情_医患对话" transform="translate(-1855.000000, -1626.000000)" fill="#999999" fill-rule="nonzero">
            <path d="M1856.5,1627 C1856.22386,1627 1856,1627.22386 1856,1627.5 L1856,1639.5 C1856,1639.77614 1856.22386,1640 1856.5,1640 L1871.21661,1640 C1871.49275,1640 1871.71661,1639.77614 1871.71661,1639.5 L1871.71661,1627.5 C1871.71661,1627.22386 1871.49275,1627 1871.21661,1627 L1856.5,1627 Z M1856.5,1626 L1871.21661,1626 C1872.04504,1626 1872.71661,1626.67157 1872.71661,1627.5 L1872.71661,1639.5 C1872.71661,1640.32843 1872.04504,1641 1871.21661,1641 L1856.5,1641 C1855.67157,1641 1855,1640.32843 1855,1639.5 L1855,1627.5 C1855,1626.67157 1855.67157,1626 1856.5,1626 Z M1874.70087,1630.34558 L1874.70087,1635.90252 L1877,1637.25162 L1877,1629.26566 L1874.70087,1630.34558 Z M1877.28743,1628.02584 C1877.35394,1627.9946 1877.42652,1627.9784 1877.5,1627.9784 C1877.77614,1627.9784 1878,1628.20226 1878,1628.4784 L1878,1638.12474 C1878,1638.21371 1877.97626,1638.30106 1877.93124,1638.37779 C1877.79149,1638.61596 1877.48512,1638.69574 1877.24695,1638.55598 L1873.94782,1636.62009 C1873.79484,1636.53032 1873.70087,1636.36622 1873.70087,1636.18885 L1873.70087,1630.02803 C1873.70087,1629.83422 1873.81287,1629.65786 1873.9883,1629.57547 L1877.28743,1628.02584 Z" id="视频"></path>
        </g>
    </g>
</svg>