<?xml version="1.0" encoding="UTF-8"?>
<svg width="20px" height="20px" viewBox="0 0 20 20" version="1.1" xmlns="http://www.w3.org/2000/svg" xmlns:xlink="http://www.w3.org/1999/xlink">
    <!-- Generator: Sketch 52 (66869) - http://www.bohemiancoding.com/sketch -->
    <title>回拨</title>
    <desc>Created with Sketch.</desc>
    <g id="回拨" stroke="none" stroke-width="1" fill="none" fill-rule="evenodd">
        <path d="M8.21747127,11.7825437 C5.89277812,9.45927987 4.92026248,7.96373485 6.14144603,6.74439039 C6.20092909,6.68484601 6.38997738,6.49836084 6.40395894,6.48447236 C6.49412498,6.39490658 6.55836384,6.32911558 6.61425343,6.26854529 C7.01714692,5.83190984 7.01038154,5.66733569 6.15946056,4.60804498 C5.74361064,4.09039177 5.51016711,3.97414874 5.35543833,4.00424776 C5.18396701,4.03760367 4.93360969,4.22432659 4.52647035,4.6461434 C4.55128946,4.62042956 4.18848279,5.00110856 4.08535239,5.10424128 C3.4453316,5.74479984 4.75174427,9.2089767 7.77116528,12.2290019 C10.7913808,15.2485292 14.2557595,16.5552139 14.896203,15.9142987 C14.9994451,15.8111469 15.3787123,15.4499347 15.3540911,15.4736841 C15.7757465,15.0669575 15.9623963,14.8168097 15.9957483,14.6454589 C16.0258769,14.4906694 15.909593,14.2569686 15.391999,13.8407428 C14.3330952,12.9892181 14.1687132,12.9824824 13.7316335,13.3860696 C13.6710904,13.4419734 13.6053195,13.5062336 13.5159112,13.5963005 C13.5007976,13.6115255 13.3155457,13.7994672 13.2549788,13.8600257 C12.0341052,15.0759853 10.5422661,14.1059091 8.21747127,11.7825437 Z M8.92436057,11.0752195 C10.3103244,12.4603312 11.91415,13.7840874 12.5492994,13.1514945 C13.4575762,12.2433008 14.0176317,11.4523102 16.0186673,13.0614566 C18.0195781,14.670499 16.483177,15.7423072 15.6030007,16.6217145 C14.5879962,17.6374672 10.8038284,16.6750264 7.06413908,12.9361892 C3.32455368,9.1958556 2.36379638,5.41243599 3.37794872,4.39743151 C4.25810425,3.5172552 5.33086849,1.97987725 6.93905876,3.98176498 C8.54722826,5.98373583 7.75627922,6.54283527 6.84891697,7.45113282 C6.21368441,8.08540932 7.53837593,9.69008703 8.92436057,11.0752195 Z M14.2144661,4.75 L13.5251263,4.06066017 C13.3298641,3.86539803 13.3298641,3.54881554 13.5251263,3.35355339 C13.7203884,3.15829124 14.0369709,3.15829124 14.232233,3.35355339 L15.6464466,4.76776695 C15.8417088,4.9630291 15.8417088,5.27961159 15.6464466,5.47487373 L14.232233,6.8890873 C14.0369709,7.08434944 13.7203884,7.08434944 13.5251263,6.8890873 C13.3298641,6.69382515 13.3298641,6.37724266 13.5251263,6.18198052 L13.9571068,5.75 L10.5,5.75 C10.2238576,5.75 10,5.52614237 10,5.25 C10,4.97385763 10.2238576,4.75 10.5,4.75 L14.2144661,4.75 Z" id="合并形状" fill="#007ADA" fill-rule="nonzero"></path>
    </g>
</svg>