<?xml version="1.0" encoding="UTF-8"?>
<svg width="20px" height="20px" viewBox="0 0 20 20" version="1.1" xmlns="http://www.w3.org/2000/svg" xmlns:xlink="http://www.w3.org/1999/xlink">
    <!-- Generator: Sketch 52 (66869) - http://www.bohemiancoding.com/sketch -->
    <title>自我病情</title>
    <desc>Created with Sketch.</desc>
    <g id="自我病情" stroke="none" stroke-width="1" fill="none" fill-rule="evenodd">
        <path d="M13,12 L13,10.5 C13,10.2238576 13.2238576,10 13.5,10 C13.7761424,10 14,10.2238576 14,10.5 L14,12 L15.5,12 C15.7761424,12 16,12.2238576 16,12.5 C16,12.7761424 15.7761424,13 15.5,13 L14,13 L14,14.5 C14,14.7761424 13.7761424,15 13.5,15 C13.2238576,15 13,14.7761424 13,14.5 L13,13 L11.5,13 C11.2238576,13 11,12.7761424 11,12.5 C11,12.2238576 11.2238576,12 11.5,12 L13,12 Z M14,4 L7,4 L7,4.5 C7,4.77614237 6.77614237,5 6.5,5 C6.22385763,5 6,4.77614237 6,4.5 L6,4 L4,4 C3.44771525,4 3,4.44771525 3,5 L3,15 C3,15.5522847 3.44771525,16 4,16 L16,16 C16.5522847,16 17,15.5522847 17,15 L17,5 C17,4.44771525 16.5522847,4 16,4 L15,4 L15,4.5 C15,4.77614237 14.7761424,5 14.5,5 C14.2238576,5 14,4.77614237 14,4.5 L14,4 Z M15,3 L16,3 C17.1045695,3 18,3.8954305 18,5 L18,15 C18,16.1045695 17.1045695,17 16,17 L4,17 C2.8954305,17 2,16.1045695 2,15 L2,5 C2,3.8954305 2.8954305,3 4,3 L6,3 L6,2.5 C6,2.22385763 6.22385763,2 6.5,2 C6.77614237,2 7,2.22385763 7,2.5 L7,3 L14,3 L14,2.5 C14,2.22385763 14.2238576,2 14.5,2 C14.7761424,2 15,2.22385763 15,2.5 L15,3 Z M4.5,7 L12.5,7 C12.7761424,7 13,7.22385763 13,7.5 C13,7.77614237 12.7761424,8 12.5,8 L4.5,8 C4.22385763,8 4,7.77614237 4,7.5 C4,7.22385763 4.22385763,7 4.5,7 Z M4.5,10 L9.5,10 C9.77614237,10 10,10.2238576 10,10.5 C10,10.7761424 9.77614237,11 9.5,11 L4.5,11 C4.22385763,11 4,10.7761424 4,10.5 C4,10.2238576 4.22385763,10 4.5,10 Z M4.5,13 L7.5,13 C7.77614237,13 8,13.2238576 8,13.5 C8,13.7761424 7.77614237,14 7.5,14 L4.5,14 C4.22385763,14 4,13.7761424 4,13.5 C4,13.2238576 4.22385763,13 4.5,13 Z" id="合并形状" fill="#007ADA" fill-rule="nonzero"></path>
    </g>
</svg>