<?xml version="1.0" encoding="UTF-8"?>
<svg width="30px" height="22px" viewBox="0 0 30 22" version="1.1" xmlns="http://www.w3.org/2000/svg" xmlns:xlink="http://www.w3.org/1999/xlink">
    <!-- Generator: Sketch 52.1 (67048) - http://www.bohemiancoding.com/sketch -->
    <title>缩小视频框</title>
    <desc>Created with Sketch.</desc>
    <g id="缩小视频框" stroke="none" stroke-width="1" fill="none" fill-rule="evenodd">
        <path d="M1,1 L1,21 L29,21 L29,1 L1,1 Z M1,0 L29,0 C29.5522847,-1.01453063e-16 30,0.44771525 30,1 L30,21 C30,21.5522847 29.5522847,22 29,22 L1,22 C0.44771525,22 6.76353751e-17,21.5522847 0,21 L0,1 C-6.76353751e-17,0.44771525 0.44771525,1.01453063e-16 1,0 Z M8.7656047,14.4076946 L7.54016688,12.5206858 L13.3674368,12.3135024 L10.8080011,17.5527092 L9.58256326,15.6657005 L3.50220164,19.6143335 C3.27060916,19.7647314 2.96094475,19.6989102 2.81054684,19.4673177 L2.53822732,19.0479824 C2.3878294,18.8163899 2.4536506,18.5067255 2.68524309,18.3563276 L8.7656047,14.4076946 Z M21.2421613,8.4426359 L22.5003453,10.3079704 L16.6775787,10.6168222 L19.1451879,5.333745 L20.4033719,7.19907954 L26.4138943,3.14493099 C26.6428267,2.99051413 26.9535927,3.05092092 27.1080095,3.27985332 L27.387606,3.69437211 C27.5420228,3.92330451 27.4816161,4.23407049 27.2526837,4.38848735 L21.2421613,8.4426359 Z" id="合并形状" fill="#FFFFFF" fill-rule="nonzero"></path>
    </g>
</svg>