<?xml version="1.0" encoding="UTF-8"?>
<svg width="17px" height="10px" viewBox="0 0 17 10" version="1.1" xmlns="http://www.w3.org/2000/svg" xmlns:xlink="http://www.w3.org/1999/xlink">
    <!-- Generator: Sketch 52 (66869) - http://www.bohemiancoding.com/sketch -->
    <title>合并形状 copy 2</title>
    <desc>Created with Sketch.</desc>
    <g id="管理员" stroke="none" stroke-width="1" fill="none" fill-rule="evenodd" opacity="0.8">
        <g id="医生_患者详情_医患对话" transform="translate(-1817.000000, -1492.000000)" fill="#FFFFFF">
            <path d="M1818.5,1492 L1828.5,1492 C1829.32843,1492 1830,1492.67157 1830,1493.5 L1830,1500.5 C1830,1501.32843 1829.32843,1502 1828.5,1502 L1818.5,1502 C1817.67157,1502 1817,1501.32843 1817,1500.5 L1817,1493.5 C1817,1492.67157 1817.67157,1492 1818.5,1492 Z M1833.27728,1493.43844 C1833.34648,1493.40402 1833.42271,1493.3861 1833.5,1493.3861 C1833.77614,1493.3861 1834,1493.60996 1834,1493.8861 L1834,1500.53655 C1834,1500.62983 1833.9739,1500.72126 1833.92466,1500.80049 C1833.77889,1501.03502 1833.47059,1501.10698 1833.23606,1500.96121 L1831.23606,1499.71815 C1831.08926,1499.62691 1831,1499.46633 1831,1499.29349 L1831,1494.88113 C1831,1494.69139 1831.1074,1494.51799 1831.27728,1494.43348 L1833.27728,1493.43844 Z" id="合并形状-copy-2"></path>
        </g>
    </g>
</svg>