<?xml version="1.0" encoding="UTF-8"?>
<svg width="13px" height="16px" viewBox="0 0 13 16" version="1.1" xmlns="http://www.w3.org/2000/svg" xmlns:xlink="http://www.w3.org/1999/xlink">
    <!-- Generator: Sketch 52 (66869) - http://www.bohemiancoding.com/sketch -->
    <title>未认证</title>
    <desc>Created with Sketch.</desc>
    <g id="管理员" stroke="none" stroke-width="1" fill="none" fill-rule="evenodd">
        <g id="画板" transform="translate(-137.000000, -2288.000000)" fill="#E0E0E0" fill-rule="nonzero">
            <path d="M149.996866,2290.32664 L149.353853,2290.31589 C149.338759,2290.31589 147.896665,2290.28372 146.407599,2289.66375 C144.879914,2289.02655 143.89538,2288.29553 143.886478,2288.28855 L143.497893,2288 L143.111924,2288.28856 C143.102536,2288.29553 142.118001,2289.02655 140.590804,2289.66375 C139.102803,2290.28428 137.659658,2290.31589 137.64607,2290.31589 L137,2290.32664 L137,2297.05284 C136.999985,2300.42959 141.226923,2304 143.499475,2304 C145.773579,2304 150,2300.42959 150,2297.05284 L149.996866,2290.32664 Z M142.771057,2299 L140,2296.53157 L140.852221,2295.48271 L142.629507,2297.0653 L146.003647,2293 L147,2293.90406 L142.771057,2299 Z" id="未认证"></path>
        </g>
    </g>
</svg>