<?xml version="1.0" encoding="UTF-8"?>
<svg width="56px" height="49px" viewBox="0 0 56 49" version="1.1" xmlns="http://www.w3.org/2000/svg" xmlns:xlink="http://www.w3.org/1999/xlink">
    <!-- Generator: Sketch 52 (66869) - http://www.bohemiancoding.com/sketch -->
    <title>合并形状</title>
    <desc>Created with Sketch.</desc>
    <g id="管理员" stroke="none" stroke-width="1" fill="none" fill-rule="evenodd">
        <g id="管理员_医生详情" transform="translate(-1521.000000, -331.000000)" fill="#FF6A6A" fill-rule="nonzero">
            <path d="M1576.61079,347.814221 C1577.3545,349.00145 1576.99905,350.571477 1575.82879,351.325978 L1533.36039,378.61006 C1532.19013,379.353466 1530.63707,379.003954 1529.89336,377.816725 L1521.38437,364.191327 C1520.65159,363.004098 1520.9961,361.428523 1522.16636,360.674022 L1564.63476,333.38994 C1565.80502,332.646534 1567.35808,332.996046 1568.1018,334.183275 L1576.61079,347.814221 Z M1574.91555,349.866907 C1575.28741,349.617256 1575.39678,349.117954 1575.17257,348.740703 L1566.66358,335.115305 C1566.42843,334.732507 1565.93627,334.621551 1565.55894,334.860107 L1523.09054,362.144189 C1522.71321,362.382744 1522.60384,362.882046 1522.83899,363.264845 L1531.34251,376.890242 C1531.57766,377.273041 1532.06982,377.383997 1532.44715,377.145441 L1574.91555,349.866907 Z M1537.90472,339.636763 L1537.70785,337.783797 L1539.27731,338.749115 L1540.95067,337.989066 L1540.5296,339.797649 L1541.76001,341.179051 L1539.93353,341.328842 L1539.02029,342.943252 L1538.31485,341.223434 L1536.52119,340.840635 L1537.90472,339.636763 Z M1547.50194,336.169388 L1548.24566,334.466213 L1549.12062,336.102814 L1550.9471,336.296987 L1549.68934,337.65065 L1550.07214,339.470329 L1548.41518,338.671446 L1546.82385,339.603476 L1547.05899,337.761606 L1545.69733,336.524447 L1547.50194,336.169388 Z M1566.73467,364.679534 L1567.8065,366.188535 L1565.97455,366.138605 L1564.89178,367.642059 L1564.37774,365.855667 L1562.63329,365.273148 L1564.14807,364.230162 L1564.15354,362.371649 L1565.60269,363.508948 L1567.34714,362.943072 L1566.73467,364.679534 Z M1560.0795,372.501932 L1560.26543,374.354898 L1558.70691,373.367389 L1557.02807,374.116342 L1557.46009,372.307759 L1556.24061,370.920809 L1558.06709,370.787662 L1558.99674,369.184348 L1559.69124,370.909714 L1561.47944,371.303607 L1560.0795,372.501932 Z M1550.45493,375.88609 L1549.69481,377.583717 L1548.82532,375.941568 L1546.99884,375.730752 L1548.273,374.388184 L1547.90661,372.568506 L1549.55263,373.384032 L1551.14943,372.463098 L1550.89788,374.304967 L1552.25407,375.55877 L1550.45493,375.88609 Z M1531.44641,347.220606 L1530.38552,345.706056 L1532.21747,345.77263 L1533.31664,344.280272 L1533.81974,346.072211 L1535.55873,346.671374 L1534.03302,347.708812 L1534.01114,349.567325 L1532.56746,348.418931 L1530.81754,348.973711 L1531.44641,347.220606 Z M1536.3214,336.251947 C1529.3123,340.690026 1525.55118,348.348852 1525.73132,356.08956 L1524.05546,357.148585 C1523.89716,354.806721 1524.0773,352.453938 1524.60135,350.133909 C1525.30007,347.033259 1526.57197,344.134587 1528.37884,341.536155 C1530.24575,338.839462 1532.60941,336.579481 1535.40432,334.805341 C1538.19923,333.031201 1541.25616,331.862998 1544.48778,331.328027 C1547.61021,330.814891 1550.77086,330.902233 1553.87147,331.600971 C1556.19692,332.125025 1558.40227,332.960235 1560.44933,334.106603 L1558.77347,335.165628 C1551.85171,331.688314 1543.33051,331.813868 1536.3214,336.251947 Z M1560.68951,374.748053 C1567.69862,370.309974 1571.45974,362.651148 1571.26868,354.91044 L1572.94454,353.851415 C1573.10284,356.193279 1572.9227,358.546062 1572.39865,360.866091 C1571.70539,363.966741 1570.43348,366.865413 1568.63208,369.463845 C1566.76517,372.160538 1564.39604,374.425978 1561.60659,376.194659 C1558.81169,377.968799 1555.75475,379.137002 1552.52314,379.671973 C1549.4007,380.185109 1546.24005,380.097767 1543.13945,379.399029 C1540.814,378.874975 1538.60864,378.039765 1536.56159,376.893397 L1538.23744,375.834372 C1545.15921,379.311686 1553.68041,379.186132 1560.68951,374.748053 Z M1541.56905,343.999319 C1539.62209,345.241614 1538.10899,346.903456 1537.06772,348.810489 L1534.49709,350.445088 C1535.58717,347.186787 1537.72937,344.424315 1540.65794,342.560872 C1543.59193,340.697429 1546.99233,339.929167 1550.3873,340.332368 L1547.81667,341.966967 C1545.66362,342.097735 1543.51601,342.762472 1541.56905,343.999319 Z M1555.73466,366.480504 C1557.68704,365.238209 1559.19471,363.565469 1560.23598,361.669334 L1562.80661,360.034735 C1561.71653,363.293036 1559.57434,366.055508 1556.64577,367.918951 C1553.71177,369.782394 1550.31138,370.550656 1546.9164,370.147454 L1549.48704,368.512855 C1551.64008,368.382088 1553.7877,367.717351 1555.73466,366.480504 Z M1528.86772,363.303933 L1528,361.887281 L1531.84511,359.517112 L1531.24854,358.536353 L1533.43955,357.185084 L1534.03611,358.165844 L1537.83241,355.828367 L1538.70013,357.24502 L1534.90384,359.582496 L1535.95053,361.293376 L1540.43016,358.536353 L1541.325,360.002043 L1539.08519,361.380555 C1540.30542,362.873489 1541.80225,363.679891 1543.57566,363.799762 L1544.41085,365.167376 C1541.24365,365.684999 1538.77063,364.851354 1536.9918,362.66644 L1536.84537,362.753618 L1540.30542,368.431125 L1538.11442,369.782394 L1534.65437,364.104887 L1534.45913,364.224757 C1535.58717,366.807424 1535.20212,369.395539 1533.30397,372 L1532.46878,370.632385 C1533.16296,368.992338 1533.13042,367.286906 1532.36032,365.516091 L1530.16931,366.867359 L1529.27447,365.401669 L1533.75952,362.650094 L1532.71283,360.939213 L1528.86772,363.303933 Z M1545.75582,364.415461 L1544.8881,362.998808 L1548.92844,360.508769 L1543.23399,351.164311 L1545.52262,349.753107 L1547.52381,353.033203 L1551.61296,350.51592 L1552.5078,351.981611 L1548.41865,354.498893 L1551.22249,359.097565 L1556.09259,356.1008 L1556.96032,357.517453 L1545.75582,364.415461 Z M1559.51468,356.553039 L1555.45807,349.900221 C1555.23029,350.265282 1554.92116,350.635791 1554.53069,351.011749 L1553.78228,349.791248 C1554.36799,348.625234 1554.27037,347.001532 1553.49484,344.920143 L1555.53942,343.661502 C1555.89735,344.832964 1556.13598,345.851864 1556.26071,346.712753 L1561.51045,355.321641 L1559.51468,356.553039 Z M1557.51892,342.299336 L1559.80754,340.888132 C1559.88889,341.242295 1560.00278,341.574664 1560.14921,341.890686 L1563.21878,340 L1564.05397,341.367615 L1560.64815,343.470799 C1560.84881,344.021114 1560.99524,344.555083 1561.09286,345.083603 L1565.1332,342.593564 L1565.96839,343.961178 L1561.39114,346.778137 C1561.41825,346.898008 1561.44537,347.083262 1561.46706,347.33935 C1561.51045,347.628129 1561.52672,347.840627 1561.5213,347.976843 L1565.95212,345.247063 L1566.81984,346.663715 C1566.79272,347.938703 1566.66257,348.892219 1566.42394,349.529712 C1566.57579,349.480674 1566.80899,349.426188 1567.12897,349.366252 C1567.42725,349.273625 1567.66045,349.219138 1567.83399,349.202792 L1569,351.109825 C1566.49987,351.480334 1564.00516,352.145071 1561.50503,353.098587 L1560.6373,351.681934 C1562.13413,350.984505 1563.35979,350.47778 1564.32513,350.15086 C1564.43902,349.676826 1564.46071,349.017538 1564.38479,348.162098 L1560.44206,350.592202 L1559.57434,349.175549 C1559.4713,348.788694 1559.41164,348.401839 1559.39537,348.004086 L1557.98532,348.875873 L1557.15013,347.508258 L1559.04828,346.336796 C1558.88558,345.851864 1558.70661,345.334241 1558.50595,344.789375 L1556.75423,345.86821 L1555.91905,344.500596 L1557.96362,343.241955 C1557.93651,343.122084 1557.86058,342.969522 1557.74127,342.77337 C1557.6545,342.555423 1557.57857,342.397412 1557.51892,342.299336 Z" id="合并形状"></path>
        </g>
    </g>
</svg>