<?xml version="1.0" encoding="UTF-8"?>
<svg width="16px" height="16px" viewBox="0 0 16 16" version="1.1" xmlns="http://www.w3.org/2000/svg" xmlns:xlink="http://www.w3.org/1999/xlink">
    <!-- Generator: Sketch 52 (66869) - http://www.bohemiancoding.com/sketch -->
    <title>删除</title>
    <desc>Created with Sketch.</desc>
    <g id="删除" stroke="none" stroke-width="1" fill="none" fill-rule="evenodd">
        <path d="M7,3 L9,3 C9,2.44771525 8.55228475,2 8,2 C7.44771525,2 7,2.44771525 7,3 Z M6,3 C6,1.8954305 6.8954305,1 8,1 C9.1045695,1 10,1.8954305 10,3 L14,3 C14.2761424,3 14.5,3.22385763 14.5,3.5 C14.5,3.77614237 14.2761424,4 14,4 L13,4 L13,13 C13,14.1045695 12.1045695,15 11,15 L5,15 C3.8954305,15 3,14.1045695 3,13 L3,4 L2,4 C1.72385763,4 1.5,3.77614237 1.5,3.5 C1.5,3.22385763 1.72385763,3 2,3 L6,3 Z M12,4 L4,4 L4,13 C4,13.5522847 4.44771525,14 5,14 L11,14 C11.5522847,14 12,13.5522847 12,13 L12,4 Z M6.5,6 C6.77614237,6 7,6.22385763 7,6.5 L7,11.5 C7,11.7761424 6.77614237,12 6.5,12 C6.22385763,12 6,11.7761424 6,11.5 L6,6.5 C6,6.22385763 6.22385763,6 6.5,6 Z M9.5,6 C9.77614237,6 10,6.22385763 10,6.5 L10,11.5 C10,11.7761424 9.77614237,12 9.5,12 C9.22385763,12 9,11.7761424 9,11.5 L9,6.5 C9,6.22385763 9.22385763,6 9.5,6 Z" id="合并形状" fill="#A6A6A6" fill-rule="nonzero"></path>
    </g>
</svg>