<?xml version="1.0" encoding="UTF-8"?>
<svg width="14px" height="14px" viewBox="0 0 14 14" version="1.1" xmlns="http://www.w3.org/2000/svg" xmlns:xlink="http://www.w3.org/1999/xlink">
    <!-- Generator: Sketch 52 (66869) - http://www.bohemiancoding.com/sketch -->
    <title>发送频率</title>
    <desc>Created with Sketch.</desc>
    <g id="发送频率" stroke="none" stroke-width="1" fill="none" fill-rule="evenodd">
        <path d="M9.30429454,10.9885987 C11.3712762,10.8331185 13,9.10676368 13,7 C13,4.790861 11.209139,3 9,3 L8,3 L8,2 L9,2 C11.7614237,2 14,4.23857625 14,7 C14,9.66580246 11.9137723,11.8443403 9.28491185,11.9920186 L10.2071068,12.9142136 L9.5,13.6213203 L8.08578644,12.2071068 L7.37867966,11.5 L9.5,9.37867966 L10.2071068,10.0857864 L9.30429454,10.9885987 Z M4.71508815,2.00798136 L3.79289322,1.08578644 L4.5,0.378679656 L6.62132034,2.5 L5.91421356,3.20710678 L4.5,4.62132034 L3.79289322,3.91421356 L4.69570546,3.01140132 C2.62872378,3.16688147 1,4.89323632 1,7 C1,9.209139 2.790861,11 5,11 L6,11 L6,12 L5,12 C2.23857625,12 3.38176876e-16,9.76142375 0,7 C-3.26466645e-16,4.33419754 2.0862277,2.15565968 4.71508815,2.00798136 Z" id="合并形状" fill="#181818" fill-rule="nonzero"></path>
    </g>
</svg>