<?xml version="1.0" encoding="UTF-8"?>
<svg width="14px" height="14px" viewBox="0 0 14 14" version="1.1" xmlns="http://www.w3.org/2000/svg" xmlns:xlink="http://www.w3.org/1999/xlink">
    <!-- Generator: Sketch 52 (66869) - http://www.bohemiancoding.com/sketch -->
    <title>切片</title>
    <desc>Created with Sketch.</desc>
    <g id="Page-1" stroke="none" stroke-width="1" fill="none" fill-rule="evenodd">
        <g id="患者宣教创建1" transform="translate(-300.000000, -145.000000)">
            <g id="提示" transform="translate(300.000000, 145.000000)">
                <g>
                    <path d="M7,0 C3.10625,0 0,3.10625 0,7 C0,10.89375 3.10625,14 7,14 C10.89375,14 14,10.89375 14,7 C14,3.10625 10.89375,0 7,0 Z" id="路径" fill="#FFCA4D"></path>
                    <path d="M6.35075,2.94175 C6.526625,2.753625 6.678,2.627625 6.96325,2.627625 C7.280875,2.601375 7.574,2.762375 7.69125,3.00475 C7.825125,3.175375 7.90125,3.5525 7.86625,3.7765 C7.86625,3.8395 7.825125,4.26125 7.8085,4.3785 L7.574,7.56525 C7.574,7.879375 7.515375,8.1935 7.398125,8.435875 C7.3395,8.624 7.163625,8.75 6.929125,8.75 C6.73870063,8.74398438 6.57328565,8.61728354 6.517875,8.435 C6.4015,8.12175 6.342875,7.870625 6.342875,7.56525 L6.183625,4.4415 C6.125,3.875375 6.125,4.064375 6.125,3.75025 C6.125,3.444 6.183625,3.19375 6.35075,2.94175 Z M7.641375,11.155375 C7.48115466,11.2984369 7.27341393,11.3767296 7.058625,11.375 C6.825,11.375 6.591375,11.319875 6.416375,11.155375 C6.241375,10.990875 6.125,10.770375 6.125,10.5035 C6.125,10.28475 6.183625,10.06425 6.358625,9.89975 C6.533625,9.73525 6.766375,9.625 7,9.625 C7.233625,9.625 7.466375,9.73525 7.641375,9.89975 C7.816375,10.06425 7.875,10.28475 7.875,10.5035 C7.86625,10.770375 7.8085,10.990875 7.641375,11.155375 Z" id="形状" fill="#FFFFFF" fill-rule="nonzero"></path>
                </g>
            </g>
        </g>
    </g>
</svg>