<?xml version="1.0" encoding="UTF-8"?>
<svg width="16px" height="16px" viewBox="0 0 16 16" version="1.1" xmlns="http://www.w3.org/2000/svg" xmlns:xlink="http://www.w3.org/1999/xlink">
    <!-- Generator: Sketch 52 (66869) - http://www.bohemiancoding.com/sketch -->
    <title>切片</title>
    <desc>Created with Sketch.</desc>
    <g id="Page-1" stroke="none" stroke-width="1" fill="none" fill-rule="evenodd">
        <g id="成员管理" transform="translate(-1262.000000, -507.000000)" fill="#3296FA" fill-rule="nonzero">
            <g id="编辑-copy-4" transform="translate(1262.000000, 507.000000)">
                <path d="M8,3 L4,3 C2.8954305,3 2,3.8954305 2,5 L2,12 C2,13.1045695 2.8954305,14 4,14 L11,14 C12.1045695,14 13,13.1045695 13,12 L13,7 C13,6.72385763 13.2238576,6.5 13.5,6.5 C13.7761424,6.5 14,6.72385763 14,7 L14,12 C14,13.6568542 12.6568542,15 11,15 L4,15 C2.34314575,15 1,13.6568542 1,12 L1,5 C1,3.34314575 2.34314575,2 4,2 L8,2 C8.27614237,2 8.5,2.22385763 8.5,2.5 C8.5,2.77614237 8.27614237,3 8,3 Z M7.35355339,7.30330086 L12.3033009,2.35355339 C12.498563,2.15829124 12.8151455,2.15829124 13.0104076,2.35355339 C13.2056698,2.54881554 13.2056698,2.86539803 13.0104076,3.06066017 L8.06066017,8.01040764 C7.86539803,8.20566979 7.54881554,8.20566979 7.35355339,8.01040764 C7.15829124,7.81514549 7.15829124,7.498563 7.35355339,7.30330086 Z" id="合并形状"></path>
            </g>
        </g>
    </g>
</svg>