<?xml version="1.0" encoding="UTF-8"?>
<svg width="16px" height="16px" viewBox="0 0 16 16" version="1.1" xmlns="http://www.w3.org/2000/svg" xmlns:xlink="http://www.w3.org/1999/xlink">
    <!-- Generator: Sketch 52 (66869) - http://www.bohemiancoding.com/sketch -->
    <title>切片</title>
    <desc>Created with Sketch.</desc>
    <g id="Page-1" stroke="none" stroke-width="1" fill="none" fill-rule="evenodd">
        <g id="服务管理_我的团队" transform="translate(-429.000000, -162.000000)" fill="#059AA9" fill-rule="nonzero">
            <g id="男" transform="translate(429.000000, 162.000000)">
                <path d="M10.827558,5.47053908 L13.4142136,2.88388348 L11.1213203,2.88388348 L11.1213203,1.88388348 L15.1213203,1.88388348 L15.1213203,2.88388348 L15.1213203,5.88388348 L14.1213203,5.88388348 L14.1213203,3.59099026 L11.4213746,6.29093599 C11.789776,6.94349242 12,7.69719598 12,8.5 C12,10.9852814 9.98528137,13 7.5,13 C5.01471863,13 3,10.9852814 3,8.5 C3,6.01471863 5.01471863,4 7.5,4 C8.81847646,4 10.0045154,4.56703261 10.827558,5.47053908 Z M7.5,12 C9.43299662,12 11,10.4329966 11,8.5 C11,6.56700338 9.43299662,5 7.5,5 C5.56700338,5 4,6.56700338 4,8.5 C4,10.4329966 5.56700338,12 7.5,12 Z" id="合并形状"></path>
            </g>
        </g>
    </g>
</svg>
