<?xml version="1.0" encoding="UTF-8"?>
<svg width="16px" height="16px" viewBox="0 0 16 16" version="1.1" xmlns="http://www.w3.org/2000/svg" xmlns:xlink="http://www.w3.org/1999/xlink">
    <!-- Generator: Sketch 52 (66869) - http://www.bohemiancoding.com/sketch -->
    <title>搜索</title>
    <desc>Created with Sketch.</desc>
    <g id="搜索" stroke="none" stroke-width="1" fill="none" fill-rule="evenodd">
        <path d="M12.0522243,11.8451175 L14.7426407,14.5355339 C14.9379028,14.7307961 14.9379028,15.0473785 14.7426407,15.2426407 C14.5473785,15.4379028 14.2307961,15.4379028 14.0355339,15.2426407 L11.3094795,12.5165863 C10.1213803,13.4460256 8.62538399,14 7,14 C3.13400675,14 0,10.8659932 0,7 C0,3.13400675 3.13400675,0 7,0 C10.8659932,0 14,3.13400675 14,7 C14,8.88032115 13.2586184,10.5874834 12.0522243,11.8451175 Z M7,13 C10.3137085,13 13,10.3137085 13,7 C13,3.6862915 10.3137085,1 7,1 C3.6862915,1 1,3.6862915 1,7 C1,10.3137085 3.6862915,13 7,13 Z" id="合并形状" fill="#999999"></path>
    </g>
</svg>