<?xml version="1.0" encoding="UTF-8"?>
<svg width="16px" height="16px" viewBox="0 0 16 16" version="1.1" xmlns="http://www.w3.org/2000/svg" xmlns:xlink="http://www.w3.org/1999/xlink">
    <!-- Generator: Sketch 52 (66869) - http://www.bohemiancoding.com/sketch -->
    <title>桌面选中</title>
    <desc>Created with Sketch.</desc>
    <g id="桌面选中" stroke="none" stroke-width="1" fill="none" fill-rule="evenodd">
        <path d="M7.5,14 L7.5,10.5 C7.5,10.2238576 7.72385763,10 8,10 C8.27614237,10 8.5,10.2238576 8.5,10.5 L8.5,14 L12,14 C12.5522847,14 13,13.5522847 13,13 L13,7 L14,7 L14.0854637,7 L8,2.26686158 L1.91453632,7 L3,7 L3,7.5 L3,13 C3,13.5522847 3.44771525,14 4,14 L7.5,14 Z M14,8 L14,13 C14,14.1045695 13.1045695,15 12,15 L4,15 C2.8954305,15 2,14.1045695 2,13 L2,8 L1.91453632,8 C1.36225157,8 0.914536322,7.55228475 0.914536322,7 C0.914536322,6.69140957 1.05700917,6.40010398 1.30059571,6.21064778 L7.38605939,1.47750937 C7.74716987,1.19664566 8.25283013,1.19664566 8.61394061,1.47750937 L14.6994043,6.21064778 C15.1353515,6.54971782 15.2138859,7.17799342 14.8748159,7.61394061 C14.6853597,7.85752716 14.3940541,8 14.0854637,8 L14,8 Z" id="合并形状" fill="#3296FA" fill-rule="nonzero"></path>
    </g>
</svg>