<?xml version="1.0" encoding="UTF-8"?>
<svg width="16px" height="16px" viewBox="0 0 16 16" version="1.1" xmlns="http://www.w3.org/2000/svg" xmlns:xlink="http://www.w3.org/1999/xlink">
    <!-- Generator: Sketch 52 (66869) - http://www.bohemiancoding.com/sketch -->
    <title>成员</title>
    <desc>Created with Sketch.</desc>
    <g id="成员" stroke="none" stroke-width="1" fill="none" fill-rule="evenodd">
        <path d="M5.71918065,8.37998846 C4.39114173,7.59762597 3.5,6.15288163 3.5,4.5 C3.5,2.01471863 5.51471863,0 8,0 C10.4852814,0 12.5,2.01471863 12.5,4.5 C12.5,6.15288163 11.6088583,7.59762597 10.2808194,8.37998846 C13.026998,9.32595602 15,11.9325684 15,15 C15,15.2761424 14.7761424,15.5 14.5,15.5 C14.2238576,15.5 14,15.2761424 14,15 C14,11.6862915 11.3137085,9 8,9 C4.6862915,9 2,11.6862915 2,15 C2,15.2761424 1.77614237,15.5 1.5,15.5 C1.22385763,15.5 1,15.2761424 1,15 C1,11.9325684 2.97300204,9.32595602 5.71918065,8.37998846 Z M8,8 C9.93299662,8 11.5,6.43299662 11.5,4.5 C11.5,2.56700338 9.93299662,1 8,1 C6.06700338,1 4.5,2.56700338 4.5,4.5 C4.5,6.43299662 6.06700338,8 8,8 Z M8.60000001,10 L9,10.4 L8.60000001,11.6 L9,14 L8.2,14.8 L7.8,14.8 L7,14 L7.40000001,11.6 L7,10.4 L7.40000001,10 L8.60000001,10 Z" id="合并形状" fill="#181818" fill-rule="nonzero"></path>
    </g>
</svg>