<?xml version="1.0" encoding="UTF-8"?>
<svg width="24px" height="24px" viewBox="0 0 24 24" version="1.1" xmlns="http://www.w3.org/2000/svg" xmlns:xlink="http://www.w3.org/1999/xlink">
    <!-- Generator: Sketch 52 (66869) - http://www.bohemiancoding.com/sketch -->
    <title>缩小</title>
    <desc>Created with Sketch.</desc>
    <g id="缩小" stroke="none" stroke-width="1" fill="none" fill-rule="evenodd">
        <path d="M3,1 C1.8954305,1 1,1.8954305 1,3 L1,21 C1,22.1045695 1.8954305,23 3,23 L21,23 C22.1045695,23 23,22.1045695 23,21 L23,3 C23,1.8954305 22.1045695,1 21,1 L3,1 Z M3,0 L21,0 C22.6568542,-3.04359188e-16 24,1.34314575 24,3 L24,21 C24,22.6568542 22.6568542,24 21,24 L3,24 C1.34314575,24 2.02906125e-16,22.6568542 0,21 L0,3 C-2.02906125e-16,1.34314575 1.34314575,3.04359188e-16 3,0 Z M15,8.24685425 L20.0104076,3.23644661 C20.2056698,3.04118446 20.5222523,3.04118446 20.7175144,3.23644661 C20.9127766,3.43170876 20.9127766,3.74829124 20.7175144,3.94355339 L15.6568542,9.00421356 L19.5,9.00421356 C19.7761424,9.00421356 20,9.22807119 20,9.50421356 C20,9.78035594 19.7761424,10.0042136 19.5,10.0042136 L14.5,10.0042136 C14.2238576,10.0042136 14,9.78035594 14,9.50421356 L14,4.50421356 C14,4.22807119 14.2238576,4.00421356 14.5,4.00421356 C14.7761424,4.00421356 15,4.22807119 15,4.50421356 L15,8.24685425 Z M9.00396103,15.7573593 L3.99355339,20.767767 C3.79829124,20.9630291 3.48170876,20.9630291 3.28644661,20.767767 C3.09118446,20.5725048 3.09118446,20.2559223 3.28644661,20.0606602 L8.34710678,15 L4.50396103,15 C4.22781866,15 4.00396103,14.7761424 4.00396103,14.5 C4.00396103,14.2238576 4.22781866,14 4.50396103,14 L9.50396103,14 C9.78010341,14 10.003961,14.2238576 10.003961,14.5 L10.003961,19.5 C10.003961,19.7761424 9.78010341,20 9.50396103,20 C9.22781866,20 9.00396103,19.7761424 9.00396103,19.5 L9.00396103,15.7573593 Z" id="合并形状" fill="#979797" fill-rule="nonzero"></path>
    </g>
</svg>