<?xml version="1.0" encoding="UTF-8"?>
<svg width="16px" height="16px" viewBox="0 0 16 16" version="1.1" xmlns="http://www.w3.org/2000/svg" xmlns:xlink="http://www.w3.org/1999/xlink">
    <!-- Generator: Sketch 52 (66869) - http://www.bohemiancoding.com/sketch -->
    <title>项目</title>
    <desc>Created with Sketch.</desc>
    <g id="项目" stroke="none" stroke-width="1" fill="none" fill-rule="evenodd">
        <path d="M1.51892603,5 L8,8.73138716 L14.481074,5 L8,1.26861284 L1.51892603,5 Z M1.01997567,4.13336943 L7.50104964,0.401982274 C7.80991678,0.224156365 8.19008322,0.224156365 8.49895036,0.401982274 L14.9800243,4.13336943 C15.4586512,4.40893211 15.6232672,5.02032351 15.3477045,5.49895036 C15.2597104,5.65178799 15.132862,5.77863645 14.9800243,5.86663057 L8.49895036,9.59801773 C8.19008322,9.77584364 7.80991678,9.77584364 7.50104964,9.59801773 L1.01997567,5.86663057 C0.541348827,5.59106789 0.376732789,4.97967649 0.652295462,4.50104964 C0.74028958,4.34821201 0.867138039,4.22136355 1.01997567,4.13336943 Z M0.751930531,8.93412157 C0.512171808,8.79711659 0.428873444,8.49168925 0.565878429,8.25193053 C0.702883414,8.01217181 1.00831075,7.92887344 1.24806947,8.06587843 L7.75193053,11.7823705 C7.90564687,11.8702084 8.09435313,11.8702084 8.24806947,11.7823705 L14.7519305,8.06587843 C14.9916893,7.92887344 15.2971166,8.01217181 15.4341216,8.25193053 C15.5711266,8.49168925 15.4878282,8.79711659 15.2480695,8.93412157 L8.74420841,12.6506136 C8.2830594,12.9141273 7.7169406,12.9141273 7.25579159,12.6506136 L0.751930531,8.93412157 Z M0.751930531,11.9341216 C0.512171808,11.7971166 0.428873444,11.4916893 0.565878429,11.2519305 C0.702883414,11.0121718 1.00831075,10.9288734 1.24806947,11.0658784 L7.75193053,14.7823705 C7.90564687,14.8702084 8.09435313,14.8702084 8.24806947,14.7823705 L14.7519305,11.0658784 C14.9916893,10.9288734 15.2971166,11.0121718 15.4341216,11.2519305 C15.5711266,11.4916893 15.4878282,11.7971166 15.2480695,11.9341216 L8.74420841,15.6506136 C8.2830594,15.9141273 7.7169406,15.9141273 7.25579159,15.6506136 L0.751930531,11.9341216 Z" id="合并形状" fill="#181818" fill-rule="nonzero"></path>
    </g>
</svg>