<?xml version="1.0" encoding="UTF-8"?>
<svg width="16px" height="16px" viewBox="0 0 16 16" version="1.1" xmlns="http://www.w3.org/2000/svg" xmlns:xlink="http://www.w3.org/1999/xlink">
    <!-- Generator: Sketch 52 (66869) - http://www.bohemiancoding.com/sketch -->
    <title>组织架构图</title>
    <desc>Created with Sketch.</desc>
    <g id="组织架构图" stroke="none" stroke-width="1" fill="none" fill-rule="evenodd">
        <circle id="椭圆形" stroke="#181818" cx="8" cy="8" r="3.5"></circle>
        <circle id="椭圆形-copy" stroke="#181818" cx="8" cy="8" r="3.5"></circle>
        <circle id="椭圆形-copy-2" stroke="#181818" cx="12.5" cy="2.5" r="2"></circle>
        <circle id="椭圆形-copy-4" stroke="#181818" cx="2.5" cy="13.5" r="2"></circle>
        <circle id="椭圆形-copy-3" stroke="#181818" cx="14" cy="13" r="1.5"></circle>
        <circle id="椭圆形-copy-5" stroke="#181818" cx="2.5" cy="2.5" r="2"></circle>
        <rect id="矩形" fill="#181818" fill-rule="nonzero" transform="translate(10.829459, 4.902591) rotate(-315.000000) translate(-10.829459, -4.902591) " x="10.3294593" y="3.9025915" width="1" height="2"></rect>
        <rect id="矩形-copy-2" fill="#181818" fill-rule="nonzero" transform="translate(5.060660, 11.767767) rotate(-315.000000) translate(-5.060660, -11.767767) " x="4.56066017" y="10.767767" width="1" height="2"></rect>
        <rect id="矩形-copy" fill="#181818" fill-rule="nonzero" transform="translate(11.707107, 10.707107) rotate(-225.000000) translate(-11.707107, -10.707107) " x="11.2071068" y="9.20710678" width="1" height="3"></rect>
        <rect id="矩形-copy-3" fill="#181818" fill-rule="nonzero" transform="translate(4.707107, 4.707107) rotate(-225.000000) translate(-4.707107, -4.707107) " x="4.20710678" y="3.20710678" width="1" height="3"></rect>
        <path d="M9.46217085,9.46206509 L6.5,9.46206509 L6.5,9.38610463 C6.5,8.93041742 7.37343952,8.43670465 7.60130579,8.39873953 C7.60130579,8.39873953 7.60130579,8.32277907 7.63927091,8.28482906 C7.60130579,8.2088686 7.44941509,8.05694768 7.41138954,7.82914184 C7.37342441,7.79117672 7.33542908,7.75318139 7.29747906,7.67725114 C7.2215186,7.60129068 7.2215186,7.48739532 7.29747906,7.37343952 C7.29747906,7.25952905 7.25951394,6.91775231 7.44936977,6.68985582 C7.56328024,6.57594535 7.75318139,6.5 7.98101744,6.5 C8.20889882,6.5 8.39875464,6.57596046 8.51266511,6.68985582 C8.70252094,6.9177372 8.66455581,7.25949883 8.66455581,7.37343952 C8.74051627,7.44939998 8.74051627,7.6013209 8.70252094,7.71523137 C8.66455581,7.79119183 8.62656048,7.82914184 8.58861046,7.86712207 C8.55064534,8.09500345 8.39875464,8.24690926 8.36072909,8.32280929 C8.36072909,8.36077441 8.36072909,8.39876975 8.39869421,8.43671976 C8.62657559,8.47468488 9.5,8.96836743 9.5,9.42408486 L9.5,9.46206509 L9.46217085,9.46206509 Z" id="路径" fill="#181818" fill-rule="nonzero"></path>
    </g>
</svg>