<?xml version="1.0" encoding="UTF-8"?>
<svg width="20px" height="20px" viewBox="0 0 20 20" version="1.1" xmlns="http://www.w3.org/2000/svg" xmlns:xlink="http://www.w3.org/1999/xlink">
    <!-- Generator: Sketch 52 (66869) - http://www.bohemiancoding.com/sketch -->
    <title>关闭弹窗</title>
    <desc>Created with Sketch.</desc>
    <g id="关闭弹窗" stroke="none" stroke-width="1" fill="none" fill-rule="evenodd">
        <path d="M8.85660172,8.85660172 L8.85660172,2.85660172 C8.85660172,2.44238816 9.19238816,2.10660172 9.60660172,2.10660172 C10.0208153,2.10660172 10.3566017,2.44238816 10.3566017,2.85660172 L10.3566017,8.85660172 L16.3566017,8.85660172 C16.7708153,8.85660172 17.1066017,9.19238816 17.1066017,9.60660172 C17.1066017,10.0208153 16.7708153,10.3566017 16.3566017,10.3566017 L10.3566017,10.3566017 L10.3566017,16.3566017 C10.3566017,16.7708153 10.0208153,17.1066017 9.60660172,17.1066017 C9.19238816,17.1066017 8.85660172,16.7708153 8.85660172,16.3566017 L8.85660172,10.3566017 L2.85660172,10.3566017 C2.44238816,10.3566017 2.10660172,10.0208153 2.10660172,9.60660172 C2.10660172,9.19238816 2.44238816,8.85660172 2.85660172,8.85660172 L8.85660172,8.85660172 Z" id="合并形状" fill="#A6A6A6" transform="translate(9.606602, 9.606602) rotate(-315.000000) translate(-9.606602, -9.606602) "></path>
    </g>
</svg>