<?xml version="1.0" encoding="UTF-8"?>
<svg width="16px" height="16px" viewBox="0 0 16 16" version="1.1" xmlns="http://www.w3.org/2000/svg" xmlns:xlink="http://www.w3.org/1999/xlink">
    <!-- Generator: Sketch 52 (66869) - http://www.bohemiancoding.com/sketch -->
    <title>切片</title>
    <desc>Created with Sketch.</desc>
    <g id="Page-1" stroke="none" stroke-width="1" fill="none" fill-rule="evenodd">
        <g id="成员管理" transform="translate(-1334.000000, -507.000000)" fill="#3296FA" fill-rule="nonzero">
            <g id="编辑-copy-5" transform="translate(1334.000000, 507.000000)">
                <path d="M13,6 L13,4 C13,2.8954305 12.1045695,2 11,2 L9,2 C8.72385763,2 8.5,1.77614237 8.5,1.5 C8.5,1.22385763 8.72385763,1 9,1 L11,1 C12.6568542,1 14,2.34314575 14,4 L14,6 C14,6.27614237 13.7761424,6.5 13.5,6.5 C13.2238576,6.5 13,6.27614237 13,6 Z M1,6 L1,4 C1,2.34314575 2.34314575,1 4,1 L6,1 C6.27614237,1 6.5,1.22385763 6.5,1.5 C6.5,1.77614237 6.27614237,2 6,2 L4,2 C2.8954305,2 2,2.8954305 2,4 L2,6 C2,6.27614237 1.77614237,6.5 1.5,6.5 C1.22385763,6.5 1,6.27614237 1,6 Z M6,14 L4,14 C2.34314575,14 1,12.6568542 1,11 L1,9 C1,8.72385763 1.22385763,8.5 1.5,8.5 C1.77614237,8.5 2,8.72385763 2,9 L2,11 C2,12.1045695 2.8954305,13 4,13 L6,13 C6.27614237,13 6.5,13.2238576 6.5,13.5 C6.5,13.7761424 6.27614237,14 6,14 Z M13.7781746,9 L14,9 L13.7781746,9 L12.2426407,10.5355339 L14.0104076,12.3033009 C14.2056698,12.498563 14.2056698,12.8151455 14.0104076,13.0104076 C13.8151455,13.2056698 13.498563,13.2056698 13.3033009,13.0104076 L11.5355339,11.2426407 L9.76776695,13.0104076 C9.57250481,13.2056698 9.25592232,13.2056698 9.06066017,13.0104076 C8.86539803,12.8151455 8.86539803,12.498563 9.06066017,12.3033009 L10.8284271,10.5355339 L9.06066017,8.76776695 C8.86539803,8.57250481 8.86539803,8.25592232 9.06066017,8.06066017 C9.25592232,7.86539803 9.57250481,7.86539803 9.76776695,8.06066017 L11.5355339,9.82842712 L13.3033009,8.06066017 C13.498563,7.86539803 13.8151455,7.86539803 14.0104076,8.06066017 C14.2056698,8.25592232 14.2056698,8.57250481 14.0104076,8.76776695 L13.7781746,9 Z M9,14 L9,13 L9,14 Z" id="合并形状"></path>
            </g>
        </g>
    </g>
</svg>