<?xml version="1.0" encoding="UTF-8"?>
<svg width="18px" height="18px" viewBox="0 0 18 18" version="1.1" xmlns="http://www.w3.org/2000/svg" xmlns:xlink="http://www.w3.org/1999/xlink">
    <!-- Generator: Sketch 52 (66869) - http://www.bohemiancoding.com/sketch -->
    <title>切片</title>
    <desc>Created with Sketch.</desc>
    <g id="医生" stroke="none" stroke-width="1" fill="none" fill-rule="evenodd">
        <g id="首页_新版头向下拉" transform="translate(-1250.000000, -70.000000)" fill="#333333" fill-rule="nonzero">
            <g id="下拉/我的二维码" transform="translate(1250.000000, 70.000000)">
                <path d="M14.8314351,15.9977221 L14.8314351,12.498861 L15.9977221,12.498861 L15.9977221,15.9977221 L14.8314351,15.9977221 Z M10.166287,10.166287 L15.9977221,10.166287 L15.9977221,11.332574 L10.166287,11.332574 L10.166287,10.166287 Z M9.58314351,15.9977221 L8.41685649,15.9977221 L8.41685649,9.58314351 L2.0022779,9.58314351 L2.0022779,8.41685649 L8.41685649,8.41685649 L8.41685649,2.0022779 L9.58314351,2.0022779 L9.58314351,8.41685649 L15.9977221,8.41685649 L15.9977221,9.58314351 L9.58314351,9.58314351 L9.58314351,15.9977221 Z M14.8314351,7.83371299 L11.332574,7.83371299 C10.6884515,7.83371299 10.166287,7.3115485 10.166287,6.66742597 L10.166287,3.16856492 C10.166287,2.85924637 10.2891633,2.5625967 10.5078846,2.34387546 C10.7266058,2.12515422 11.0232555,2.0022779 11.332574,2.0022779 L14.8314351,2.0022779 C15.4755576,2.0022779 15.9977221,2.52444238 15.9977221,3.16856492 L15.9977221,6.66742597 C15.9977221,7.3115485 15.4755576,7.83371299 14.8314351,7.83371299 Z M14.2482916,3.75170843 L11.9157175,3.75170843 L11.9157175,6.08428246 L14.2482916,6.08428246 L14.2482916,3.75170843 Z M6.24829157,3.75170843 L3.91571754,3.75170843 L3.91571754,6.08428246 L6.24829157,6.08428246 L6.24829157,3.75170843 Z M6.66742597,7.83371299 L3.16856492,7.83371299 C2.52444238,7.83371299 2.0022779,7.3115485 2.0022779,6.66742597 L2.0022779,3.16856492 C2.0022779,2.52444238 2.52444238,2.0022779 3.16856492,2.0022779 L6.66742597,2.0022779 C7.3115485,2.0022779 7.83371299,2.52444238 7.83371299,3.16856492 L7.83371299,6.66742597 C7.83371299,7.3115485 7.3115485,7.83371299 6.66742597,7.83371299 Z M3.16856492,10.166287 L6.66742597,10.166287 C6.97674452,10.166287 7.27339419,10.2891633 7.49211543,10.5078846 C7.71083667,10.7266058 7.83371299,11.0232555 7.83371299,11.332574 L7.83371299,14.8314351 C7.83371299,15.4755576 7.3115485,15.9977221 6.66742597,15.9977221 L3.16856492,15.9977221 C2.85924637,15.9977221 2.5625967,15.8748458 2.34387546,15.6561245 C2.12515422,15.4374033 2.0022779,15.1407536 2.0022779,14.8314351 L2.0022779,11.332574 C2.0022779,10.6884515 2.52444238,10.166287 3.16856492,10.166287 Z M3.75170843,14.2482916 L6.08428246,14.2482916 L6.08428246,11.9157175 L3.75170843,11.9157175 L3.75170843,14.2482916 Z M11.332574,15.9977221 L10.166287,15.9977221 L10.166287,12.498861 L11.332574,12.498861 L11.332574,15.9977221 Z M13.6651481,15.9977221 L12.498861,15.9977221 L12.498861,12.498861 L13.6651481,12.498861 L13.6651481,15.9977221 Z" id="形状"></path>
            </g>
        </g>
    </g>
</svg>