<?xml version="1.0" encoding="UTF-8"?>
<svg width="18px" height="18px" viewBox="0 0 18 18" version="1.1" xmlns="http://www.w3.org/2000/svg" xmlns:xlink="http://www.w3.org/1999/xlink">
    <!-- Generator: Sketch 52 (66869) - http://www.bohemiancoding.com/sketch -->
    <title>下拉/设置</title>
    <desc>Created with Sketch.</desc>
    <g id="下拉/设置" stroke="none" stroke-width="1" fill="none" fill-rule="evenodd">
        <path d="M8.5,11.8662178 L8.5,13.5 C8.5,13.7761424 8.72385763,14 9,14 C9.27614237,14 9.5,13.7761424 9.5,13.5 L9.5,11.8662178 C9.79890069,11.6933131 10,11.3701412 10,11 C10,10.4477153 9.55228475,10 9,10 C8.44771525,10 8,10.4477153 8,11 C8,11.3701412 8.20109931,11.6933131 8.5,11.8662178 Z M2,7 L16,7 L16,12 C16,14.7614237 13.7614237,17 11,17 L7,17 C4.23857625,17 2,14.7614237 2,12 L2,7 Z M12,6 C12,4.34314575 10.6568542,3 9,3 C7.34314575,3 6,4.34314575 6,6 L4,6 C4,3.23857625 6.23857625,1 9,1 C11.7614237,1 14,3.23857625 14,6 L12,6 Z" id="合并形状" fill="#333333"></path>
    </g>
</svg>