<?xml version="1.0" encoding="UTF-8"?>
<svg width="16px" height="16px" viewBox="0 0 16 16" version="1.1" xmlns="http://www.w3.org/2000/svg" xmlns:xlink="http://www.w3.org/1999/xlink">
    <!-- Generator: Sketch 52 (66869) - http://www.bohemiancoding.com/sketch -->
    <title>题型问答</title>
    <desc>Created with Sketch.</desc>
    <g id="题型问答" stroke="none" stroke-width="1" fill="none" fill-rule="evenodd">
        <path d="M1,14 L13,14 C14.1045695,14 15,13.1045695 15,12 L15,4 C15,2.8954305 14.1045695,2 13,2 L3,2 C1.8954305,2 1,2.8954305 1,4 L1,14 Z M3,1 L13,1 C14.6568542,1 16,2.34314575 16,4 L16,12 C16,13.6568542 14.6568542,15 13,15 L0,15 L0,4 C-2.02906125e-16,2.34314575 1.34314575,1 3,1 Z M4.5,7.5 L11.5,7.5 C11.7761424,7.5 12,7.72385763 12,8 C12,8.27614237 11.7761424,8.5 11.5,8.5 L4.5,8.5 C4.22385763,8.5 4,8.27614237 4,8 C4,7.72385763 4.22385763,7.5 4.5,7.5 Z" id="合并形状" fill="#999999" fill-rule="nonzero"></path>
    </g>
</svg>