<?xml version="1.0" encoding="UTF-8"?>
<svg width="16px" height="16px" viewBox="0 0 16 16" version="1.1" xmlns="http://www.w3.org/2000/svg" xmlns:xlink="http://www.w3.org/1999/xlink">
    <!-- Generator: Sketch 52 (66869) - http://www.bohemiancoding.com/sketch -->
    <title>终点事件</title>
    <desc>Created with Sketch.</desc>
    <g id="终点事件" stroke="none" stroke-width="1" fill="none" fill-rule="evenodd">
        <path d="M8,15 C11.8659932,15 15,11.8659932 15,8 C15,4.13400675 11.8659932,1 8,1 C4.13400675,1 1,4.13400675 1,8 C1,11.8659932 4.13400675,15 8,15 Z M8,16 C3.581722,16 0,12.418278 0,8 C0,3.581722 3.581722,0 8,0 C12.418278,0 16,3.581722 16,8 C16,12.418278 12.418278,16 8,16 Z M4.5,7.5 L11.5,7.5 C11.7761424,7.5 12,7.72385763 12,8 C12,8.27614237 11.7761424,8.5 11.5,8.5 L4.5,8.5 C4.22385763,8.5 4,8.27614237 4,8 C4,7.72385763 4.22385763,7.5 4.5,7.5 Z" id="合并形状" fill="#999999" fill-rule="nonzero"></path>
    </g>
</svg>