<?xml version="1.0" encoding="UTF-8"?>
<svg width="14px" height="14px" viewBox="0 0 14 14" version="1.1" xmlns="http://www.w3.org/2000/svg" xmlns:xlink="http://www.w3.org/1999/xlink">
    <!-- Generator: Sketch 52 (66869) - http://www.bohemiancoding.com/sketch -->
    <title>发送条件</title>
    <desc>Created with Sketch.</desc>
    <g id="发送条件" stroke="none" stroke-width="1" fill="none" fill-rule="evenodd">
        <path d="M2.90103049,2 L6,6.50759201 L6,10.2190115 L7,10.9809163 L7,6.50759201 L10.0989695,2 L2.90103049,2 Z M5,6.81818182 L1,1 L12,1 L8,6.81818182 L8,13 L5,10.7142857 L5,6.81818182 Z M10,8 L13,8 L13,9 L10,9 L10,8 Z M10,6 L13,6 L13,7 L10,7 L10,6 Z M10,10 L13,10 L13,11 L10,11 L10,10 Z" id="合并形状" fill="#181818" fill-rule="nonzero"></path>
    </g>
</svg>