<?xml version="1.0" encoding="UTF-8"?>
<svg width="16px" height="16px" viewBox="0 0 16 16" version="1.1" xmlns="http://www.w3.org/2000/svg" xmlns:xlink="http://www.w3.org/1999/xlink">
    <!-- Generator: Sketch 52 (66869) - http://www.bohemiancoding.com/sketch -->
    <title>题型多选题</title>
    <desc>Created with Sketch.</desc>
    <g id="题型多选题" stroke="none" stroke-width="1" fill="none" fill-rule="evenodd">
        <path d="M3,1 C1.8954305,1 1,1.8954305 1,3 L1,13 C1,14.1045695 1.8954305,15 3,15 L13,15 C14.1045695,15 15,14.1045695 15,13 L15,3 C15,1.8954305 14.1045695,1 13,1 L3,1 Z M3,0 L13,0 C14.6568542,-3.04359188e-16 16,1.34314575 16,3 L16,13 C16,14.6568542 14.6568542,16 13,16 L3,16 C1.34314575,16 2.02906125e-16,14.6568542 0,13 L0,3 C-2.02906125e-16,1.34314575 1.34314575,3.04359188e-16 3,0 Z M6.53553391,10.4852814 L11.8388348,5.18198052 C12.0340969,4.98671837 12.3506794,4.98671837 12.5459415,5.18198052 C12.7412037,5.37724266 12.7412037,5.69382515 12.5459415,5.8890873 L6.8890873,11.5459415 C6.69382515,11.7412037 6.37724266,11.7412037 6.18198052,11.5459415 L3.35355339,8.71751442 C3.15829124,8.52225228 3.15829124,8.20566979 3.35355339,8.01040764 C3.54881554,7.81514549 3.86539803,7.81514549 4.06066017,8.01040764 L6.53553391,10.4852814 Z" id="合并形状" fill="#999999" fill-rule="nonzero"></path>
    </g>
</svg>