<?xml version="1.0" encoding="UTF-8"?>
<svg width="70px" height="70px" viewBox="0 0 70 70" version="1.1" xmlns="http://www.w3.org/2000/svg" xmlns:xlink="http://www.w3.org/1999/xlink">
    <!-- Generator: Sketch 52 (66869) - http://www.bohemiancoding.com/sketch -->
    <title>切片</title>
    <desc>Created with Sketch.</desc>
    <defs>
        <linearGradient x1="50%" y1="0%" x2="50%" y2="100%" id="linearGradient-1">
            <stop stop-color="#718AC2" offset="0%"></stop>
            <stop stop-color="#4268BE" offset="100%"></stop>
        </linearGradient>
    </defs>
    <g id="Page-1" stroke="none" stroke-width="1" fill="none" fill-rule="evenodd">
        <g id="宣教文件/随访表" transform="translate(-642.000000, -384.000000)">
            <g id="上传视频-copy-2" transform="translate(642.000000, 384.000000)">
                <circle id="椭圆形" fill="url(#linearGradient-1)" opacity="0.7" cx="35" cy="35" r="35"></circle>
                <path d="M46.9733478,28.2792482 C46.9733478,28.1593132 47.0333153,27.9794107 46.9733478,27.7995082 L46.9733478,19.1641884 C46.9733478,18.8043835 46.7934453,18.5082939 46.5535753,18.264676 C46.2879719,18.0408013 45.9338041,17.9522593 45.5940953,18.024806 L26.8280164,23.3019458 C26.2883089,23.4218808 25.9285039,23.8416533 25.9285039,24.3813608 L25.9285039,45.0101802 C25.148426,44.6902874 24.3129514,44.5272679 23.4698365,44.5304402 C22.8011743,44.5210501 22.134292,44.6017316 21.4871611,44.7703102 C18.4288186,45.6136031 16.5098587,48.0085551 17.1095337,50.2273525 C17.5892737,51.96641 19.3882986,53.0458249 21.6670635,53.0458249 C22.3229581,53.0458249 22.9863485,52.9258899 23.645991,52.8059549 C26.4044959,52.0263774 28.2035208,50.04745 28.1435533,48.0685226 C28.2035208,47.9485876 28.2035208,47.8286526 28.2035208,47.6487501 L28.2035208,34.2160305 L44.6945828,29.5985331 L44.6945828,39.7930078 C43.914505,39.473115 43.0790304,39.3100956 42.2359154,39.3132678 C41.568506,39.3042144 40.9029067,39.3848931 40.256988,39.5531378 C37.1986456,40.3964308 35.2796856,42.7913827 35.8793606,45.0101802 C36.3591006,46.7492376 38.1581255,47.8286526 40.4368905,47.8286526 C41.1042999,47.8377061 41.7698992,47.7570274 42.4158179,47.5887826 C45.1143553,46.8691726 46.9133803,44.8902452 46.9133803,42.9113177 C46.9733478,42.7913827 46.9733478,42.6714477 46.9733478,42.4915452 L46.9733478,28.2792482 Z M28.2053948,31.8772981 L28.2053948,27.8594757 L44.6964568,23.2419783 L44.6964568,27.2598007 L28.2053948,31.8772981 Z" id="形状" fill="#FFFFFF" fill-rule="nonzero"></path>
            </g>
        </g>
    </g>
</svg>