<?xml version="1.0" encoding="UTF-8"?>
<svg width="70px" height="70px" viewBox="0 0 70 70" version="1.1" xmlns="http://www.w3.org/2000/svg" xmlns:xlink="http://www.w3.org/1999/xlink">
    <!-- Generator: Sketch 52 (66869) - http://www.bohemiancoding.com/sketch -->
    <title>切片</title>
    <desc>Created with Sketch.</desc>
    <defs>
        <linearGradient x1="50%" y1="0%" x2="50%" y2="100%" id="linearGradient-1">
            <stop stop-color="#52D29B" offset="0%"></stop>
            <stop stop-color="#00AB65" offset="100%"></stop>
        </linearGradient>
        <path d="M52.9075318,24.3666743 L49.157744,23.6505858 L49.157744,46.3157545 C49.2841317,47.4009695 48.967073,48.4912512 48.2784389,49.3394543 C47.4342166,50.016478 46.3530449,50.3252514 45.2786087,50.19618 L43.0587344,50.19618 L47.867817,51.1132248 C49.8677038,51.4961064 50.3476766,51.2035423 50.7386223,49.0975325 L54.8583891,27.2600589 C55.2383676,25.2650105 54.9383845,24.761168 52.9084994,24.3676419 L52.9075318,24.3666743 Z M30.3497763,20.0527249 L25.5700469,19.1353575 C24.0001357,18.8334391 23.3501725,18.9940751 23.0001923,20.0527249 L30.3497763,20.0527249 Z M36.529104,28.9712523 C36.5344279,27.5347277 37.5533529,26.3018302 38.9631658,26.0260419 C40.3729786,25.7502535 41.7813764,26.5083168 42.3276208,27.8369434 C42.8738651,29.1655699 42.4059548,30.6950483 41.2098519,31.4906421 C40.013749,32.2862358 38.4222883,32.1265582 37.4080865,31.1091958 C36.8423841,30.5418315 36.5260633,29.7724466 36.529104,28.9712523 Z M43.878688,42.9891686 L18.880103,42.9891686 C21.6199479,38.9571387 26.4796728,32.2765491 27.7089581,32.2765491 C28.9382433,32.2765491 32.9686604,37.6885008 34.7979117,39.5932317 C34.7979117,39.5932317 37.1577781,36.4188953 38.3877085,36.4188953 C39.6176389,36.4188953 43.8390128,42.9494934 43.8767526,42.9894911 L43.878688,42.9891686 Z M15,24.034435 L15,46.2864013 C15,48.3630579 15.4193311,48.7559389 17.4598608,48.7559389 L45.2773185,48.7559389 C47.2772053,48.7559389 47.7371792,48.3830568 47.7371793,46.2864013 L47.7371793,24.034435 C47.7371793,22.0187426 47.3472014,21.5548979 45.2773185,21.5548979 L17.461151,21.5548979 C15.4312659,21.5442534 15.0012903,21.9071361 15.0012903,24.034435 L15,24.034435 Z" id="path-2"></path>
        <filter x="-15.0%" y="-18.6%" width="130.0%" height="137.2%" filterUnits="objectBoundingBox" id="filter-3">
            <feOffset dx="0" dy="0" in="SourceAlpha" result="shadowOffsetOuter1"></feOffset>
            <feGaussianBlur stdDeviation="2" in="shadowOffsetOuter1" result="shadowBlurOuter1"></feGaussianBlur>
            <feColorMatrix values="0 0 0 0 0.537254902   0 0 0 0 0.592156863   0 0 0 0 0.807843137  0 0 0 0.15 0" type="matrix" in="shadowBlurOuter1"></feColorMatrix>
        </filter>
    </defs>
    <g id="Page-1" stroke="none" stroke-width="1" fill="none" fill-rule="evenodd">
        <g id="宣教文件/随访表" transform="translate(-382.000000, -384.000000)">
            <g id="上传视频-copy" transform="translate(382.000000, 384.000000)">
                <circle id="椭圆形" fill="url(#linearGradient-1)" opacity="0.7" cx="35" cy="35" r="35"></circle>
                <g id="形状">
                    <use fill="black" fill-opacity="1" filter="url(#filter-3)" xlink:href="#path-2"></use>
                    <use fill="#FFFFFE" fill-rule="evenodd" xlink:href="#path-2"></use>
                </g>
            </g>
        </g>
    </g>
</svg>