<?xml version="1.0" encoding="UTF-8"?>
<svg width="70px" height="70px" viewBox="0 0 70 70" version="1.1" xmlns="http://www.w3.org/2000/svg" xmlns:xlink="http://www.w3.org/1999/xlink">
    <!-- Generator: Sketch 52 (66869) - http://www.bohemiancoding.com/sketch -->
    <title>切片</title>
    <desc>Created with Sketch.</desc>
    <defs>
        <linearGradient x1="50%" y1="0%" x2="50%" y2="100%" id="linearGradient-1">
            <stop stop-color="#FDD337" offset="0%"></stop>
            <stop stop-color="#FDA00E" offset="100%"></stop>
        </linearGradient>
        <path d="M22,16 L48,16 C49.1045695,16 50,16.8954305 50,18 L50,52 C50,53.1045695 49.1045695,54 48,54 L22,54 C20.8954305,54 20,53.1045695 20,52 L20,18 C20,16.8954305 20.8954305,16 22,16 Z M25,21 C24.4477153,21 24,21.4477153 24,22 L24,26 C24,26.5522847 24.4477153,27 25,27 L31,27 C31.5522847,27 32,26.5522847 32,26 L32,22 C32,21.4477153 31.5522847,21 31,21 L25,21 Z M24.5,32 C24.2238576,32 24,32.2238576 24,32.5 C24,32.7761424 24.2238576,33 24.5,33 L40.5,33 C40.7761424,33 41,32.7761424 41,32.5 C41,32.2238576 40.7761424,32 40.5,32 L24.5,32 Z M24.5,38 C24.2238576,38 24,38.2238576 24,38.5 C24,38.7761424 24.2238576,39 24.5,39 L40.5,39 C40.7761424,39 41,38.7761424 41,38.5 C41,38.2238576 40.7761424,38 40.5,38 L24.5,38 Z M24.5,43.5251263 C24.2238576,43.5251263 24,43.7489839 24,44.0251263 C24,44.3012686 24.2238576,44.5251263 24.5,44.5251263 L40.5,44.5251263 C40.7761424,44.5251263 41,44.3012686 41,44.0251263 C41,43.7489839 40.7761424,43.5251263 40.5,43.5251263 L24.5,43.5251263 Z M45.1213203,33.5355339 L44.0606602,32.4748737 C43.865398,32.2796116 43.5488155,32.2796116 43.3535534,32.4748737 C43.1582912,32.6701359 43.1582912,32.9867184 43.3535534,33.1819805 L44.767767,34.5961941 C44.9630291,34.7914562 45.2796116,34.7914562 45.4748737,34.5961941 L47.5961941,32.4748737 C47.7914562,32.2796116 47.7914562,31.9630291 47.5961941,31.767767 C47.4009319,31.5725048 47.0843494,31.5725048 46.8890873,31.767767 L45.1213203,33.5355339 Z M45.1213203,38.5355339 L44.0606602,37.4748737 C43.865398,37.2796116 43.5488155,37.2796116 43.3535534,37.4748737 C43.1582912,37.6701359 43.1582912,37.9867184 43.3535534,38.1819805 L44.767767,39.5961941 C44.9630291,39.7914562 45.2796116,39.7914562 45.4748737,39.5961941 L47.5961941,37.4748737 C47.7914562,37.2796116 47.7914562,36.9630291 47.5961941,36.767767 C47.4009319,36.5725048 47.0843494,36.5725048 46.8890873,36.767767 L45.1213203,38.5355339 Z M45.1213203,44.0606602 L44.0606602,43 C43.865398,42.8047379 43.5488155,42.8047379 43.3535534,43 C43.1582912,43.1952621 43.1582912,43.5118446 43.3535534,43.7071068 L44.767767,45.1213203 C44.9630291,45.3165825 45.2796116,45.3165825 45.4748737,45.1213203 L47.5961941,43 C47.7914562,42.8047379 47.7914562,42.4881554 47.5961941,42.2928932 C47.4009319,42.0976311 47.0843494,42.0976311 46.8890873,42.2928932 L45.1213203,44.0606602 Z" id="path-2"></path>
        <filter x="-20.0%" y="-15.8%" width="140.0%" height="131.6%" filterUnits="objectBoundingBox" id="filter-3">
            <feOffset dx="0" dy="0" in="SourceAlpha" result="shadowOffsetOuter1"></feOffset>
            <feGaussianBlur stdDeviation="2" in="shadowOffsetOuter1" result="shadowBlurOuter1"></feGaussianBlur>
            <feColorMatrix values="0 0 0 0 0   0 0 0 0 0   0 0 0 0 0  0 0 0 0.1 0" type="matrix" in="shadowBlurOuter1"></feColorMatrix>
        </filter>
    </defs>
    <g id="Page-1" stroke="none" stroke-width="1" fill="none" fill-rule="evenodd">
        <g id="宣教文件/随访表" transform="translate(-645.000000, -163.000000)">
            <g id="上传随访表" transform="translate(645.000000, 163.000000)">
                <g id="分组-3">
                    <circle id="椭圆形" fill="url(#linearGradient-1)" opacity="0.7" cx="35" cy="35" r="35"></circle>
                    <g id="合并形状" opacity="0.9">
                        <use fill="black" fill-opacity="1" filter="url(#filter-3)" xlink:href="#path-2"></use>
                        <use fill="#FDFDFD" fill-rule="evenodd" xlink:href="#path-2"></use>
                    </g>
                </g>
            </g>
        </g>
    </g>
</svg>