<?xml version="1.0" encoding="UTF-8"?>
<svg width="13px" height="16px" viewBox="0 0 13 16" version="1.1" xmlns="http://www.w3.org/2000/svg" xmlns:xlink="http://www.w3.org/1999/xlink">
    <!-- Generator: Sketch 52 (66869) - http://www.bohemiancoding.com/sketch -->
    <title>已认证</title>
    <desc>Created with Sketch.</desc>
    <g id="管理员" stroke="none" stroke-width="1" fill="none" fill-rule="evenodd">
        <g id="画板" transform="translate(-161.000000, -2289.000000)" fill="#26C670" fill-rule="nonzero">
            <path d="M173.996866,2291.32664 L173.353853,2291.31589 C173.338759,2291.31589 171.896665,2291.28372 170.407599,2290.66375 C168.879914,2290.02655 167.89538,2289.29553 167.886478,2289.28855 L167.497893,2289 L167.111924,2289.28856 C167.102536,2289.29553 166.118001,2290.02655 164.590804,2290.66375 C163.102803,2291.28428 161.659658,2291.31589 161.64607,2291.31589 L161,2291.32664 L161,2298.05284 C160.999985,2301.42959 165.226923,2305 167.499475,2305 C169.773579,2305 174,2301.42959 174,2298.05284 L173.996866,2291.32664 Z M166.771057,2300 L164,2297.53157 L164.852221,2296.48271 L166.629507,2298.0653 L170.003647,2294 L171,2294.90406 L166.771057,2300 Z" id="已认证"></path>
        </g>
    </g>
</svg>